<svg xmlns="http://www.w3.org/2000/svg" width="400" height="300" fill="none"><path fill="#DCB8FF" d="M118.176 148.432q0-3.72 2.472-6.192t6.192-2.472q1.896 0 3.96.696 1.104.36 1.8 1.08.696.696.696 1.584v2.064h-2.232v-1.32q0-.72-.744-1.176-1.272-.864-3.384-.864-2.76 0-4.512 1.824-1.776 1.848-1.776 4.68 0 3.024 1.824 4.944 1.848 1.92 4.608 1.92.768 0 1.656-.144a5.6 5.6 0 0 0 1.728-.648q.84-.48.84-1.2v-1.32h2.232v2.064q0 .864-.672 1.56t-1.776 1.056q-2.136.72-4.152.72-3.816 0-6.288-2.544t-2.472-6.312m24.195 8.856q-2.76 0-4.656-1.824t-1.896-4.56 1.896-4.536 4.656-1.8 4.656 1.8 1.896 4.536q0 2.712-1.92 4.56-1.896 1.824-4.632 1.824m-4.176-6.384q0 1.872 1.2 3.144 1.224 1.224 2.976 1.224 1.728 0 2.952-1.248t1.224-3.12-1.224-3.096-2.952-1.224q-1.752 0-2.976 1.224-1.2 1.248-1.2 3.096m18.89 6.096h-6.144v-1.8h1.896v-8.04q0-.504-.528-.504h-1.488v-1.8h2.736q1.536 0 1.536 1.344v.624l-.072.696h.048q.456-1.128 1.704-2.04t2.616-.912q2.928 0 3.552 2.856h.048q.528-1.224 1.728-2.04a4.56 4.56 0 0 1 2.616-.816q3.96 0 3.96 4.656v5.976h1.92v1.8h-4.248v-7.272q0-1.536-.48-2.28-.456-.768-1.656-.768-1.632 0-2.616 1.416-.96 1.392-.96 3.312v3.792h1.896v1.8h-4.224v-7.272q0-1.56-.456-2.304t-1.656-.744q-1.632 0-2.64 1.464t-1.008 3.36v3.696h1.92zm22.152-14.568h-2.448v-2.376h2.448zM181.085 157h-6.144v-1.8h1.896v-8.544h-2.016v-1.8h4.344V155.2h1.92zm8.063 0h-6.144v-1.8h1.896v-8.016q0-.528-.528-.528h-1.488v-1.8h2.736q1.536 0 1.536 1.344v.624l-.072.696h.048q.312-.744 1.272-1.704 1.344-1.248 3.456-1.248 2.064 0 3.048 1.152.984 1.128.984 3.504v5.976h1.92v1.8h-4.248v-7.248q0-1.56-.504-2.304-.48-.744-1.776-.744-1.776 0-2.928 1.392-1.128 1.392-1.128 3.264v3.84h1.92zm11.386 4.032.768-1.776q1.488.816 3.336.816 1.776 0 2.808-.864t1.032-2.592v-.96l.072-.768h-.048q-1.176 1.968-3.648 1.968-2.496 0-3.96-1.752t-1.464-4.464q0-2.664 1.416-4.368 1.44-1.704 3.912-1.704 1.32 0 2.376.528 1.08.504 1.56 1.464h.048a2.4 2.4 0 0 1-.048-.48q0-1.224 1.392-1.224h2.592v1.8h-1.344q-.528 0-.528.48v9.36q0 1.44-.528 2.544-.504 1.104-1.392 1.728a6.3 6.3 0 0 1-1.944.96 8 8 0 0 1-2.256.312q-2.136 0-4.152-1.008m4.776-6.192q1.488 0 2.352-1.008.864-1.032.864-3.168 0-4.08-3.432-4.08-1.56 0-2.424 1.08-.864 1.056-.864 2.928 0 1.92.936 3.096.96 1.152 2.568 1.152m15.072-.456v-1.296h2.04v.792q0 .696.816 1.104t1.968.408q1.08 0 1.752-.408.696-.432.696-1.152 0-.744-.576-1.128-.552-.408-2.112-.96l-.336-.12a11 11 0 0 1-2.544-1.248q-1.248-.864-1.248-2.448 0-1.656 1.344-2.496 1.32-.864 3.144-.864 1.488 0 2.856.624 1.344.624 1.344 1.824v1.464h-2.04v-.792q0-.552-.624-.888-.624-.36-1.512-.36-.936 0-1.56.408-.6.384-.6 1.056 0 .792.864 1.32.744.432 1.944.816 1.632.528 2.664 1.2 1.344.864 1.344 2.472 0 1.656-1.368 2.64-1.368.936-3.504.936-1.8 0-3.288-.768-1.464-.792-1.464-2.136m18.107 2.904q-2.76 0-4.656-1.824t-1.896-4.56 1.896-4.536 4.656-1.8 4.656 1.8 1.896 4.536q0 2.712-1.92 4.56-1.896 1.824-4.632 1.824m-4.176-6.384q0 1.872 1.2 3.144 1.224 1.224 2.976 1.224 1.728 0 2.952-1.248t1.224-3.12-1.224-3.096-2.952-1.224q-1.752 0-2.976 1.224-1.2 1.248-1.2 3.096m19.199 6.384q-2.76 0-4.656-1.824t-1.896-4.56 1.896-4.536 4.656-1.8 4.656 1.8 1.896 4.536q0 2.712-1.92 4.56-1.896 1.824-4.632 1.824m-4.176-6.384q0 1.872 1.2 3.144 1.224 1.224 2.976 1.224 1.728 0 2.952-1.248t1.224-3.12-1.224-3.096-2.952-1.224q-1.752 0-2.976 1.224-1.2 1.248-1.2 3.096m18.89 6.096h-6.144v-1.8h1.896v-8.016q0-.528-.528-.528h-1.488v-1.8h2.736q1.536 0 1.536 1.344v.624l-.072.696h.048q.312-.744 1.272-1.704 1.344-1.248 3.456-1.248 2.064 0 3.048 1.152.984 1.128.984 3.504v5.976h1.92v1.8h-4.248v-7.248q0-1.56-.504-2.304-.48-.744-1.776-.744-1.776 0-2.928 1.392-1.128 1.392-1.128 3.264v3.84h1.92z"/></svg>