<svg width="390" height="345" viewBox="0 0 390 345" fill="none" xmlns="http://www.w3.org/2000/svg">
<mask id="mask0_9796_19813" style="mask-type:alpha" maskUnits="userSpaceOnUse" x="0" y="0" width="390" height="345">
<rect x="0.733333" y="0.733333" width="388.533" height="343.533" fill="#212121" stroke="#D2FF00" stroke-width="1.46667"/>
</mask>
<g mask="url(#mask0_9796_19813)">
<path d="M126.656 27.8273C125.207 28.0183 123.759 28.2176 122.311 28.4254" stroke="#141414" stroke-width="1.55541" stroke-linecap="round" stroke-linejoin="round"/>
<path d="M119.583 28.8254C116.553 29.2814 113.524 29.7704 110.497 30.3006" stroke="#141414" stroke-width="1.55541" stroke-linecap="round" stroke-linejoin="round"/>
<path d="M107.01 30.9279C105.315 31.2411 103.621 31.5706 101.928 31.9077" stroke="#141414" stroke-width="1.55541" stroke-linecap="round" stroke-linejoin="round"/>
<path d="M141.938 26.1042C136.843 26.5796 131.747 27.1545 126.654 27.8265C125.206 28.0175 123.758 28.2168 122.309 28.4246C121.399 28.5549 120.49 28.6886 119.58 28.8256C116.55 29.2816 113.521 29.7706 110.495 30.3008C109.332 30.5047 108.17 30.7134 107.008 30.9282C105.313 31.2414 103.62 31.5709 101.927 31.9081C100.138 32.2645 98.3497 32.6296 96.5631 33.0134C95.7819 33.1663 95.0041 33.3308 94.2271 33.5001C92.6856 33.8353 91.1494 34.1961 89.6155 34.5699C88.8507 34.7564 88.0863 34.9458 87.3219 35.1357C85.779 35.5187 84.2352 35.9036 82.6856 36.2749C81.5243 36.5452 80.379 36.8693 79.2328 37.1942L79.0472 37.2464L75.7886 38.1608L74.5661 38.5043L72.3386 39.1304L70.6116 39.6164L69.8593 39.8531L68.9014 40.1541C67.7627 40.5176 66.6209 40.8767 65.4786 41.2372C64.9076 41.4177 64.3362 41.5981 63.7652 41.7796C60.9094 42.6877 58.0568 43.6213 55.2398 44.6643L51.8381 45.8715C51.2702 46.0722 50.7019 46.2719 50.1362 46.4784C49.5705 46.6849 49.0074 46.8982 48.45 47.1251L46.3807 47.9384L41.7128 49.7733C39.1597 50.8263 36.6109 51.9058 34.0697 53.0123C27.7249 55.7754 21.4322 58.7255 15.2768 61.9896L12.0215 63.6708L8.81934 65.4515C7.13201 66.4036 5.42678 67.3359 3.73949 68.2995C3.29873 68.5514 2.85798 68.8033 2.42035 69.0606L-3.8828 72.8645L-4.03203 72.9549L-5.45986 73.8208L-7.0057 74.8237L-9.44855 76.4101L-10.1009 76.8336L-13.2002 78.8502C-13.5861 79.1046 -13.9652 79.3689 -14.3452 79.6317C-14.573 79.7899 -14.8031 79.9446 -15.03 80.1037C-15.4337 80.3867 -15.8369 80.6701 -16.2434 80.9501C-17.2513 81.6598 -18.2684 82.3607 -19.2824 83.0664C-20.2969 83.7726 -21.3082 84.4841 -22.3045 85.2149L-28.2547 89.6556C-30.2391 91.1423 -32.1435 92.7233 -34.0949 94.2601C-41.8088 100.502 -49.3067 107.091 -56.4175 114.106C-65.302 122.872 -73.7274 132.176 -81.5973 141.957C-83.1713 143.913 -84.7231 145.888 -86.2516 147.882C-89.3092 151.87 -92.2746 155.931 -95.1422 160.064C-106.651 176.573 -116.742 194.109 -125.409 212.338C-125.95 213.478 -126.487 214.62 -127.017 215.765C-128.078 218.055 -129.117 220.356 -130.135 222.666C-130.98 224.583 -131.807 226.509 -132.622 228.439C-133.546 230.627 -134.45 232.825 -135.336 235.03C-139.792 246.123 -143.767 257.429 -147.248 268.927C-147.494 269.738 -147.734 270.552 -147.976 271.365C-150.265 279.083 -152.336 286.888 -154.173 294.816C-154.463 296.068 -154.747 297.323 -155.025 298.58C-156.14 303.615 -157.159 308.698 -158.063 313.899C-158.231 314.876 -158.395 315.858 -158.557 316.843C-158.827 318.484 -159.088 320.139 -159.33 321.831C-159.503 323.042 -159.67 324.263 -159.828 325.524C-159.847 325.677 -159.867 325.825 -159.886 325.98L-160.141 328.169L-160.261 329.359L-160.296 329.762L-160.32 330.03L-160.348 330.379L-160.379 330.948L-121.822 331.586C-121.699 326.995 -121.274 322.126 -120.84 317.541C-120.398 312.954 -119.842 308.378 -119.191 303.815C-117.891 294.688 -116.228 285.611 -114.221 276.608C-110.223 258.6 -104.854 240.883 -98.1483 223.664C-91.4336 206.449 -83.3257 189.747 -73.7933 173.848C-64.2982 157.925 -54.8577 142.194 -42.5088 128.257C-36.3305 121.288 -29.7384 114.675 -22.8893 108.331C-21.1534 106.769 -19.4635 105.158 -17.6895 103.637L-12.3625 99.0778C-10.5747 97.5721 -8.72285 96.1396 -6.90576 94.6666C-5.98901 93.9405 -5.09049 93.1912 -4.1582 92.4838L-1.34803 90.3769L1.46213 88.2701L2.86699 87.2164L4.306 86.207C4.306 86.207 14.6915 78.8604 16.6503 77.5701L19.6014 75.6536L22.614 73.8288C30.5893 68.8691 38.9078 64.4501 47.3342 60.259L53.7101 57.2184C54.7658 56.6979 55.8482 56.2309 56.9287 55.761L60.1681 54.3454C64.4599 52.3972 68.8701 50.715 73.2482 48.9599L74.893 48.3092L76.5579 47.7081L79.8877 46.5053L83.218 45.3031C84.3271 44.8988 85.4357 44.4945 86.5638 44.1435C91.0659 42.7109 95.5225 41.1419 100.085 39.8899C118.224 34.5567 134.228 31.6553 152.976 28.8817C152.977 28.8817 152.979 28.8813 152.98 28.8809L152.427 25.2617C150.097 25.4198 147.767 25.5974 145.436 25.7951C144.271 25.8937 143.106 25.9975 141.94 26.1062L141.938 26.1042Z" fill="#FF5B23" stroke="#141414" stroke-width="1.55541" stroke-linecap="round" stroke-linejoin="round"/>
<path d="M86.565 44.1416C85.4369 44.4926 84.3278 44.8969 83.2192 45.3012L79.8889 46.5034L76.5591 47.7062L74.8942 48.3073L73.2494 48.958C68.8713 50.7131 64.4611 52.3953 60.1693 54.3435L56.9299 55.7591C55.8494 56.229 54.767 56.6955 53.7113 57.2165L47.3354 60.2571C38.9089 64.4483 30.5909 68.8672 22.6152 73.827L19.6025 75.6517L16.6514 77.5682C14.6926 78.8585 4.30716 86.2051 4.30716 86.2051L2.86814 87.2145L1.46328 88.2681L-1.34688 90.375L-4.15704 92.4819C-5.08888 93.1898 -5.98738 93.9386 -6.90461 94.6647C-8.7212 96.1373 -10.5736 97.5698 -12.3613 99.0759L-17.6884 103.635C-19.4623 105.156 -21.1518 106.767 -22.8881 108.329C-29.7368 114.673 -36.3294 121.286 -42.5077 128.255C-54.8566 142.192 -64.2971 157.924 -73.7921 173.846C-83.3246 189.745 -91.4324 206.447 -98.1472 223.662C-104.853 240.881 -110.223 258.597 -114.22 276.606C-116.227 285.609 -117.89 294.685 -119.189 303.813C-119.841 308.376 -120.397 312.953 -120.839 317.539C-121.273 322.124 -121.698 326.992 -121.821 331.585L-121.811 331.585L-118.941 331.62L-80.8673 332.091L-80.8778 332.09C-80.8842 332.133 -80.9106 330.024 -80.9106 330.024C-80.9671 329.148 -81.143 323.391 -81.1574 321.406C-81.1775 317.423 -81.0882 313.342 -80.9098 309.241C-80.5555 301.033 -79.8609 292.725 -78.8426 284.429C-76.8229 267.826 -73.5192 251.261 -68.9616 235.024C-59.8316 202.558 -45.4711 171.352 -25.2423 143.629C-20.206 136.684 -14.7446 130.024 -8.99693 123.557C-7.53669 121.965 -6.12025 120.317 -4.61771 118.756L-0.0991816 114.063C1.4213 112.508 3.00802 111.022 4.5625 109.491C5.34797 108.735 6.11615 107.956 6.91821 107.216L9.34016 105.011L11.7666 102.799L12.9814 101.691L14.2309 100.624L19.246 96.3488C20.9372 94.9422 22.6815 93.5993 24.402 92.2159L26.9972 90.1543L29.6599 88.1791C36.7076 82.8102 44.1584 77.9137 51.7809 73.1934C82.3975 54.4495 117.213 41.2126 153.525 32.5561L153.703 33.6839L152.98 28.8794C152.98 28.8794 152.977 28.8798 152.976 28.8802C134.228 31.6538 118.224 34.5553 100.085 39.8885C95.5227 41.14 91.0656 42.7095 86.5641 44.142L86.565 44.1416Z" fill="#DCB8FF" stroke="#141414" stroke-width="1.55541" stroke-linecap="round" stroke-linejoin="round"/>
<path d="M51.7806 73.1934C44.1582 77.9136 36.7073 82.8102 29.6596 88.179L26.9969 90.1543L24.4017 92.2158C22.6817 93.5997 20.9369 94.9421 19.2457 96.3487L14.2306 100.624L12.9811 101.69L11.7664 102.799L9.33989 105.01L6.91796 107.216C6.11589 107.956 5.3477 108.735 4.56224 109.49C3.00775 111.022 1.42105 112.508 -0.0994347 114.063L-4.61798 118.756C-6.12004 120.317 -7.53696 121.965 -8.99719 123.557C-14.7448 130.024 -20.2063 136.685 -25.2426 143.629C-45.4713 171.352 -59.8319 202.558 -68.9619 235.024C-73.5194 251.261 -76.8231 267.826 -78.8429 284.429C-79.8611 292.725 -80.5557 301.033 -80.91 309.241C-81.0885 313.342 -81.1777 317.422 -81.1576 321.406C-81.1433 323.391 -80.9674 329.148 -80.9109 330.024C-80.9109 330.024 -80.8844 332.132 -80.8781 332.09C-80.8781 332.09 -80.8699 332.09 -80.8675 332.091C-80.4313 332.096 -38.958 332.623 -39.0367 332.282C-39.2079 331.679 -39.3622 330.947 -39.513 330.211C-39.8152 328.717 -40.0704 327.056 -40.3164 325.38C-40.7987 322 -41.1753 318.415 -41.4676 314.777C-42.0551 307.489 -42.32 299.95 -42.28 292.362C-42.2163 277.166 -40.9432 261.756 -38.4859 246.505C-33.5399 215.995 -23.717 186.052 -7.86489 158.448C-3.91817 151.533 0.467867 144.831 5.17358 138.246C6.37297 136.624 7.53113 134.943 8.77702 133.343L12.5328 128.521C13.8017 126.918 15.139 125.379 16.4471 123.79C17.1093 123.006 17.7548 122.197 18.4352 121.427L20.4942 119.126L22.5612 116.811L23.5978 115.648L24.6712 114.526L28.9917 110.012C30.4547 108.521 31.9748 107.09 33.4737 105.613L35.7392 103.411L38.0792 101.287C44.2698 95.5151 50.9278 90.1482 57.822 84.9049C85.5126 64.0621 118.585 47.8897 154.097 36.1764L153.704 33.6834L153.527 32.5557C117.214 41.2126 82.3991 54.4491 51.7825 73.193L51.7806 73.1934Z" fill="#ECEDE7" stroke="#141414" stroke-width="1.55541" stroke-linecap="round" stroke-linejoin="round"/>
<path d="M-160.346 330.376L-160.317 330.027L-160.294 329.76L-160.259 329.356L-160.139 328.166L-159.884 325.977C-159.865 325.822 -159.844 325.675 -159.825 325.521C-159.667 324.26 -159.501 323.04 -159.328 321.828C-159.085 320.137 -158.824 318.482 -158.555 316.84C-158.392 315.855 -158.228 314.874 -158.06 313.896C-157.157 308.695 -156.138 303.613 -155.023 298.578C-154.745 297.32 -154.46 296.065 -154.17 294.813C-152.334 286.886 -150.262 279.081 -147.973 271.363C-147.732 270.549 -147.492 269.736 -147.246 268.924C-143.765 257.426 -139.789 246.12 -135.334 235.028C-134.448 232.822 -133.544 230.625 -132.619 228.436C-131.804 226.506 -130.977 224.58 -130.133 222.663C-129.115 220.353 -128.075 218.053 -127.014 215.763C-126.484 214.618 -125.948 213.475 -125.407 212.335C-116.739 194.107 -106.648 176.571 -95.1397 160.062C-92.2726 155.929 -89.3068 151.867 -86.2492 147.879C-84.7206 145.886 -83.1688 143.91 -81.5948 141.954C-73.7249 132.174 -65.299 122.87 -56.4151 114.103C-49.3043 107.089 -41.8063 100.5 -34.0925 94.2575C-32.141 92.7208 -30.2367 91.1397 -28.2522 89.653L-22.302 85.2123C-21.3057 84.4815 -20.2944 83.77 -19.2799 83.0638C-18.2659 82.3576 -17.2488 81.6568 -16.2409 80.9475C-15.8345 80.6675 -15.4312 80.3841 -15.0275 80.1011C-14.8006 79.942 -14.5705 79.7872 -14.3427 79.6291C-13.9632 79.3663 -13.5836 79.102 -13.1977 78.8476L-10.0985 76.8311L-9.4461 76.4075L-7.00325 74.8211L-5.45741 73.8182L-4.02958 72.9523L-3.88033 72.8619L2.42281 69.058C2.86043 68.8007 3.30121 68.5484 3.74196 68.297C5.4297 67.3339 7.13444 66.4015 8.82179 65.449L12.0239 63.6682L15.2792 61.987C21.4342 58.7229 27.7269 55.7728 34.0721 53.0098C36.6134 51.9032 39.1622 50.8237 41.7152 49.7707L46.3832 47.9358L48.4524 47.1225C49.0098 46.8956 49.5729 46.6823 50.1387 46.4758C50.7044 46.2693 51.2727 46.0696 51.8406 45.8689L55.2423 44.6617C58.0588 43.6187 60.9118 42.6851 63.7677 41.777C64.3387 41.5951 64.9101 41.4146 65.481 41.2346C66.6234 40.8741 67.7647 40.515 68.9038 40.1515L69.8617 39.8505L70.6141 39.6138L72.3411 39.1278L74.5686 38.5017L75.791 38.1582L79.0497 37.2439L79.2352 37.1916C80.3814 36.8667 81.5267 36.5426 82.6881 36.2723C84.2376 35.9014 85.7815 35.5161 87.3243 35.1331C88.0888 34.9432 88.8532 34.7538 89.6179 34.5673C91.1518 34.1931 92.688 33.8327 94.2295 33.4975C95.0065 33.3282 95.7848 33.1637 96.5655 33.0108C98.3522 32.6275 100.14 32.2619 101.929 31.9055C103.622 31.5683 105.316 31.2389 107.01 30.9257C108.173 30.7108 109.334 30.5016 110.497 30.2982C113.524 29.768 116.552 29.2795 119.583 28.823C120.492 28.686 121.402 28.5523 122.312 28.422C123.76 28.2142 125.208 28.015 126.657 27.8239C131.75 27.1519 136.846 26.577 141.94 26.1016C143.106 25.993 144.271 25.8891 145.437 25.7905C147.767 25.5928 150.097 25.4157 152.427 25.2571L151.874 21.6384C132.843 21.3715 113.548 22.3896 94.1195 24.9915C89.2416 25.5594 84.4183 26.4629 79.5299 27.244C78.3052 27.4322 77.0952 27.6754 75.8827 27.9189L72.2378 28.645L68.5818 29.3769L66.7498 29.7456L64.9316 30.1664C60.0863 31.3115 55.1843 32.4 50.3528 33.7832L46.7068 34.7779C45.4886 35.1087 44.2677 35.4375 43.067 35.8235L35.8077 38.0709C26.1661 41.2316 16.5008 44.7254 7.04024 48.8959L3.46791 50.4293L-0.0577633 52.0687C-2.40358 53.1778 -4.78072 54.2562 -7.11784 55.4135L-14.1022 58.9797L-15.8521 59.8807L-17.5728 60.8296L-21.0203 62.7378L-24.4759 64.6585C-25.6244 65.307 -26.743 65.9987 -27.8799 66.6697C-30.1374 68.0327 -32.4348 69.3641 -34.6746 70.7785L-41.3733 75.0908C-43.6091 76.5392 -45.767 78.0867 -47.9746 79.5946C-56.7108 85.721 -65.2637 92.2697 -73.4441 99.3159C-89.7979 113.403 -105.039 129.159 -118.67 146.266C-132.344 163.355 -144.568 181.694 -155.296 200.908C-166.018 220.135 -175.306 240.197 -183.114 261.054C-187.027 271.491 -190.568 282.124 -193.722 293.11C-195.3 298.608 -196.776 304.187 -198.134 309.992C-198.81 312.909 -199.468 315.845 -200.081 318.954C-200.387 320.518 -200.688 322.089 -200.975 323.791C-201.121 324.599 -201.26 325.55 -201.4 326.438L-201.606 327.95C-201.639 328.171 -201.675 328.558 -201.708 328.858L-201.759 329.339L-201.815 330.257L-160.378 330.944L-160.348 330.375L-160.346 330.376Z" fill="#D2FF00" stroke="#141414" stroke-width="1.55541" stroke-linecap="round" stroke-linejoin="round"/>
<path d="M324.84 114.36C326.289 114.552 327.737 114.751 329.185 114.959" stroke="#141414" stroke-width="1.55541" stroke-linecap="round" stroke-linejoin="round"/>
<path d="M331.913 115.359C334.944 115.815 337.972 116.304 340.999 116.834" stroke="#141414" stroke-width="1.55541" stroke-linecap="round" stroke-linejoin="round"/>
<path d="M344.487 117.461C346.181 117.774 347.875 118.104 349.568 118.441" stroke="#141414" stroke-width="1.55541" stroke-linecap="round" stroke-linejoin="round"/>
<path d="M309.558 112.637C314.653 113.113 319.749 113.688 324.842 114.36C326.29 114.551 327.739 114.75 329.187 114.958C330.097 115.088 331.006 115.222 331.916 115.359C334.946 115.815 337.975 116.304 341.001 116.834C342.164 117.038 343.326 117.247 344.488 117.461C346.183 117.775 347.876 118.104 349.57 118.441C351.358 118.798 353.146 119.163 354.933 119.547C355.714 119.699 356.492 119.864 357.269 120.033C358.811 120.369 360.347 120.729 361.881 121.103C362.645 121.29 363.41 121.479 364.174 121.669C365.717 122.052 367.261 122.437 368.81 122.808C369.972 123.078 371.117 123.402 372.263 123.727L372.449 123.78L375.707 124.694L376.93 125.038L379.158 125.664L380.884 126.15L381.637 126.386L382.595 126.687C383.733 127.051 384.875 127.41 386.018 127.77C386.588 127.951 387.16 128.131 387.731 128.313C390.587 129.221 393.439 130.155 396.256 131.197L399.658 132.405C400.226 132.605 400.794 132.805 401.36 133.012C401.926 133.218 402.489 133.431 403.046 133.658L405.115 134.472L409.783 136.307C412.336 137.36 414.885 138.439 417.426 139.546C423.771 142.309 430.064 145.259 436.219 148.523L439.475 150.204L442.677 151.985C444.364 152.937 446.069 153.869 447.757 154.833C448.197 155.085 448.638 155.337 449.076 155.594L455.379 159.398L455.528 159.488L456.956 160.354L458.502 161.357L460.945 162.943L461.597 163.367L464.696 165.383C465.082 165.638 465.461 165.902 465.841 166.165C466.069 166.323 466.299 166.478 466.526 166.637C466.93 166.92 467.333 167.203 467.739 167.483C468.747 168.193 469.765 168.894 470.778 169.6C471.793 170.306 472.804 171.017 473.801 171.748L479.751 176.189C481.735 177.675 483.64 179.257 485.591 180.793C493.305 187.035 500.803 193.624 507.914 200.639C516.798 209.406 525.223 218.709 533.093 228.49C534.667 230.446 536.219 232.422 537.748 234.415C540.805 238.403 543.771 242.465 546.638 246.598C558.147 263.106 568.238 280.642 576.905 298.871C577.446 300.011 577.983 301.153 578.513 302.298C579.574 304.588 580.613 306.889 581.632 309.199C582.477 311.116 583.303 313.042 584.118 314.972C585.042 317.16 585.946 319.358 586.832 321.563C591.288 332.656 595.264 343.962 598.744 355.46C598.99 356.271 599.23 357.085 599.472 357.899C601.761 365.617 603.832 373.421 605.669 381.349C605.959 382.601 606.243 383.856 606.521 385.114C607.636 390.148 608.655 395.231 609.559 400.432C609.727 401.41 609.891 402.391 610.053 403.376C610.323 405.018 610.584 406.673 610.826 408.364C610.999 409.575 611.166 410.796 611.324 412.057C611.343 412.21 611.363 412.358 611.383 412.513L611.637 414.702L611.757 415.892L611.792 416.295L611.816 416.563L611.844 416.912L611.875 417.481L573.318 418.12C573.196 413.528 572.77 408.659 572.336 404.074C571.894 399.487 571.338 394.911 570.687 390.348C569.387 381.221 567.724 372.144 565.717 363.141C561.719 345.133 556.35 327.416 549.644 310.197C542.93 292.982 534.822 276.28 525.289 260.381C515.794 244.458 506.354 228.727 494.005 214.79C487.827 207.822 481.234 201.208 474.385 194.864C472.65 193.302 470.96 191.691 469.186 190.17L463.859 185.611C462.071 184.105 460.219 182.673 458.402 181.2C457.485 180.474 456.587 179.724 455.654 179.017L452.844 176.91L450.034 174.803L448.629 173.75L447.19 172.74C447.19 172.74 436.805 165.394 434.846 164.103L431.895 162.187L428.882 160.362C420.907 155.402 412.588 150.983 404.162 146.792L397.786 143.752C396.73 143.231 395.648 142.764 394.567 142.294L391.328 140.879C387.036 138.93 382.626 137.248 378.248 135.493L376.603 134.842L374.938 134.241L371.608 133.039L368.278 131.836C367.169 131.432 366.06 131.028 364.932 130.677C360.43 129.244 355.974 127.675 351.411 126.423C333.272 121.09 317.269 118.188 298.52 115.415C298.519 115.415 298.518 115.415 298.516 115.414L299.069 111.795C301.399 111.953 303.729 112.131 306.06 112.328C307.225 112.427 308.39 112.531 309.556 112.639L309.558 112.637Z" fill="#D2FF00" stroke="#141414" stroke-width="1.55541" stroke-linecap="round" stroke-linejoin="round"/>
<path d="M364.931 130.675C366.059 131.026 367.168 131.43 368.277 131.834L371.607 133.037L374.937 134.239L376.602 134.84L378.247 135.491C382.625 137.246 387.035 138.929 391.327 140.877L394.566 142.292C395.647 142.762 396.729 143.229 397.785 143.75L404.161 146.79C412.587 150.981 420.905 155.4 428.881 160.36L431.894 162.185L434.845 164.101C436.803 165.392 447.189 172.738 447.189 172.738L448.628 173.748L450.033 174.801L452.843 176.908L455.653 179.015C456.585 179.723 457.483 180.472 458.401 181.198C460.217 182.67 462.07 184.103 463.857 185.609L469.184 190.168C470.958 191.689 472.648 193.3 474.384 194.862C481.233 201.206 487.825 207.82 494.004 214.789C506.353 228.725 515.793 244.457 525.288 260.379C534.821 276.278 542.929 292.98 549.643 310.195C556.349 327.414 561.719 345.13 565.716 363.139C567.723 372.142 569.386 381.219 570.686 390.346C571.337 394.909 571.893 399.486 572.335 404.072C572.769 408.657 573.194 413.526 573.317 418.118L573.307 418.118L570.437 418.153L532.363 418.624L532.374 418.623C532.38 418.666 532.407 416.558 532.407 416.558C532.463 415.682 532.639 409.924 532.653 407.939C532.674 403.956 532.584 399.875 532.406 395.774C532.052 387.566 531.357 379.258 530.339 370.963C528.319 354.359 525.015 337.794 520.458 321.557C511.328 289.091 496.967 257.885 476.738 230.162C471.702 223.217 466.241 216.557 460.493 210.09C459.033 208.498 457.616 206.851 456.114 205.29L451.595 200.597C450.075 199.042 448.488 197.555 446.934 196.024C446.148 195.268 445.38 194.489 444.578 193.75L442.156 191.544L439.729 189.332L438.515 188.224L437.265 187.157L432.25 182.882C430.559 181.475 428.815 180.133 427.094 178.749L424.499 176.688L421.836 174.712C414.789 169.343 407.338 164.447 399.715 159.727C369.099 140.983 334.283 127.746 297.971 119.089L297.793 120.217L298.516 115.413C298.516 115.413 298.519 115.413 298.52 115.413C317.268 118.187 333.272 121.088 351.411 126.422C355.973 127.673 360.43 129.243 364.932 130.675L364.931 130.675Z" fill="#DCB8FF" stroke="#141414" stroke-width="1.55541" stroke-linecap="round" stroke-linejoin="round"/>
<path d="M399.715 159.727C407.338 164.447 414.789 169.343 421.836 174.712L424.499 176.687L427.094 178.749C428.814 180.133 430.559 181.475 432.25 182.882L437.265 187.157L438.515 188.224L439.73 189.332L442.156 191.544L444.578 193.749C445.38 194.489 446.148 195.268 446.934 196.024C448.488 197.555 450.075 199.042 451.596 200.597L456.114 205.29C457.616 206.851 459.033 208.498 460.493 210.09C466.241 216.557 471.702 223.218 476.739 230.162C496.967 257.885 511.328 289.091 520.458 321.557C525.016 337.794 528.319 354.359 530.339 370.962C531.357 379.258 532.052 387.566 532.406 395.774C532.585 399.875 532.674 403.955 532.654 407.939C532.639 409.924 532.463 415.682 532.407 416.558C532.407 416.558 532.381 418.666 532.374 418.623C532.374 418.623 532.366 418.624 532.364 418.624C531.927 418.629 490.454 419.156 490.533 418.815C490.704 418.213 490.858 417.481 491.009 416.744C491.311 415.25 491.566 413.589 491.812 411.913C492.295 408.533 492.671 404.948 492.964 401.311C493.551 394.022 493.816 386.483 493.776 378.895C493.712 363.699 492.439 348.289 489.982 333.038C485.036 302.528 475.213 272.585 459.361 244.981C455.414 238.066 451.028 231.364 446.323 224.779C445.123 223.158 443.965 221.476 442.719 219.877L438.963 215.054C437.694 213.451 436.357 211.912 435.049 210.323C434.387 209.539 433.741 208.731 433.061 207.96L431.002 205.659L428.935 203.344L427.898 202.182L426.825 201.059L422.504 196.545C421.041 195.054 419.521 193.623 418.022 192.147L415.757 189.944L413.417 187.82C407.226 182.048 400.568 176.681 393.674 171.438C365.984 150.595 332.911 134.423 297.399 122.71L297.792 120.217L297.969 119.089C334.282 127.746 369.097 140.982 399.714 159.726L399.715 159.727Z" fill="#ECEDE7" stroke="#141414" stroke-width="1.55541" stroke-linecap="round" stroke-linejoin="round"/>
<path d="M611.842 416.909L611.813 416.56L611.79 416.293L611.755 415.889L611.635 414.7L611.38 412.51C611.361 412.355 611.34 412.208 611.321 412.055C611.163 410.793 610.997 409.573 610.824 408.362C610.581 406.67 610.321 405.015 610.051 403.373C609.888 402.388 609.724 401.407 609.556 400.429C608.653 395.228 607.634 390.146 606.519 385.111C606.241 383.853 605.956 382.598 605.666 381.346C603.83 373.419 601.759 365.614 599.469 357.896C599.228 357.082 598.988 356.269 598.742 355.457C595.262 343.959 591.286 332.653 586.83 321.561C585.944 319.355 585.04 317.158 584.116 314.97C583.3 313.039 582.474 311.113 581.629 309.196C580.611 306.886 579.571 304.586 578.51 302.296C577.98 301.151 577.444 300.008 576.903 298.868C568.236 280.64 558.144 263.104 546.636 246.595C543.769 242.462 540.803 238.401 537.745 234.413C536.217 232.419 534.665 230.444 533.091 228.488C525.221 218.707 516.795 209.403 507.911 200.636C500.8 193.622 493.302 187.033 485.589 180.791C483.637 179.254 481.733 177.673 479.748 176.186L473.798 171.746C472.802 171.015 471.791 170.303 470.776 169.597C469.762 168.891 468.745 168.19 467.737 167.481C467.331 167.201 466.927 166.917 466.524 166.634C466.297 166.475 466.067 166.32 465.839 166.162C465.459 165.899 465.08 165.635 464.694 165.381L461.595 163.364L460.942 162.941L458.499 161.354L456.953 160.351L455.526 159.485L455.376 159.395L449.073 155.591C448.636 155.334 448.195 155.082 447.754 154.83C446.066 153.867 444.362 152.935 442.674 151.982L439.472 150.201L436.217 148.52C430.062 145.256 423.769 142.306 417.424 139.543C414.883 138.436 412.334 137.357 409.781 136.304L405.113 134.469L403.044 133.656C402.486 133.429 401.923 133.215 401.357 133.009C400.792 132.802 400.223 132.603 399.656 132.402L396.254 131.195C393.437 130.152 390.584 129.218 387.728 128.31C387.157 128.128 386.586 127.948 386.015 127.768C384.873 127.407 383.731 127.048 382.592 126.685L381.634 126.384L380.882 126.147L379.155 125.661L376.928 125.035L375.705 124.691L372.446 123.777L372.261 123.725C371.115 123.4 369.969 123.076 368.808 122.805C367.258 122.435 365.715 122.049 364.172 121.666C363.407 121.476 362.643 121.287 361.878 121.101C360.344 120.726 358.808 120.366 357.267 120.031C356.49 119.861 355.711 119.697 354.931 119.544C353.144 119.161 351.356 118.795 349.567 118.439C347.874 118.102 346.18 117.772 344.486 117.459C343.324 117.244 342.162 117.035 340.999 116.831C337.972 116.301 334.944 115.813 331.913 115.356C331.004 115.219 330.094 115.086 329.184 114.955C327.736 114.747 326.288 114.548 324.839 114.357C319.746 113.685 314.65 113.11 309.556 112.635C308.39 112.526 307.225 112.422 306.059 112.324C303.729 112.126 301.399 111.949 299.069 111.79L299.622 108.172C318.653 107.905 337.948 108.923 357.377 111.525C362.255 112.093 367.078 112.996 371.966 113.777C373.191 113.965 374.401 114.209 375.613 114.452L379.258 115.178L382.914 115.91L384.746 116.279L386.564 116.7C391.41 117.845 396.312 118.933 401.143 120.316L404.789 121.311C406.007 121.642 407.228 121.971 408.429 122.357L415.688 124.604C425.33 127.765 434.995 131.259 444.456 135.429L448.028 136.962L451.554 138.602C453.9 139.711 456.277 140.789 458.614 141.947L465.598 145.513L467.348 146.414L469.069 147.363L472.516 149.271L475.972 151.192C477.12 151.84 478.239 152.532 479.376 153.203C481.633 154.566 483.931 155.897 486.171 157.312L492.869 161.624C495.105 163.072 497.263 164.62 499.471 166.128C508.207 172.254 516.76 178.803 524.94 185.849C541.294 199.936 556.535 215.692 570.166 232.799C583.84 249.888 596.064 268.227 606.792 287.441C617.514 306.668 626.802 326.73 634.61 347.588C638.523 358.025 642.065 368.658 645.218 379.643C646.796 385.141 648.273 390.72 649.631 396.525C650.307 399.442 650.964 402.378 651.577 405.487C651.883 407.051 652.184 408.622 652.471 410.324C652.617 411.133 652.756 412.083 652.896 412.971L653.102 414.483C653.135 414.704 653.171 415.092 653.204 415.391L653.255 415.872L653.311 416.79L611.874 417.477L611.844 416.908L611.842 416.909Z" fill="#F56423" stroke="#141414" stroke-width="1.55541" stroke-linecap="round" stroke-linejoin="round"/>
<path d="M338.786 34.3115H47.1475C46.7446 34.3115 46.418 34.6377 46.418 35.0401V250.4C46.418 250.802 46.7446 251.128 47.1475 251.128H338.786C339.189 251.128 339.515 250.802 339.515 250.4V35.0401C339.515 34.6377 339.189 34.3115 338.786 34.3115Z" fill="#DCB8FF"/>
<path d="M338.781 35.0412V250.401H47.1426V35.0412H338.781ZM338.781 33.584H47.1426C46.3372 33.584 45.6836 34.2368 45.6836 35.0412V250.401C45.6836 251.205 46.3372 251.858 47.1426 251.858H338.781C339.586 251.858 340.24 251.205 340.24 250.401V35.0412C340.24 34.2368 339.586 33.584 338.781 33.584Z" fill="#252525"/>
<path d="M69.0083 233.772C64.252 233.772 60.3828 229.902 60.3828 225.143V55.333C60.3828 50.5738 64.252 46.7021 69.0083 46.7021H316.931C321.688 46.7021 325.557 50.5738 325.557 55.333V225.143C325.557 229.902 321.688 233.772 316.931 233.772H69.0083Z" fill="#212121"/>
<path d="M316.926 47.4318C321.286 47.4318 324.822 50.964 324.822 55.334V225.142C324.822 229.511 321.286 233.045 316.926 233.045H69.0034C64.644 233.045 61.1074 229.513 61.1074 225.142V55.334C61.1074 50.9654 64.644 47.4318 69.0034 47.4318H316.926ZM316.926 45.9746H69.0034C63.8444 45.9746 59.6484 50.1727 59.6484 55.334V225.142C59.6484 230.302 63.8444 234.502 69.0034 234.502H316.926C322.085 234.502 326.281 230.304 326.281 225.142V55.334C326.281 50.1727 322.085 45.9746 316.926 45.9746Z" fill="#252525"/>
<g style="mix-blend-mode:multiply" opacity="0.5">
<path d="M324.822 55.3348V225.143C324.822 229.512 321.285 233.046 316.926 233.046H105.426C196.438 193.32 236.088 114.659 253.138 47.4326H316.926C321.285 47.4326 324.822 50.9648 324.822 55.3348Z" fill="#DCB8FF"/>
</g>
<path d="M-4.32227 289.858C-4.62574 289.858 -4.89711 289.671 -5.00361 289.388C-5.11012 289.106 -5.03279 288.785 -4.80665 288.584L46.431 243.141C46.5637 243.023 46.7359 242.957 46.9154 242.957H339.019C339.197 242.957 339.369 243.023 339.503 243.141L390.741 288.584C390.967 288.785 391.046 289.104 390.939 289.388C390.831 289.671 390.56 289.858 390.257 289.858H-4.32227Z" fill="#FF5B23"/>
<path d="M339.017 243.688L345.408 249.358L390.256 289.13H-4.32462L40.5227 249.358L46.9145 243.688H339.018M339.018 242.23H46.913C46.5556 242.23 46.2113 242.362 45.9443 242.598L39.5525 248.268L-5.29484 288.04C-5.74858 288.442 -5.90469 289.081 -5.69022 289.647C-5.47575 290.212 -4.93155 290.587 -4.32608 290.587H390.254C390.86 290.587 391.403 290.212 391.618 289.647C391.833 289.081 391.677 288.442 391.223 288.04L346.376 248.268L339.984 242.598C339.717 242.36 339.373 242.23 339.015 242.23H339.018Z" fill="#252525"/>
<path d="M166.507 285.58C166.253 285.58 166.019 285.449 165.886 285.233C165.753 285.019 165.741 284.748 165.855 284.524L186.72 243.357C186.844 243.112 187.096 242.958 187.371 242.958H198.539C198.813 242.958 199.066 243.112 199.19 243.357L220.055 284.524C220.168 284.748 220.157 285.019 220.024 285.233C219.891 285.449 219.656 285.58 219.402 285.58H166.504H166.507Z" fill="#D2FF00"/>
<path d="M198.543 243.688L219.408 284.854H166.51L187.374 243.688H198.543ZM198.543 242.23H187.374C186.824 242.23 186.321 242.539 186.073 243.029L165.208 284.196C164.979 284.647 165.001 285.185 165.267 285.616C165.532 286.048 166.002 286.31 166.51 286.31H219.408C219.914 286.31 220.385 286.048 220.651 285.616C220.916 285.185 220.938 284.647 220.709 284.196L199.844 243.029C199.596 242.539 199.093 242.23 198.543 242.23Z" fill="#252525"/>
<g style="mix-blend-mode:multiply" opacity="0.5">
<path d="M345.403 249.359H40.5156L46.9074 243.689H339.011L345.403 249.359Z" fill="#AD2A78"/>
</g>
<g style="mix-blend-mode:multiply" opacity="0.3">
<path d="M390.253 289.131H249.414L207.965 243.689H339.016L390.253 289.131Z" fill="#AD2A78"/>
</g>
<path d="M49.9392 39.8736C49.7671 39.8736 49.6008 39.8124 49.4695 39.7017L26.123 20.0561C25.9581 19.9177 25.8633 19.7137 25.8633 19.4994V15.4864C25.8633 15.0842 26.1901 14.7578 26.5928 14.7578H359.339C359.742 14.7578 360.069 15.0842 360.069 15.4864V19.4994C360.069 19.7137 359.974 19.9191 359.809 20.0561L336.462 39.7017C336.331 39.8124 336.165 39.8736 335.993 39.8736H49.9392Z" fill="#FF5B23"/>
<path d="M359.336 15.4855V19.4985L335.989 39.1441H49.9358L26.5893 19.4985V15.4855H359.336ZM359.336 14.0283H26.5879C25.7825 14.0283 25.1289 14.6811 25.1289 15.4855V19.4985C25.1289 19.9284 25.3186 20.3364 25.6483 20.6133L48.9948 40.2589C49.2574 40.4803 49.5915 40.6013 49.9343 40.6013H335.988C336.332 40.6013 336.665 40.4803 336.927 40.2589L360.274 20.6133C360.603 20.3364 360.793 19.9284 360.793 19.4985V15.4855C360.793 14.6811 360.14 14.0283 359.334 14.0283H359.336Z" fill="#252525"/>
<g style="mix-blend-mode:multiply" opacity="0.3">
<path d="M359.335 15.4854V19.4984L335.989 39.144H255.137C256.998 31.0246 258.549 23.1078 259.821 15.4854H359.335Z" fill="#AD2A78"/>
</g>
<path d="M23.6709 20.7119C23.2682 20.7119 22.9414 20.3855 22.9414 19.9834V-52.9917C22.9414 -53.1753 23.01 -53.3517 23.1354 -53.4872L31.0664 -62.0393C31.2006 -62.185 31.3889 -62.2681 31.5873 -62.2725H31.6019C31.7944 -62.2725 31.9812 -62.1952 32.1183 -62.0597L59.9497 -34.2627H325.98L353.811 -62.0583C353.949 -62.1952 354.134 -62.271 354.328 -62.271H354.343C354.541 -62.2666 354.729 -62.1821 354.863 -62.0379L362.793 -53.4857C362.917 -53.3502 362.987 -53.1739 362.987 -52.9903V19.9848C362.987 20.387 362.66 20.7134 362.257 20.7134L23.6709 20.7119Z" fill="#DCB8FF"/>
<path d="M354.325 -61.5428L362.255 -52.9907V19.9844H23.6685V-52.9907L31.598 -61.5428L59.6438 -33.5316H326.278L354.325 -61.5428ZM354.324 -63C353.937 -63 353.567 -62.847 353.293 -62.573L325.674 -34.9888H60.2492L32.6309 -62.573C32.3566 -62.847 31.9861 -63 31.5994 -63C31.5907 -63 31.5805 -63 31.5717 -63C31.1749 -62.9927 30.7984 -62.8237 30.5285 -62.5337L22.599 -53.9816C22.3495 -53.712 22.2109 -53.3579 22.2109 -52.9922V19.983C22.2109 20.7873 22.8646 21.4401 23.6699 21.4401H362.256C363.062 21.4401 363.715 20.7873 363.715 19.983V-52.9907C363.715 -53.3579 363.577 -53.712 363.327 -53.9801L355.398 -62.5322C355.128 -62.8222 354.751 -62.9913 354.355 -62.9985C354.346 -62.9985 354.336 -62.9985 354.327 -62.9985L354.324 -63Z" fill="#252525"/>
<path d="M-22.5393 296.939C-22.8428 296.939 -23.1156 296.751 -23.2221 296.468C-23.3301 296.184 -23.2498 295.864 -23.0208 295.663L39.3094 240.925V41.4271L18.5658 20.709C18.4286 20.5721 18.3527 20.387 18.3527 20.1932V-61.5439C18.3527 -61.9461 18.6796 -62.2725 19.0822 -62.2725H31.6017C32.0043 -62.2725 32.3312 -61.9461 32.3312 -61.5439V19.8916L53.0748 40.6096C53.212 40.7466 53.2878 40.9317 53.2878 41.1255V241.255C53.2878 241.465 53.1974 241.663 53.0398 241.803L4.83684 284.125H381.09L332.887 241.803C332.729 241.663 332.639 241.465 332.639 241.255V41.1255C332.639 40.9317 332.716 40.7466 332.852 40.6096L353.595 19.8916V-61.5439C353.595 -61.9461 353.922 -62.2725 354.325 -62.2725H366.844C367.247 -62.2725 367.574 -61.9461 367.574 -61.5439V20.1932C367.574 20.387 367.496 20.5721 367.361 20.709L346.617 41.4271V240.925L408.947 295.663C409.175 295.864 409.255 296.183 409.149 296.468C409.042 296.751 408.769 296.939 408.466 296.939H-22.5393Z" fill="#D2FF00"/>
<path d="M366.842 -61.5428V20.1943L345.884 41.1265V241.256L408.462 296.212H-22.5416L40.0366 241.256V41.1265L19.0785 20.1943V-61.5428H31.5979V20.1943L52.556 41.1265V241.256L2.89993 284.854H383.022L333.366 241.256V41.1265L354.324 20.1943V-61.5428H366.843M366.843 -63H354.324C353.519 -63 352.865 -62.3472 352.865 -61.5428V19.591L332.334 40.0963C332.06 40.3702 331.907 40.7404 331.907 41.1265V241.256C331.907 241.675 332.088 242.073 332.403 242.35L379.153 283.397H6.76767L53.5175 242.35C53.8326 242.073 54.0135 241.675 54.0135 241.256V41.1265C54.0135 40.7404 53.8604 40.3688 53.5861 40.0963L33.0554 19.591V-61.5428C33.0554 -62.3472 32.4018 -63 31.5964 -63H19.077C18.2717 -63 17.618 -62.3472 17.618 -61.5428V20.1943C17.618 20.5804 17.7712 20.952 18.0455 21.2245L38.5762 41.7298V240.597L-23.5045 295.117C-23.9612 295.518 -24.1202 296.158 -23.9058 296.726C-23.6913 297.293 -23.1471 297.669 -22.5402 297.669H408.463C409.07 297.669 409.615 297.293 409.829 296.726C410.044 296.159 409.883 295.518 409.428 295.117L347.346 240.597V41.7298L367.876 21.2245C368.151 20.9505 368.304 20.5804 368.304 20.1943V-61.5428C368.304 -62.3472 367.649 -63 366.843 -63Z" fill="#252525"/>
<path d="M394.637 334.931H-8.69239C-9.09527 334.931 -9.42188 335.257 -9.42188 335.659V510.441C-9.42188 510.843 -9.09527 511.17 -8.69239 511.17H394.637C395.04 511.17 395.367 510.843 395.367 510.441V335.659C395.367 335.257 395.04 334.931 394.637 334.931Z" fill="#D2FF00"/>
<path d="M394.633 335.66V510.442H-8.69728V335.66H394.633ZM394.633 334.203H-8.69728C-9.50263 334.203 -10.1562 334.856 -10.1562 335.66V510.442C-10.1562 511.246 -9.50263 511.899 -8.69728 511.899H394.633C395.438 511.899 396.092 511.246 396.092 510.442V335.66C396.092 334.856 395.438 334.203 394.633 334.203Z" fill="#252525"/>
<g style="mix-blend-mode:multiply" opacity="0.5">
<path d="M394.627 335.659H-8.70312V355.754H394.627V335.659Z" fill="#F99300"/>
</g>
<path d="M383.771 334.931H2.15917C1.75629 334.931 1.42969 335.257 1.42969 335.659V510.441C1.42969 510.843 1.75629 511.17 2.15917 511.17H383.771C384.174 511.17 384.5 510.843 384.5 510.441V335.659C384.5 335.257 384.174 334.931 383.771 334.931Z" fill="#212121"/>
<path d="M383.766 335.66V510.442H2.15428V335.66H383.766ZM383.766 334.203H2.15428C1.34893 334.203 0.695312 334.856 0.695312 335.66V510.442C0.695312 511.246 1.34893 511.899 2.15428 511.899H383.766C384.571 511.899 385.225 511.246 385.225 510.442V335.66C385.225 334.856 384.571 334.203 383.766 334.203Z" fill="#252525"/>
<g style="mix-blend-mode:multiply" opacity="0.5">
<path d="M383.768 335.659H2.15625V355.754H383.768V335.659Z" fill="#DCB8FF"/>
</g>
<g style="mix-blend-mode:multiply" opacity="0.5">
<path d="M383.773 335.659V510.441H202.43C240.249 438.722 243.832 369.667 242.732 335.659H383.773Z" fill="#DCB8FF"/>
</g>
<path d="M-11.445 346.967C-11.8477 346.967 -12.1745 346.641 -12.1745 346.239V332.859L-23.0526 322.01C-23.1898 321.873 -23.2656 321.688 -23.2656 321.494V296.208C-23.2656 295.806 -22.9388 295.479 -22.5361 295.479H408.469C408.872 295.479 409.198 295.806 409.198 296.208V321.494C409.198 321.688 409.121 321.873 408.985 322.01L398.107 332.859V346.239C398.107 346.641 397.781 346.967 397.378 346.967H-11.445Z" fill="#D2FF00"/>
<path d="M408.463 296.21V321.495L397.371 332.558V346.239H-11.4499V332.558L-22.541 321.495V296.21H408.463ZM408.463 294.753H-22.541C-23.3464 294.753 -24 295.406 -24 296.21V321.495C-24 321.881 -23.8453 322.253 -23.5725 322.527L-12.9089 333.163V346.239C-12.9089 347.044 -12.2553 347.696 -11.4499 347.696H397.371C398.177 347.696 398.83 347.044 398.83 346.239V333.163L409.494 322.527C409.768 322.253 409.922 321.883 409.922 321.495V296.21C409.922 295.406 409.268 294.753 408.463 294.753Z" fill="#252525"/>
<g style="mix-blend-mode:multiply" opacity="0.5">
<path d="M408.462 309.736V321.496L397.371 332.559V346.24H242.896C242.912 325.959 241.051 313.749 241.051 313.749L408.463 309.736H408.462Z" fill="#F99300"/>
</g>
<path d="M408.469 295.48H-22.5361C-22.939 295.48 -23.2656 295.807 -23.2656 296.209V321.495C-23.2656 321.898 -22.939 322.224 -22.5361 322.224H408.469C408.872 322.224 409.198 321.898 409.198 321.495V296.209C409.198 295.807 408.872 295.48 408.469 295.48Z" fill="#FF5B23"/>
<path d="M408.463 296.21V321.495H-22.541V296.21H408.463ZM408.463 294.753H-22.541C-23.3464 294.753 -24 295.406 -24 296.21V321.495C-24 322.299 -23.3464 322.952 -22.541 322.952H408.463C409.268 322.952 409.922 322.299 409.922 321.495V296.21C409.922 295.406 409.268 294.753 408.463 294.753Z" fill="#252525"/>
<g style="mix-blend-mode:multiply" opacity="0.3">
<path d="M408.463 296.212H255.137V321.497H408.463V296.212Z" fill="#AD2A78"/>
</g>
<path d="M40.667 16.2145C40.2643 16.2145 39.9375 15.8881 39.9375 15.4859V-45.7589C39.9375 -51.7567 44.8236 -56.6367 50.8273 -56.6367H335.112C341.117 -56.6367 346.004 -51.7567 346.004 -45.7589V15.4859C346.004 15.8881 345.677 16.2145 345.274 16.2145H40.667Z" fill="#FF5B23"/>
<path d="M335.11 -55.909C340.725 -55.909 345.27 -51.3539 345.27 -45.7613V15.485H40.6645V-45.7613C40.6645 -51.3539 45.2092 -55.909 50.8248 -55.909H335.11ZM335.11 -57.3662H50.8263C44.4185 -57.3662 39.207 -52.1597 39.207 -45.7613V15.485C39.207 16.2894 39.8607 16.9422 40.666 16.9422H345.273C346.078 16.9422 346.732 16.2894 346.732 15.485V-45.7613C346.732 -52.1612 341.519 -57.3662 335.113 -57.3662H335.11Z" fill="#252525"/>
<path d="M345.269 -2.87793H83.7881C83.3852 -2.87793 83.0586 -2.55173 83.0586 -2.14934V5.08551C83.0586 5.4879 83.3852 5.81409 83.7881 5.81409H345.269C345.672 5.81409 345.999 5.4879 345.999 5.08551V-2.14934C345.999 -2.55173 345.672 -2.87793 345.269 -2.87793Z" fill="#212121"/>
<path d="M345.264 -2.1483V5.08801H83.7832V-2.1483H345.264ZM345.264 -3.60547H83.7832C82.9778 -3.60547 82.3242 -2.95266 82.3242 -2.1483V5.08801C82.3242 5.89237 82.9778 6.54518 83.7832 6.54518H345.264C346.07 6.54518 346.723 5.89237 346.723 5.08801V-2.1483C346.723 -2.95266 346.07 -3.60547 345.264 -3.60547Z" fill="#252525"/>
<path d="M83.277 16.2121C82.9823 16.2121 82.7153 16.0343 82.603 15.7618C82.4892 15.4893 82.5519 15.176 82.7605 14.9676L137.63 -39.8322C137.767 -39.9691 137.952 -40.0449 138.146 -40.0449C138.34 -40.0449 138.525 -39.9677 138.663 -39.8322L174.075 -4.44916L195.555 -25.9045C195.692 -26.0415 195.878 -26.1173 196.072 -26.1173C196.266 -26.1173 196.451 -26.0401 196.588 -25.9045L237.495 14.9676C237.705 15.176 237.766 15.4893 237.652 15.7618C237.538 16.0343 237.273 16.2121 236.978 16.2121H83.277Z" fill="#212121"/>
<path d="M138.141 -39.3172L174.068 -3.41838L174.797 -4.14697L196.065 -25.3881L236.972 15.484H83.2718L130.135 -31.3217L138.139 -39.3172M138.139 -40.7744C137.753 -40.7744 137.381 -40.6214 137.108 -40.3475L129.104 -32.352L82.2403 14.4538C81.823 14.8706 81.6975 15.4971 81.9237 16.0421C82.1498 16.5871 82.6809 16.9412 83.2718 16.9412H236.972C237.561 16.9412 238.093 16.5857 238.32 16.0421C238.546 15.4971 238.42 14.8706 238.003 14.4538L197.096 -26.4184C196.822 -26.6923 196.451 -26.8453 196.065 -26.8453C195.678 -26.8453 195.306 -26.6923 195.033 -26.4184L174.068 -5.47882L139.172 -40.346C138.898 -40.62 138.527 -40.773 138.141 -40.773L138.139 -40.7744Z" fill="#252525"/>
<g style="mix-blend-mode:multiply" opacity="0.5">
<path d="M183.008 15.4844H177.004L130.141 -31.3214L138.145 -39.3154L174.073 -3.41803L174.801 -4.14516L183.008 15.4844Z" fill="#DCB8FF"/>
</g>
<g style="mix-blend-mode:multiply" opacity="0.3">
<path d="M345.267 -45.7624V15.4839H259.824C264.944 -15.0686 265.718 -40.8663 265.58 -55.9102H335.107C340.723 -55.9102 345.267 -51.355 345.267 -45.7624Z" fill="#AD2A78"/>
</g>
<g style="mix-blend-mode:multiply" opacity="0.5">
<path d="M31.6015 20.1952L52.5581 41.1274V240.684H40.0402V41.1274L19.082 20.1952V19.9795H31.6015V20.1952Z" fill="#F99300"/>
</g>
<g style="mix-blend-mode:multiply" opacity="0.5">
<path d="M366.847 19.9795V20.1952L345.889 41.1274V240.684H333.371V41.1274L354.328 20.1952V19.9795H366.847Z" fill="#F99300"/>
</g>
<path d="M40.667 16.213C40.2643 16.213 39.9375 15.8866 39.9375 15.4844V-1.48143C39.9375 -1.67523 40.0148 -1.86029 40.1505 -1.99727L87.4183 -49.2052C87.5613 -49.348 87.748 -49.418 87.9348 -49.418C88.1215 -49.418 88.3083 -49.3466 88.4512 -49.2052L137.902 0.18412L165.308 -27.1888C165.451 -27.3316 165.638 -27.4016 165.825 -27.4016C166.012 -27.4016 166.198 -27.3302 166.341 -27.1888L208.552 14.9686C208.761 15.1769 208.824 15.4902 208.71 15.7627C208.596 16.0352 208.331 16.213 208.036 16.213H40.667Z" fill="#D2FF00"/>
<path d="M87.9299 -48.6888L137.897 1.21635L165.82 -26.6724L208.03 15.485H40.6621V-1.48087L67.5758 -28.3628L87.9284 -48.6903M87.9284 -50.1475C87.5549 -50.1475 87.1814 -50.0047 86.8969 -49.7205L66.5443 -29.393L39.6306 -2.51109C39.3563 -2.23714 39.2031 -1.86703 39.2031 -1.48087V15.485C39.2031 16.2893 39.8567 16.9421 40.6621 16.9421H208.028C208.617 16.9421 209.15 16.5866 209.376 16.0431C209.602 15.4995 209.477 14.8715 209.06 14.4547L166.85 -27.7027C166.576 -27.9766 166.205 -28.1296 165.819 -28.1296C165.432 -28.1296 165.06 -27.9766 164.787 -27.7027L137.897 -0.844091L88.9614 -49.7191C88.6769 -50.0032 88.3034 -50.146 87.9299 -50.146L87.9284 -50.1475Z" fill="#252525"/>
<g style="mix-blend-mode:multiply" opacity="0.5">
<path d="M137.896 1.21526L123.61 15.4853H111.479L67.5781 -28.3609L87.9308 -48.6885L137.896 1.21526Z" fill="#F99300"/>
</g>
<g style="mix-blend-mode:multiply" opacity="0.5">
<path d="M208.025 15.4846H181.654L152.629 -13.5044L165.815 -26.6729L208.025 15.4846Z" fill="#F99300"/>
</g>
<g style="mix-blend-mode:multiply" opacity="0.5">
<path d="M236.973 15.4845H221.459L188.309 -17.6399L196.066 -25.3877L236.973 15.4845Z" fill="#DCB8FF"/>
</g>
<path d="M13.406 302.222H6.4248C6.02191 302.222 5.69531 302.548 5.69531 302.95V314.571C5.69531 314.974 6.02191 315.3 6.4248 315.3H13.406C13.8089 315.3 14.1355 314.974 14.1355 314.571V302.95C14.1355 302.548 13.8089 302.222 13.406 302.222Z" fill="#D2FF00"/>
<path d="M13.4011 302.951V314.572H6.41991V302.951H13.4011ZM13.4011 301.494H6.41991C5.61456 301.494 4.96094 302.147 4.96094 302.951V314.572C4.96094 315.377 5.61456 316.029 6.41991 316.029H13.4011C14.2064 316.029 14.8601 315.377 14.8601 314.572V302.951C14.8601 302.147 14.2064 301.494 13.4011 301.494Z" fill="#252525"/>
<path d="M115.493 277.559C113.724 277.559 112.029 277.419 110.453 277.146C104.613 276.175 100.836 273.634 100.836 270.673C100.836 266.817 107.274 263.798 115.493 263.798C116.127 263.798 116.742 263.821 117.338 263.856C124.76 264.269 130.15 267.135 130.15 270.673C130.15 274.534 123.711 277.559 115.493 277.559Z" fill="#D2FF00"/>
<path d="M115.488 264.527C116.106 264.527 116.708 264.55 117.291 264.584C124.131 264.964 129.415 267.542 129.415 270.672C129.415 274.067 123.177 276.83 115.488 276.83C113.756 276.83 112.094 276.691 110.574 276.428C105.307 275.553 101.561 273.308 101.561 270.672C101.561 267.277 107.799 264.526 115.488 264.526M115.488 263.068C106.717 263.068 100.102 266.337 100.102 270.672C100.102 274.06 104.023 276.817 110.335 277.864C111.941 278.144 113.679 278.287 115.488 278.287C124.259 278.287 130.874 275.013 130.874 270.672C130.874 266.672 125.321 263.57 117.371 263.128C116.696 263.089 116.077 263.068 115.488 263.068Z" fill="#252525"/>
<g style="mix-blend-mode:multiply" opacity="0.5">
<path d="M129.419 270.674C129.419 274.069 123.18 276.832 115.491 276.832C113.76 276.832 112.098 276.694 110.578 276.43C106.901 275.232 104.516 273.3 104.516 271.124C104.516 267.809 110.066 265.046 117.295 264.586C124.134 264.966 129.419 267.544 129.419 270.674Z" fill="#F99300"/>
</g>
<path d="M115.494 274.233C109.566 274.233 105.098 272.088 105.098 269.245V265.481C105.098 265.079 105.424 264.752 105.827 264.752H110.85C112.285 264.42 113.889 264.245 115.494 264.245C116.424 264.245 117.346 264.302 118.236 264.413C118.907 264.503 119.539 264.617 120.137 264.751H125.163C125.566 264.751 125.892 265.077 125.892 265.479V269.739C125.892 269.94 125.811 270.125 125.675 270.256C124.922 272.133 122.119 273.577 118.237 274.064C117.334 274.174 116.413 274.23 115.496 274.23L115.494 274.233Z" fill="#DCB8FF"/>
<path d="M115.491 264.974C116.41 264.974 117.312 265.033 118.142 265.136C118.813 265.228 119.449 265.343 120.052 265.481H125.159V269.741L125.07 269.764C124.593 271.479 121.818 272.884 118.142 273.344C117.294 273.448 116.41 273.506 115.491 273.506C110.152 273.506 105.822 271.596 105.822 269.247V265.483H110.93C112.291 265.161 113.847 264.974 115.491 264.974ZM115.491 263.519C113.858 263.519 112.229 263.693 110.764 264.026H105.822C105.017 264.026 104.363 264.678 104.363 265.483V269.247C104.363 272.505 109.147 274.963 115.491 274.963C116.435 274.963 117.386 274.905 118.32 274.791C122.386 274.283 125.365 272.721 126.295 270.659C126.499 270.407 126.618 270.086 126.618 269.742V265.483C126.618 264.678 125.965 264.026 125.159 264.026H120.214C119.623 263.895 118.994 263.784 118.34 263.693C117.404 263.577 116.451 263.519 115.491 263.519Z" fill="#252525"/>
<g style="mix-blend-mode:multiply" opacity="0.5">
<path d="M125.158 265.482V269.741L125.069 269.764C124.592 271.479 121.817 272.884 118.141 273.344V265.138C118.812 265.229 119.448 265.345 120.049 265.483H125.157L125.158 265.482Z" fill="#DCB8FF"/>
</g>
<path d="M115.493 270.473C109.566 270.473 105.098 268.325 105.098 265.477C105.098 262.628 109.566 260.479 115.493 260.479C121.419 260.479 125.888 262.628 125.888 265.477C125.888 268.325 121.419 270.473 115.493 270.473Z" fill="#212121"/>
<path d="M115.488 261.209C120.826 261.209 125.154 263.119 125.154 265.477C125.154 267.835 120.826 269.745 115.488 269.745C110.15 269.745 105.822 267.835 105.822 265.477C105.822 263.119 110.15 261.209 115.488 261.209ZM115.488 259.752C109.96 259.752 104.363 261.719 104.363 265.477C104.363 269.235 109.96 271.202 115.488 271.202C121.016 271.202 126.613 269.235 126.613 265.477C126.613 261.719 121.016 259.752 115.488 259.752Z" fill="#252525"/>
<g style="mix-blend-mode:multiply" opacity="0.3">
<path d="M121.067 262.042C121.071 262.097 121.086 262.15 121.086 262.205C121.086 264.933 116.108 267.145 109.965 267.145C108.639 267.145 107.374 267.037 106.195 266.848C107.491 268.531 111.092 269.743 115.342 269.743C120.68 269.743 125.007 267.833 125.007 265.475C125.007 264.066 123.452 262.819 121.067 262.042Z" fill="#DCB8FF"/>
</g>
<path d="M145.399 265.701C143.632 265.701 141.935 265.562 140.36 265.288C134.519 264.32 130.742 261.779 130.742 258.816C130.742 254.961 137.181 251.941 145.399 251.941C146.032 251.941 146.646 251.965 147.245 252C154.666 252.412 160.056 255.278 160.056 258.816C160.056 262.676 153.617 265.701 145.399 265.701Z" fill="#D2FF00"/>
<path d="M145.394 252.669C146.013 252.669 146.614 252.692 147.197 252.727C154.037 253.108 159.321 255.685 159.321 258.815C159.321 262.211 153.083 264.973 145.394 264.973C143.662 264.973 142.001 264.835 140.48 264.571C135.213 263.697 131.467 261.451 131.467 258.815C131.467 255.42 137.705 252.669 145.394 252.669ZM145.394 251.212C136.623 251.212 130.008 254.48 130.008 258.815C130.008 262.203 133.93 264.96 140.241 266.008C141.847 266.288 143.585 266.431 145.394 266.431C154.165 266.431 160.78 263.156 160.78 258.815C160.78 254.816 155.228 251.713 147.278 251.272C146.602 251.231 145.984 251.212 145.394 251.212Z" fill="#252525"/>
<g style="mix-blend-mode:multiply" opacity="0.5">
<path d="M159.325 258.816C159.325 262.211 153.087 264.974 145.398 264.974C143.666 264.974 142.004 264.835 140.484 264.571C136.807 263.374 134.422 261.44 134.422 259.266C134.422 255.951 139.972 253.188 147.201 252.728C154.041 253.108 159.325 255.686 159.325 258.816Z" fill="#F99300"/>
</g>
<path d="M145.394 262.376C139.466 262.376 134.996 260.231 134.996 257.388V253.624C134.996 253.222 135.323 252.896 135.726 252.896H140.749C142.184 252.564 143.788 252.389 145.394 252.389C146.318 252.389 147.24 252.444 148.134 252.555C148.808 252.647 149.44 252.76 150.037 252.894H155.063C155.465 252.894 155.792 253.221 155.792 253.623V257.882C155.792 258.083 155.711 258.268 155.575 258.4C154.822 260.276 152.019 261.72 148.137 262.207C147.221 262.318 146.3 262.373 145.396 262.373L145.394 262.376Z" fill="#DCB8FF"/>
<path d="M145.389 253.118C146.308 253.118 147.21 253.175 148.04 253.28C148.711 253.371 149.349 253.486 149.95 253.625H155.058V257.884L154.969 257.908C154.492 259.623 151.717 261.027 148.04 261.488C147.193 261.591 146.308 261.648 145.389 261.648C140.051 261.648 135.721 259.738 135.721 257.389V253.625H140.829C142.19 253.303 143.745 253.118 145.389 253.118ZM145.389 251.661C143.757 251.661 142.127 251.835 140.662 252.168H135.721C134.915 252.168 134.262 252.821 134.262 253.625V257.389C134.262 260.647 139.046 263.105 145.389 263.105C146.333 263.105 147.284 263.047 148.217 262.933C152.283 262.425 155.262 260.863 156.192 258.799C156.396 258.547 156.515 258.227 156.515 257.883V253.623C156.515 252.819 155.862 252.166 155.056 252.166H150.111C149.52 252.035 148.891 251.924 148.237 251.834C147.302 251.717 146.349 251.659 145.388 251.659L145.389 251.661Z" fill="#252525"/>
<g style="mix-blend-mode:multiply" opacity="0.5">
<path d="M155.061 253.623V257.882L154.972 257.906C154.495 259.621 151.72 261.026 148.043 261.486V253.279C148.714 253.371 149.352 253.486 149.951 253.625H155.059L155.061 253.623Z" fill="#DCB8FF"/>
</g>
<path d="M145.399 258.615C139.473 258.615 135.004 256.467 135.004 253.618C135.004 250.769 139.473 248.62 145.399 248.62C151.325 248.62 155.794 250.769 155.794 253.618C155.794 256.467 151.325 258.615 145.399 258.615Z" fill="#212121"/>
<path d="M145.394 249.351C150.733 249.351 155.06 251.261 155.06 253.619C155.06 255.976 150.733 257.887 145.394 257.887C140.056 257.887 135.729 255.975 135.729 253.619C135.729 251.263 140.056 249.351 145.394 249.351ZM145.394 247.894C139.866 247.894 134.27 249.861 134.27 253.619C134.27 257.377 139.866 259.344 145.394 259.344C150.922 259.344 156.519 257.377 156.519 253.619C156.519 249.861 150.922 247.894 145.394 247.894Z" fill="#252525"/>
<g style="mix-blend-mode:multiply" opacity="0.3">
<path d="M150.977 250.186C150.981 250.241 150.996 250.293 150.996 250.349C150.996 253.077 146.018 255.289 139.875 255.289C138.549 255.289 137.284 255.181 136.105 254.991C137.401 256.674 141.002 257.887 145.252 257.887C150.59 257.887 154.917 255.975 154.917 253.619C154.917 252.21 153.364 250.962 150.977 250.186Z" fill="#DCB8FF"/>
</g>
<path d="M287.354 277.559C285.585 277.559 283.89 277.419 282.314 277.146C276.473 276.175 272.695 273.634 272.695 270.673C272.695 266.817 279.134 263.798 287.354 263.798C287.987 263.798 288.6 263.821 289.199 263.856C296.622 264.269 302.01 267.135 302.01 270.673C302.01 274.534 295.572 277.559 287.354 277.559Z" fill="#D2FF00"/>
<path d="M287.351 264.527C287.97 264.527 288.571 264.55 289.154 264.584C295.994 264.964 301.279 267.542 301.279 270.672C301.279 274.067 295.04 276.83 287.351 276.83C285.619 276.83 283.958 276.691 282.437 276.428C277.17 275.553 273.424 273.308 273.424 270.672C273.424 267.277 279.662 264.526 287.351 264.526M287.351 263.068C278.58 263.068 271.965 266.337 271.965 270.672C271.965 274.06 275.887 276.817 282.198 277.864C283.804 278.144 285.542 278.287 287.351 278.287C296.123 278.287 302.737 275.013 302.737 270.672C302.737 266.672 297.185 263.57 289.235 263.128C288.559 263.089 287.941 263.068 287.351 263.068Z" fill="#252525"/>
<g style="mix-blend-mode:multiply" opacity="0.5">
<path d="M301.282 270.674C301.282 274.069 295.044 276.832 287.355 276.832C285.623 276.832 283.961 276.694 282.441 276.43C278.764 275.232 276.379 273.3 276.379 271.124C276.379 267.809 281.929 265.046 289.158 264.586C295.998 264.966 301.282 267.544 301.282 270.674Z" fill="#F99300"/>
</g>
<path d="M287.355 274.233C281.427 274.233 276.957 272.088 276.957 269.245V265.481C276.957 265.079 277.284 264.752 277.687 264.752H282.71C284.144 264.42 285.749 264.245 287.355 264.245C288.283 264.245 289.205 264.302 290.097 264.413C290.768 264.503 291.399 264.617 291.998 264.751H297.022C297.425 264.751 297.752 265.077 297.752 265.479V269.739C297.752 269.94 297.67 270.125 297.536 270.256C296.782 272.133 293.979 273.577 290.097 274.064C289.195 274.174 288.273 274.23 287.355 274.23V274.233Z" fill="#DCB8FF"/>
<path d="M287.354 264.976C288.273 264.976 289.175 265.034 290.005 265.137C290.676 265.229 291.314 265.344 291.915 265.483H297.023V269.742L296.934 269.765C296.457 271.481 293.682 272.885 290.005 273.346C289.157 273.449 288.273 273.507 287.354 273.507C282.016 273.507 277.686 271.597 277.686 269.248V265.484H282.793C284.155 265.162 285.71 264.976 287.354 264.976ZM287.354 263.52C285.722 263.52 284.092 263.695 282.627 264.027H277.686C276.88 264.027 276.227 264.68 276.227 265.484V269.248C276.227 272.506 281.011 274.965 287.354 274.965C288.298 274.965 289.249 274.906 290.182 274.793C294.248 274.284 297.228 272.722 298.156 270.659C298.361 270.407 298.48 270.086 298.48 269.742V265.483C298.48 264.678 297.827 264.026 297.021 264.026H292.075C291.484 263.894 290.856 263.784 290.202 263.693C289.267 263.577 288.314 263.519 287.353 263.519L287.354 263.52Z" fill="#252525"/>
<g style="mix-blend-mode:multiply" opacity="0.5">
<path d="M297.022 265.482V269.741L296.933 269.764C296.455 271.479 293.681 272.884 290.004 273.344V265.138C290.675 265.229 291.313 265.345 291.912 265.483H297.02L297.022 265.482Z" fill="#DCB8FF"/>
</g>
<path d="M287.358 270.473C281.431 270.473 276.961 268.325 276.961 265.477C276.961 262.628 281.43 260.479 287.358 260.479C293.285 260.479 297.753 262.628 297.753 265.477C297.753 268.325 293.284 270.473 287.358 270.473Z" fill="#212121"/>
<path d="M287.355 261.209C292.694 261.209 297.021 263.119 297.021 265.477C297.021 267.835 292.694 269.745 287.355 269.745C282.017 269.745 277.689 267.835 277.689 265.477C277.689 263.119 282.017 261.209 287.355 261.209ZM287.355 259.752C281.827 259.752 276.23 261.719 276.23 265.477C276.23 269.235 281.827 271.202 287.355 271.202C292.883 271.202 298.48 269.235 298.48 265.477C298.48 261.719 292.883 259.752 287.355 259.752Z" fill="#252525"/>
<g style="mix-blend-mode:multiply" opacity="0.3">
<path d="M292.934 262.042C292.938 262.097 292.953 262.15 292.953 262.205C292.953 264.933 287.975 267.145 281.832 267.145C280.506 267.145 279.241 267.037 278.062 266.848C279.358 268.531 282.959 269.743 287.209 269.743C292.547 269.743 296.874 267.833 296.874 265.475C296.874 264.066 295.321 262.819 292.934 262.042Z" fill="#DCB8FF"/>
</g>
<path d="M317.266 265.701C315.499 265.701 313.804 265.562 312.228 265.288C306.388 264.32 302.609 261.779 302.609 258.816C302.609 254.961 309.048 251.941 317.266 251.941C317.901 251.941 318.514 251.965 319.113 252C326.537 252.412 331.924 255.278 331.924 258.816C331.924 262.676 325.486 265.701 317.266 265.701Z" fill="#D2FF00"/>
<path d="M317.265 252.669C317.884 252.669 318.485 252.692 319.069 252.727C325.908 253.108 331.193 255.685 331.193 258.815C331.193 262.211 324.954 264.973 317.265 264.973C315.533 264.973 313.872 264.835 312.351 264.571C307.085 263.697 303.338 261.451 303.338 258.815C303.338 255.42 309.576 252.669 317.265 252.669ZM317.265 251.212C308.494 251.212 301.879 254.48 301.879 258.815C301.879 262.203 305.801 264.96 312.112 266.008C313.718 266.288 315.456 266.431 317.265 266.431C326.037 266.431 332.652 263.156 332.652 258.815C332.652 254.816 327.099 251.713 319.149 251.272C318.473 251.231 317.855 251.212 317.265 251.212Z" fill="#252525"/>
<g style="mix-blend-mode:multiply" opacity="0.5">
<path d="M331.188 258.816C331.188 262.211 324.95 264.974 317.261 264.974C315.529 264.974 313.867 264.835 312.347 264.571C308.671 263.374 306.285 261.44 306.285 259.266C306.285 255.951 311.835 253.188 319.064 252.728C325.904 253.108 331.188 255.686 331.188 258.816Z" fill="#F99300"/>
</g>
<path d="M317.268 262.376C311.341 262.376 306.871 260.231 306.871 257.388V253.624C306.871 253.222 307.198 252.896 307.601 252.896H312.624C314.058 252.564 315.663 252.389 317.268 252.389C318.193 252.389 319.115 252.444 320.009 252.555C320.682 252.647 321.313 252.76 321.912 252.894H326.936C327.339 252.894 327.666 253.221 327.666 253.623V257.882C327.666 258.083 327.584 258.268 327.45 258.4C326.696 260.276 323.893 261.72 320.011 262.207C319.096 262.318 318.174 262.373 317.268 262.373V262.376Z" fill="#DCB8FF"/>
<path d="M317.266 253.118C318.185 253.118 319.087 253.175 319.917 253.28C320.588 253.371 321.225 253.486 321.825 253.625H326.933V257.884L326.844 257.908C326.367 259.623 323.592 261.027 319.915 261.488C319.068 261.591 318.183 261.648 317.264 261.648C311.926 261.648 307.596 259.738 307.596 257.389V253.625H312.704C314.065 253.303 315.621 253.118 317.266 253.118ZM317.264 251.661C315.632 251.661 314.002 251.835 312.537 252.168H307.596C306.79 252.168 306.137 252.821 306.137 253.625V257.389C306.137 260.647 310.921 263.105 317.264 263.105C318.208 263.105 319.16 263.047 320.092 262.933C324.158 262.425 327.137 260.863 328.067 258.799C328.271 258.547 328.39 258.227 328.39 257.883V253.623C328.39 252.819 327.737 252.166 326.931 252.166H321.986C321.395 252.035 320.766 251.924 320.112 251.834C319.177 251.717 318.224 251.659 317.263 251.659L317.264 251.661Z" fill="#252525"/>
<g style="mix-blend-mode:multiply" opacity="0.5">
<path d="M326.936 253.623V257.882L326.847 257.906C326.37 259.621 323.595 261.026 319.918 261.486V253.279C320.589 253.371 321.227 253.486 321.826 253.625H326.934L326.936 253.623Z" fill="#DCB8FF"/>
</g>
<path d="M317.27 258.615C311.344 258.615 306.875 256.467 306.875 253.618C306.875 250.769 311.344 248.62 317.27 248.62C323.197 248.62 327.667 250.769 327.667 253.618C327.667 256.467 323.198 258.615 317.27 258.615Z" fill="#212121"/>
<path d="M317.269 249.351C322.608 249.351 326.935 251.261 326.935 253.619C326.935 255.976 322.608 257.887 317.269 257.887C311.931 257.887 307.604 255.975 307.604 253.619C307.604 251.263 311.931 249.351 317.269 249.351ZM317.269 247.894C311.741 247.894 306.145 249.861 306.145 253.619C306.145 257.377 311.741 259.344 317.269 259.344C322.797 259.344 328.394 257.377 328.394 253.619C328.394 249.861 322.797 247.894 317.269 247.894Z" fill="#252525"/>
<g style="mix-blend-mode:multiply" opacity="0.3">
<path d="M322.844 250.186C322.848 250.241 322.863 250.293 322.863 250.349C322.863 253.077 317.885 255.289 311.743 255.289C310.416 255.289 309.152 255.181 307.973 254.991C309.268 256.674 312.869 257.887 317.119 257.887C322.457 257.887 326.785 255.975 326.785 253.619C326.785 252.21 325.231 250.962 322.844 250.186Z" fill="#DCB8FF"/>
</g>
<path d="M61.9347 164.028C60.9821 161.932 58.9049 160.648 56.6888 160.648C56.2171 160.648 55.7389 160.706 55.2639 160.827L39.3487 164.883L40.4891 148.499C40.6831 145.714 38.8533 143.19 36.146 142.509C35.6765 142.391 35.2038 142.334 34.7374 142.334C32.515 142.334 30.4332 143.626 29.4845 145.729L22.7321 160.7L10.6333 149.594C9.53598 148.586 8.13755 148.076 6.7343 148.076C5.5081 148.076 4.27805 148.465 3.24229 149.255C1.02146 150.946 0.332419 153.986 1.60647 156.47L9.10186 171.084L-7.12528 173.618C-9.88361 174.049 -11.9367 176.394 -11.9986 179.185C-12.0605 181.976 -10.1133 184.41 -7.37699 184.963L8.72162 188.214L0.585403 202.481C-0.79743 204.906 -0.243979 207.973 1.89965 209.762C2.96923 210.654 4.2809 211.1 5.5926 211.1C6.90429 211.1 8.22718 210.65 9.29835 209.751L21.8778 199.192L27.9591 214.448C28.8459 216.673 30.9918 218.078 33.3105 218.078C33.6943 218.078 34.0828 218.04 34.471 217.96C37.2057 217.4 39.1455 214.96 39.0757 212.169L38.6632 195.751L54.3828 200.508C54.9366 200.676 55.4984 200.756 56.0528 200.756C58.1741 200.756 60.1847 199.579 61.1889 197.607C62.4556 195.119 61.7576 192.081 59.532 190.396L46.4383 180.481L59.9591 171.158C62.2572 169.573 63.0894 166.568 61.9343 164.027L61.9347 164.028Z" fill="white" stroke="#252525" stroke-width="1.55541" stroke-linecap="round" stroke-linejoin="round"/>
<path d="M33.3111 212.315L24.2772 189.652L5.5903 205.337L17.6766 184.144L-6.23828 179.314L17.8673 175.55L6.73294 153.841L24.7056 170.34L34.7363 148.1L33.0422 172.438L56.6843 166.414L36.5992 180.265L56.0501 194.992L32.6986 187.925L33.3111 212.315Z" fill="#FF5B23" stroke="#252525" stroke-width="1.55541" stroke-linecap="round" stroke-linejoin="round"/>
</g>
</svg>
