<svg width="390" height="345" viewBox="0 0 390 345" fill="none" xmlns="http://www.w3.org/2000/svg">
<mask id="mask0_9796_21446" style="mask-type:alpha" maskUnits="userSpaceOnUse" x="0" y="0" width="390" height="345">
<rect x="0.733333" y="0.733333" width="388.533" height="343.533" fill="#212121" stroke="#D2FF00" stroke-width="1.46667"/>
</mask>
<g mask="url(#mask0_9796_21446)">
<path d="M322.84 36.8273C324.289 37.0183 325.737 37.2176 327.185 37.4254" stroke="#141414" stroke-width="1.55541" stroke-linecap="round" stroke-linejoin="round"/>
<path d="M329.913 37.8254C332.944 38.2814 335.972 38.7704 338.999 39.3006" stroke="#141414" stroke-width="1.55541" stroke-linecap="round" stroke-linejoin="round"/>
<path d="M342.487 39.9279C344.181 40.2411 345.875 40.5706 347.568 40.9077" stroke="#141414" stroke-width="1.55541" stroke-linecap="round" stroke-linejoin="round"/>
<path d="M307.558 35.1042C312.653 35.5796 317.749 36.1545 322.842 36.8265C324.29 37.0175 325.739 37.2168 327.187 37.4246C328.097 37.5549 329.006 37.6886 329.916 37.8256C332.946 38.2816 335.975 38.7706 339.001 39.3008C340.164 39.5047 341.326 39.7134 342.488 39.9282C344.183 40.2414 345.876 40.5709 347.57 40.9081C349.358 41.2645 351.146 41.6296 352.933 42.0134C353.714 42.1663 354.492 42.3308 355.269 42.5001C356.811 42.8353 358.347 43.1961 359.881 43.5699C360.645 43.7564 361.41 43.9458 362.174 44.1357C363.717 44.5187 365.261 44.9036 366.81 45.2749C367.972 45.5452 369.117 45.8693 370.263 46.1942L370.449 46.2464L373.707 47.1608L374.93 47.5043L377.158 48.1304L378.884 48.6164L379.637 48.8531L380.595 49.1541C381.733 49.5176 382.875 49.8767 384.018 50.2372C384.588 50.4177 385.16 50.5981 385.731 50.7796C388.587 51.6877 391.439 52.6213 394.256 53.6643L397.658 54.8715C398.226 55.0722 398.794 55.2719 399.36 55.4784C399.926 55.6849 400.489 55.8982 401.046 56.1251L403.115 56.9384L407.783 58.7733C410.336 59.8263 412.885 60.9058 415.426 62.0123C421.771 64.7754 428.064 67.7255 434.219 70.9896L437.475 72.6708L440.677 74.4515C442.364 75.4036 444.069 76.3359 445.757 77.2995C446.197 77.5514 446.638 77.8033 447.076 78.0606L453.379 81.8645L453.528 81.9549L454.956 82.8208L456.502 83.8237L458.945 85.4101L459.597 85.8336L462.696 87.8502C463.082 88.1046 463.461 88.3689 463.841 88.6317C464.069 88.7899 464.299 88.9446 464.526 89.1037C464.93 89.3867 465.333 89.6701 465.739 89.9501C466.747 90.6598 467.765 91.3607 468.778 92.0664C469.793 92.7726 470.804 93.4841 471.801 94.2149L477.751 98.6556C479.735 100.142 481.64 101.723 483.591 103.26C491.305 109.502 498.803 116.091 505.914 123.106C514.798 131.872 523.223 141.176 531.093 150.957C532.667 152.913 534.219 154.888 535.748 156.882C538.805 160.87 541.771 164.931 544.638 169.064C556.147 185.573 566.238 203.109 574.905 221.338C575.446 222.478 575.983 223.62 576.513 224.765C577.574 227.055 578.613 229.356 579.632 231.666C580.477 233.583 581.303 235.509 582.118 237.439C583.042 239.627 583.946 241.825 584.832 244.03C589.288 255.123 593.264 266.429 596.744 277.927C596.99 278.738 597.23 279.552 597.472 280.365C599.761 288.083 601.832 295.888 603.669 303.816C603.959 305.068 604.243 306.323 604.521 307.58C605.636 312.615 606.655 317.698 607.559 322.899C607.727 323.876 607.891 324.858 608.053 325.843C608.323 327.484 608.584 329.139 608.826 330.831C608.999 332.042 609.166 333.263 609.324 334.524C609.343 334.677 609.363 334.825 609.383 334.98L609.637 337.169L609.757 338.359L609.792 338.762L609.816 339.03L609.844 339.379L609.875 339.948L571.318 340.586C571.196 335.995 570.77 331.126 570.336 326.541C569.894 321.954 569.338 317.378 568.687 312.815C567.387 303.688 565.724 294.611 563.717 285.608C559.719 267.6 554.35 249.883 547.644 232.664C540.93 215.449 532.822 198.747 523.289 182.848C513.794 166.925 504.354 151.194 492.005 137.257C485.827 130.288 479.234 123.675 472.385 117.331C470.65 115.769 468.96 114.158 467.186 112.637L461.859 108.078C460.071 106.572 458.219 105.14 456.402 103.667C455.485 102.94 454.587 102.191 453.654 101.484L450.844 99.3769L448.034 97.2701L446.629 96.2164L445.19 95.207C445.19 95.207 434.805 87.8604 432.846 86.5701L429.895 84.6536L426.882 82.8288C418.907 77.8691 410.588 73.4501 402.162 69.259L395.786 66.2184C394.73 65.6979 393.648 65.2309 392.567 64.761L389.328 63.3454C385.036 61.3972 380.626 59.715 376.248 57.9599L374.603 57.3092L372.938 56.7081L369.608 55.5053L366.278 54.3031C365.169 53.8988 364.06 53.4945 362.932 53.1435C358.43 51.7109 353.974 50.1419 349.411 48.8899C331.272 43.5567 315.269 40.6553 296.52 37.8817C296.519 37.8817 296.518 37.8813 296.516 37.8809L297.069 34.2617C299.399 34.4198 301.729 34.5974 304.06 34.7951C305.225 34.8937 306.39 34.9975 307.556 35.1062L307.558 35.1042Z" fill="#FF5B23" stroke="#141414" stroke-width="1.55541" stroke-linecap="round" stroke-linejoin="round"/>
<path d="M362.931 53.1416C364.059 53.4926 365.168 53.8969 366.277 54.3012L369.607 55.5034L372.937 56.7062L374.602 57.3073L376.247 57.958C380.625 59.7131 385.035 61.3953 389.327 63.3435L392.566 64.7591C393.647 65.229 394.729 65.6955 395.785 66.2165L402.161 69.2571C410.587 73.4483 418.905 77.8672 426.881 82.827L429.894 84.6517L432.845 86.5682C434.803 87.8585 445.189 95.2051 445.189 95.2051L446.628 96.2145L448.033 97.2681L450.843 99.375L453.653 101.482C454.585 102.19 455.483 102.939 456.401 103.665C458.217 105.137 460.07 106.57 461.857 108.076L467.184 112.635C468.958 114.156 470.648 115.767 472.384 117.329C479.233 123.673 485.825 130.286 492.004 137.255C504.353 151.192 513.793 166.924 523.288 182.846C532.821 198.745 540.929 215.447 547.643 232.662C554.349 249.881 559.719 267.597 563.716 285.606C565.723 294.609 567.386 303.685 568.686 312.813C569.337 317.376 569.893 321.953 570.335 326.539C570.769 331.124 571.194 335.992 571.317 340.585L571.307 340.585L568.437 340.62L530.363 341.091L530.374 341.09C530.38 341.133 530.407 339.024 530.407 339.024C530.463 338.148 530.639 332.391 530.653 330.406C530.674 326.423 530.584 322.342 530.406 318.241C530.052 310.033 529.357 301.725 528.339 293.429C526.319 276.826 523.015 260.261 518.458 244.024C509.328 211.558 494.967 180.352 474.738 152.629C469.702 145.684 464.241 139.024 458.493 132.557C457.033 130.965 455.616 129.317 454.114 127.756L449.595 123.063C448.075 121.508 446.488 120.022 444.934 118.491C444.148 117.735 443.38 116.956 442.578 116.216L440.156 114.011L437.729 111.799L436.515 110.691L435.265 109.624L430.25 105.349C428.559 103.942 426.815 102.599 425.094 101.216L422.499 99.1543L419.836 97.1791C412.789 91.8102 405.338 86.9137 397.715 82.1934C367.099 63.4495 332.283 50.2126 295.971 41.5561L295.793 42.6839L296.516 37.8794C296.516 37.8794 296.519 37.8798 296.52 37.8802C315.268 40.6538 331.272 43.5553 349.411 48.8885C353.973 50.14 358.43 51.7095 362.932 53.142L362.931 53.1416Z" fill="#DCB8FF" stroke="#141414" stroke-width="1.55541" stroke-linecap="round" stroke-linejoin="round"/>
<path d="M397.715 82.1934C405.338 86.9136 412.789 91.8102 419.836 97.179L422.499 99.1543L425.094 101.216C426.814 102.6 428.559 103.942 430.25 105.349L435.265 109.624L436.515 110.69L437.73 111.799L440.156 114.01L442.578 116.216C443.38 116.956 444.148 117.735 444.934 118.49C446.488 120.022 448.075 121.508 449.596 123.063L454.114 127.756C455.616 129.317 457.033 130.965 458.493 132.557C464.241 139.024 469.702 145.685 474.739 152.629C494.967 180.352 509.328 211.558 518.458 244.024C523.016 260.261 526.319 276.826 528.339 293.429C529.357 301.725 530.052 310.033 530.406 318.241C530.585 322.342 530.674 326.422 530.654 330.406C530.639 332.391 530.463 338.148 530.407 339.024C530.407 339.024 530.381 341.132 530.374 341.09C530.374 341.09 530.366 341.09 530.364 341.091C529.927 341.096 488.454 341.623 488.533 341.282C488.704 340.679 488.858 339.947 489.009 339.211C489.311 337.717 489.566 336.056 489.812 334.38C490.295 331 490.671 327.415 490.964 323.777C491.551 316.489 491.816 308.95 491.776 301.362C491.712 286.166 490.439 270.756 487.982 255.505C483.036 224.995 473.213 195.052 457.361 167.448C453.414 160.533 449.028 153.831 444.323 147.246C443.123 145.624 441.965 143.943 440.719 142.343L436.963 137.521C435.694 135.918 434.357 134.379 433.049 132.79C432.387 132.006 431.741 131.197 431.061 130.427L429.002 128.126L426.935 125.811L425.898 124.648L424.825 123.526L420.504 119.012C419.041 117.521 417.521 116.09 416.022 114.613L413.757 112.411L411.417 110.287C405.226 104.515 398.568 99.1482 391.674 93.9049C363.984 73.0621 330.911 56.8897 295.399 45.1764L295.792 42.6834L295.969 41.5557C332.282 50.2126 367.097 63.4491 397.714 82.193L397.715 82.1934Z" fill="#ECEDE7" stroke="#141414" stroke-width="1.55541" stroke-linecap="round" stroke-linejoin="round"/>
<path d="M609.842 339.376L609.813 339.027L609.79 338.76L609.755 338.356L609.635 337.166L609.38 334.977C609.361 334.822 609.34 334.675 609.321 334.521C609.163 333.26 608.997 332.04 608.824 330.828C608.581 329.137 608.321 327.482 608.051 325.84C607.888 324.855 607.724 323.874 607.556 322.896C606.653 317.695 605.634 312.613 604.519 307.578C604.241 306.32 603.956 305.065 603.666 303.813C601.83 295.886 599.759 288.081 597.469 280.363C597.228 279.549 596.988 278.736 596.742 277.924C593.262 266.426 589.286 255.12 584.83 244.028C583.944 241.822 583.04 239.625 582.116 237.436C581.3 235.506 580.474 233.58 579.629 231.663C578.611 229.353 577.571 227.053 576.51 224.763C575.98 223.618 575.444 222.475 574.903 221.335C566.236 203.107 556.144 185.571 544.636 169.062C541.769 164.929 538.803 160.867 535.745 156.879C534.217 154.886 532.665 152.91 531.091 150.954C523.221 141.174 514.795 131.87 505.911 123.103C498.8 116.089 491.302 109.5 483.589 103.258C481.637 101.721 479.733 100.14 477.748 98.653L471.798 94.2123C470.802 93.4815 469.791 92.77 468.776 92.0638C467.762 91.3576 466.745 90.6568 465.737 89.9475C465.331 89.6675 464.927 89.3841 464.524 89.1011C464.297 88.942 464.067 88.7872 463.839 88.6291C463.459 88.3663 463.08 88.102 462.694 87.8476L459.595 85.8311L458.942 85.4075L456.499 83.8211L454.953 82.8182L453.526 81.9523L453.376 81.8619L447.073 78.058C446.636 77.8007 446.195 77.5484 445.754 77.297C444.066 76.3339 442.362 75.4015 440.674 74.449L437.472 72.6682L434.217 70.987C428.062 67.7229 421.769 64.7728 415.424 62.0098C412.883 60.9032 410.334 59.8237 407.781 58.7707L403.113 56.9358L401.044 56.1225C400.486 55.8956 399.923 55.6823 399.357 55.4758C398.792 55.2693 398.223 55.0696 397.656 54.8689L394.254 53.6617C391.437 52.6187 388.584 51.6851 385.728 50.777C385.157 50.5951 384.586 50.4146 384.015 50.2346C382.873 49.8741 381.731 49.515 380.592 49.1515L379.634 48.8505L378.882 48.6138L377.155 48.1278L374.928 47.5017L373.705 47.1582L370.446 46.2439L370.261 46.1916C369.115 45.8667 367.969 45.5426 366.808 45.2723C365.258 44.9014 363.715 44.5161 362.172 44.1331C361.407 43.9432 360.643 43.7538 359.878 43.5673C358.344 43.1931 356.808 42.8327 355.267 42.4975C354.49 42.3282 353.711 42.1637 352.931 42.0108C351.144 41.6275 349.356 41.2619 347.567 40.9055C345.874 40.5683 344.18 40.2389 342.486 39.9257C341.324 39.7108 340.162 39.5016 338.999 39.2982C335.972 38.768 332.944 38.2795 329.913 37.823C329.004 37.686 328.094 37.5523 327.184 37.422C325.736 37.2142 324.288 37.015 322.839 36.8239C317.746 36.1519 312.65 35.577 307.556 35.1016C306.39 34.993 305.225 34.8891 304.059 34.7905C301.729 34.5928 299.399 34.4157 297.069 34.2571L297.622 30.6384C316.653 30.3715 335.948 31.3896 355.377 33.9915C360.255 34.5594 365.078 35.4629 369.966 36.244C371.191 36.4322 372.401 36.6754 373.613 36.9189L377.258 37.645L380.914 38.3769L382.746 38.7456L384.564 39.1664C389.41 40.3115 394.312 41.4 399.143 42.7832L402.789 43.7779C404.007 44.1087 405.228 44.4375 406.429 44.8235L413.688 47.0709C423.33 50.2316 432.995 53.7254 442.456 57.8959L446.028 59.4293L449.554 61.0687C451.9 62.1778 454.277 63.2562 456.614 64.4135L463.598 67.9797L465.348 68.8807L467.069 69.8296L470.516 71.7378L473.972 73.6585C475.12 74.307 476.239 74.9987 477.376 75.6697C479.633 77.0327 481.931 78.3641 484.171 79.7785L490.869 84.0908C493.105 85.5392 495.263 87.0867 497.471 88.5946C506.207 94.721 514.76 101.27 522.94 108.316C539.294 122.403 554.535 138.159 568.166 155.266C581.84 172.355 594.064 190.694 604.792 209.908C615.514 229.135 624.802 249.197 632.61 270.054C636.523 280.491 640.065 291.124 643.218 302.11C644.796 307.608 646.273 313.187 647.631 318.992C648.307 321.909 648.964 324.845 649.577 327.954C649.883 329.518 650.184 331.089 650.471 332.791C650.617 333.599 650.756 334.55 650.896 335.438L651.102 336.95C651.135 337.171 651.171 337.558 651.204 337.858L651.255 338.339L651.311 339.257L609.874 339.944L609.844 339.375L609.842 339.376Z" fill="#D2FF00" stroke="#141414" stroke-width="1.55541" stroke-linecap="round" stroke-linejoin="round"/>
<path d="M124.656 123.36C123.207 123.552 121.759 123.751 120.311 123.959" stroke="#141414" stroke-width="1.55541" stroke-linecap="round" stroke-linejoin="round"/>
<path d="M117.583 124.359C114.553 124.815 111.524 125.304 108.497 125.834" stroke="#141414" stroke-width="1.55541" stroke-linecap="round" stroke-linejoin="round"/>
<path d="M105.01 126.461C103.315 126.774 101.621 127.104 99.9281 127.441" stroke="#141414" stroke-width="1.55541" stroke-linecap="round" stroke-linejoin="round"/>
<path d="M139.938 121.637C134.843 122.113 129.747 122.688 124.654 123.36C123.206 123.551 121.758 123.75 120.309 123.958C119.399 124.088 118.49 124.222 117.58 124.359C114.55 124.815 111.521 125.304 108.495 125.834C107.332 126.038 106.17 126.247 105.008 126.461C103.313 126.775 101.62 127.104 99.9266 127.441C98.1376 127.798 96.3497 128.163 94.5631 128.547C93.7819 128.699 93.0041 128.864 92.2271 129.033C90.6856 129.369 89.1494 129.729 87.6155 130.103C86.8507 130.29 86.0863 130.479 85.3219 130.669C83.779 131.052 82.2352 131.437 80.6856 131.808C79.5243 132.078 78.379 132.402 77.2328 132.727L77.0472 132.78L73.7886 133.694L72.5661 134.038L70.3386 134.664L68.6116 135.15L67.8593 135.386L66.9014 135.687C65.7627 136.051 64.6209 136.41 63.4786 136.77C62.9076 136.951 62.3362 137.131 61.7652 137.313C58.9094 138.221 56.0568 139.155 53.2398 140.197L49.8381 141.405C49.2702 141.605 48.7019 141.805 48.1362 142.012C47.5705 142.218 47.0074 142.431 46.45 142.658L44.3807 143.472L39.7128 145.307C37.1597 146.36 34.6109 147.439 32.0697 148.546C25.7249 151.309 19.4322 154.259 13.2768 157.523L10.0215 159.204L6.81934 160.985C5.13201 161.937 3.42678 162.869 1.73949 163.833C1.29873 164.085 0.857975 164.337 0.420354 164.594L-5.8828 168.398L-6.03203 168.488L-7.45986 169.354L-9.0057 170.357L-11.4485 171.943L-12.1009 172.367L-15.2002 174.383C-15.5861 174.638 -15.9652 174.902 -16.3452 175.165C-16.573 175.323 -16.8031 175.478 -17.03 175.637C-17.4337 175.92 -17.8369 176.203 -18.2434 176.483C-19.2513 177.193 -20.2684 177.894 -21.2824 178.6C-22.2969 179.306 -23.3082 180.017 -24.3045 180.748L-30.2547 185.189C-32.2391 186.675 -34.1435 188.257 -36.0949 189.793C-43.8088 196.035 -51.3067 202.624 -58.4175 209.639C-67.302 218.406 -75.7274 227.709 -83.5973 237.49C-85.1713 239.446 -86.7231 241.422 -88.2516 243.415C-91.3092 247.403 -94.2746 251.465 -97.1422 255.598C-108.651 272.106 -118.742 289.642 -127.409 307.871C-127.95 309.011 -128.487 310.153 -129.017 311.298C-130.078 313.588 -131.117 315.889 -132.135 318.199C-132.98 320.116 -133.807 322.042 -134.622 323.972C-135.546 326.16 -136.45 328.358 -137.336 330.563C-141.792 341.656 -145.767 352.962 -149.248 364.46C-149.494 365.271 -149.734 366.085 -149.976 366.899C-152.265 374.617 -154.336 382.421 -156.173 390.349C-156.463 391.601 -156.747 392.856 -157.025 394.114C-158.14 399.148 -159.159 404.231 -160.063 409.432C-160.231 410.41 -160.395 411.391 -160.557 412.376C-160.827 414.018 -161.088 415.673 -161.33 417.364C-161.503 418.575 -161.67 419.796 -161.828 421.057C-161.847 421.21 -161.867 421.358 -161.886 421.513L-162.141 423.702L-162.261 424.892L-162.296 425.295L-162.32 425.563L-162.348 425.912L-162.379 426.481L-123.822 427.12C-123.699 422.528 -123.274 417.659 -122.84 413.074C-122.398 408.487 -121.842 403.911 -121.191 399.348C-119.891 390.221 -118.228 381.144 -116.221 372.141C-112.223 354.133 -106.854 336.416 -100.148 319.197C-93.4336 301.982 -85.3257 285.28 -75.7933 269.381C-66.2982 253.458 -56.8577 237.727 -44.5088 223.79C-38.3305 216.822 -31.7384 210.208 -24.8893 203.864C-23.1534 202.302 -21.4635 200.691 -19.6895 199.17L-14.3625 194.611C-12.5747 193.105 -10.7229 191.673 -8.90576 190.2C-7.98901 189.474 -7.09049 188.724 -6.1582 188.017L-3.34803 185.91L-0.537871 183.803L0.866986 182.75L2.306 181.74C2.306 181.74 12.6915 174.394 14.6503 173.103L17.6014 171.187L20.614 169.362C28.5893 164.402 36.9078 159.983 45.3342 155.792L51.7101 152.752C52.7658 152.231 53.8482 151.764 54.9287 151.294L58.1681 149.879C62.4599 147.93 66.8701 146.248 71.2482 144.493L72.893 143.842L74.5579 143.241L77.8877 142.039L81.218 140.836C82.3271 140.432 83.4357 140.028 84.5638 139.677C89.0659 138.244 93.5225 136.675 98.0847 135.423C116.224 130.09 132.228 127.188 150.976 124.415C150.977 124.415 150.979 124.415 150.98 124.414L150.427 120.795C148.097 120.953 145.767 121.131 143.436 121.328C142.271 121.427 141.106 121.531 139.94 121.639L139.938 121.637Z" fill="#D2FF00" stroke="#141414" stroke-width="1.55541" stroke-linecap="round" stroke-linejoin="round"/>
<path d="M84.565 139.675C83.4369 140.026 82.3278 140.43 81.2192 140.834L77.8889 142.037L74.5591 143.239L72.8942 143.84L71.2494 144.491C66.8713 146.246 62.4611 147.929 58.1693 149.877L54.9299 151.292C53.8494 151.762 52.767 152.229 51.7113 152.75L45.3354 155.79C36.9089 159.981 28.5909 164.4 20.6152 169.36L17.6025 171.185L14.6514 173.101C12.6926 174.392 2.30716 181.738 2.30716 181.738L0.868142 182.748L-0.536715 183.801L-3.34688 185.908L-6.15704 188.015C-7.08888 188.723 -7.98738 189.472 -8.90461 190.198C-10.7212 191.67 -12.5736 193.103 -14.3613 194.609L-19.6884 199.168C-21.4623 200.689 -23.1518 202.3 -24.8881 203.862C-31.7368 210.206 -38.3294 216.82 -44.5077 223.789C-56.8566 237.725 -66.2971 253.457 -75.7921 269.379C-85.3246 285.278 -93.4324 301.98 -100.147 319.195C-106.853 336.414 -112.223 354.13 -116.22 372.139C-118.227 381.142 -119.89 390.219 -121.189 399.346C-121.841 403.909 -122.397 408.486 -122.839 413.072C-123.273 417.657 -123.698 422.526 -123.821 427.118L-123.811 427.118L-120.941 427.153L-82.8673 427.624L-82.8778 427.623C-82.8842 427.666 -82.9106 425.558 -82.9106 425.558C-82.9671 424.682 -83.143 418.924 -83.1574 416.939C-83.1775 412.956 -83.0882 408.875 -82.9098 404.774C-82.5555 396.566 -81.8609 388.258 -80.8426 379.963C-78.8229 363.359 -75.5192 346.794 -70.9616 330.557C-61.8316 298.091 -47.4711 266.885 -27.2423 239.162C-22.206 232.217 -16.7446 225.557 -10.9969 219.09C-9.53669 217.498 -8.12025 215.851 -6.61771 214.29L-2.09918 209.597C-0.578697 208.042 1.00802 206.555 2.5625 205.024C3.34797 204.268 4.11615 203.489 4.91821 202.75L7.34016 200.544L9.76664 198.332L10.9814 197.224L12.2309 196.157L17.246 191.882C18.9372 190.475 20.6815 189.133 22.402 187.749L24.9972 185.688L27.6599 183.712C34.7076 178.343 42.1584 173.447 49.7809 168.727C80.3975 149.983 115.213 136.746 151.525 128.089L151.703 129.217L150.98 124.413C150.98 124.413 150.977 124.413 150.976 124.413C132.228 127.187 116.224 130.088 98.0848 135.422C93.5227 136.673 89.0656 138.243 84.5641 139.675L84.565 139.675Z" fill="#DCB8FF" stroke="#141414" stroke-width="1.55541" stroke-linecap="round" stroke-linejoin="round"/>
<path d="M49.7806 168.727C42.1582 173.447 34.7073 178.343 27.6596 183.712L24.9969 185.687L22.4017 187.749C20.6817 189.133 18.9369 190.475 17.2457 191.882L12.2306 196.157L10.9811 197.224L9.76636 198.332L7.33989 200.544L4.91796 202.749C4.11589 203.489 3.3477 204.268 2.56224 205.024C1.00775 206.555 -0.57895 208.042 -2.09943 209.597L-6.61798 214.29C-8.12004 215.851 -9.53696 217.498 -10.9972 219.09C-16.7448 225.557 -22.2063 232.218 -27.2426 239.162C-47.4713 266.885 -61.8319 298.091 -70.9619 330.557C-75.5194 346.794 -78.8231 363.359 -80.8429 379.962C-81.8611 388.258 -82.5557 396.566 -82.91 404.774C-83.0885 408.875 -83.1777 412.955 -83.1576 416.939C-83.1433 418.924 -82.9674 424.682 -82.9109 425.558C-82.9109 425.558 -82.8844 427.666 -82.8781 427.623C-82.8781 427.623 -82.8699 427.624 -82.8675 427.624C-82.4313 427.629 -40.958 428.156 -41.0367 427.815C-41.2079 427.213 -41.3622 426.481 -41.513 425.744C-41.8152 424.25 -42.0704 422.589 -42.3164 420.913C-42.7987 417.533 -43.1753 413.948 -43.4676 410.311C-44.0551 403.022 -44.32 395.483 -44.28 387.895C-44.2163 372.699 -42.9432 357.289 -40.4859 342.038C-35.5399 311.528 -25.717 281.585 -9.86489 253.981C-5.91817 247.066 -1.53213 240.364 3.17358 233.779C4.37297 232.158 5.53113 230.476 6.77702 228.877L10.5328 224.054C11.8017 222.451 13.139 220.912 14.4471 219.323C15.1093 218.539 15.7548 217.731 16.4352 216.96L18.4942 214.659L20.5612 212.344L21.5978 211.182L22.6712 210.059L26.9917 205.545C28.4547 204.054 29.9748 202.623 31.4737 201.147L33.7392 198.944L36.0792 196.82C42.2698 191.048 48.9278 185.681 55.822 180.438C83.5126 159.595 116.585 143.423 152.097 131.71L151.704 129.217L151.527 128.089C115.214 136.746 80.3991 149.982 49.7825 168.726L49.7806 168.727Z" fill="#ECEDE7" stroke="#141414" stroke-width="1.55541" stroke-linecap="round" stroke-linejoin="round"/>
<path d="M-162.346 425.909L-162.317 425.56L-162.294 425.293L-162.259 424.889L-162.139 423.7L-161.884 421.51C-161.865 421.355 -161.844 421.208 -161.825 421.055C-161.667 419.793 -161.501 418.573 -161.328 417.362C-161.085 415.67 -160.824 414.015 -160.555 412.373C-160.392 411.388 -160.228 410.407 -160.06 409.429C-159.157 404.228 -158.138 399.146 -157.023 394.111C-156.745 392.853 -156.46 391.598 -156.17 390.346C-154.334 382.419 -152.262 374.614 -149.973 366.896C-149.732 366.082 -149.492 365.269 -149.246 364.457C-145.765 352.959 -141.789 341.653 -137.334 330.561C-136.448 328.355 -135.544 326.158 -134.619 323.97C-133.804 322.039 -132.977 320.113 -132.133 318.196C-131.115 315.886 -130.075 313.586 -129.014 311.296C-128.484 310.151 -127.948 309.008 -127.407 307.868C-118.739 289.64 -108.648 272.104 -97.1397 255.595C-94.2726 251.462 -91.3068 247.401 -88.2492 243.413C-86.7206 241.419 -85.1688 239.444 -83.5948 237.488C-75.7249 227.707 -67.299 218.403 -58.4151 209.636C-51.3043 202.622 -43.8063 196.033 -36.0925 189.791C-34.141 188.254 -32.2367 186.673 -30.2522 185.186L-24.302 180.746C-23.3057 180.015 -22.2944 179.303 -21.2799 178.597C-20.2659 177.891 -19.2488 177.19 -18.2409 176.481C-17.8345 176.201 -17.4312 175.917 -17.0275 175.634C-16.8006 175.475 -16.5705 175.32 -16.3427 175.162C-15.9632 174.899 -15.5836 174.635 -15.1977 174.381L-12.0985 172.364L-11.4461 171.941L-9.00325 170.354L-7.45741 169.351L-6.02958 168.485L-5.88033 168.395L0.422805 164.591C0.860427 164.334 1.30121 164.082 1.74196 163.83C3.4297 162.867 5.13444 161.935 6.82179 160.982L10.0239 159.201L13.2792 157.52C19.4342 154.256 25.7269 151.306 32.0721 148.543C34.6134 147.436 37.1622 146.357 39.7152 145.304L44.3832 143.469L46.4524 142.656C47.0098 142.429 47.5729 142.215 48.1387 142.009C48.7044 141.802 49.2727 141.603 49.8406 141.402L53.2423 140.195C56.0588 139.152 58.9118 138.218 61.7677 137.31C62.3387 137.128 62.9101 136.948 63.481 136.768C64.6234 136.407 65.7647 136.048 66.9038 135.685L67.8617 135.384L68.6141 135.147L70.3411 134.661L72.5686 134.035L73.791 133.691L77.0497 132.777L77.2352 132.725C78.3814 132.4 79.5267 132.076 80.6881 131.805C82.2376 131.435 83.7815 131.049 85.3243 130.666C86.0888 130.476 86.8532 130.287 87.6179 130.101C89.1518 129.726 90.688 129.366 92.2295 129.031C93.0065 128.861 93.7848 128.697 94.5655 128.544C96.3522 128.161 98.14 127.795 99.929 127.439C101.622 127.102 103.316 126.772 105.01 126.459C106.173 126.244 107.334 126.035 108.497 125.831C111.524 125.301 114.552 124.813 117.583 124.356C118.492 124.219 119.402 124.086 120.312 123.955C121.76 123.747 123.208 123.548 124.657 123.357C129.75 122.685 134.846 122.11 139.94 121.635C141.106 121.526 142.271 121.422 143.437 121.324C145.767 121.126 148.097 120.949 150.427 120.79L149.874 117.172C130.843 116.905 111.548 117.923 92.1195 120.525C87.2416 121.093 82.4183 121.996 77.5299 122.777C76.3052 122.965 75.0952 123.209 73.8827 123.452L70.2378 124.178L66.5818 124.91L64.7498 125.279L62.9316 125.7C58.0863 126.845 53.1843 127.933 48.3528 129.316L44.7068 130.311C43.4886 130.642 42.2677 130.971 41.067 131.357L33.8077 133.604C24.1661 136.765 14.5008 140.259 5.04024 144.429L1.46791 145.962L-2.05776 147.602C-4.40358 148.711 -6.78072 149.789 -9.11784 150.947L-16.1022 154.513L-17.8521 155.414L-19.5728 156.363L-23.0203 158.271L-26.4759 160.192C-27.6244 160.84 -28.743 161.532 -29.8799 162.203C-32.1374 163.566 -34.4348 164.897 -36.6746 166.312L-43.3733 170.624C-45.6091 172.072 -47.767 173.62 -49.9746 175.128C-58.7108 181.254 -67.2637 187.803 -75.4441 194.849C-91.7979 208.936 -107.039 224.692 -120.67 241.799C-134.344 258.888 -146.568 277.227 -157.296 296.441C-168.018 315.668 -177.306 335.73 -185.114 356.588C-189.027 367.025 -192.568 377.658 -195.722 388.643C-197.3 394.141 -198.776 399.72 -200.134 405.525C-200.81 408.442 -201.468 411.378 -202.081 414.487C-202.387 416.051 -202.688 417.622 -202.975 419.324C-203.121 420.133 -203.26 421.083 -203.4 421.971L-203.606 423.483C-203.639 423.704 -203.675 424.092 -203.708 424.391L-203.759 424.872L-203.815 425.79L-162.378 426.477L-162.348 425.908L-162.346 425.909Z" fill="#F56423" stroke="#141414" stroke-width="1.55541" stroke-linecap="round" stroke-linejoin="round"/>
<path d="M340.786 34.3115H49.1475C48.7446 34.3115 48.418 34.6377 48.418 35.0401V250.4C48.418 250.802 48.7446 251.128 49.1475 251.128H340.786C341.189 251.128 341.515 250.802 341.515 250.4V35.0401C341.515 34.6377 341.189 34.3115 340.786 34.3115Z" fill="#DCB8FF"/>
<path d="M340.781 35.0412V250.401H49.1426V35.0412H340.781ZM340.781 33.584H49.1426C48.3372 33.584 47.6836 34.2368 47.6836 35.0412V250.401C47.6836 251.205 48.3372 251.858 49.1426 251.858H340.781C341.586 251.858 342.24 251.205 342.24 250.401V35.0412C342.24 34.2368 341.586 33.584 340.781 33.584Z" fill="#252525"/>
<path d="M71.0083 233.772C66.252 233.772 62.3828 229.902 62.3828 225.143V55.333C62.3828 50.5738 66.252 46.7021 71.0083 46.7021H318.931C323.688 46.7021 327.557 50.5738 327.557 55.333V225.143C327.557 229.902 323.688 233.772 318.931 233.772H71.0083Z" fill="#212121"/>
<path d="M318.926 47.4318C323.286 47.4318 326.822 50.964 326.822 55.334V225.142C326.822 229.511 323.286 233.045 318.926 233.045H71.0034C66.644 233.045 63.1074 229.513 63.1074 225.142V55.334C63.1074 50.9654 66.644 47.4318 71.0034 47.4318H318.926ZM318.926 45.9746H71.0034C65.8444 45.9746 61.6484 50.1727 61.6484 55.334V225.142C61.6484 230.302 65.8444 234.502 71.0034 234.502H318.926C324.085 234.502 328.281 230.304 328.281 225.142V55.334C328.281 50.1727 324.085 45.9746 318.926 45.9746Z" fill="#252525"/>
<g style="mix-blend-mode:multiply" opacity="0.5">
<path d="M326.822 55.3348V225.143C326.822 229.512 323.285 233.046 318.926 233.046H107.426C198.438 193.32 238.088 114.659 255.138 47.4326H318.926C323.285 47.4326 326.822 50.9648 326.822 55.3348Z" fill="#DCB8FF"/>
</g>
<path d="M-2.32227 289.858C-2.62574 289.858 -2.89711 289.671 -3.00361 289.388C-3.11012 289.106 -3.03279 288.785 -2.80665 288.584L48.431 243.141C48.5637 243.023 48.7359 242.957 48.9154 242.957H341.019C341.197 242.957 341.369 243.023 341.503 243.141L392.741 288.584C392.967 288.785 393.046 289.104 392.939 289.388C392.831 289.671 392.56 289.858 392.257 289.858H-2.32227Z" fill="#DCB8FF"/>
<path d="M341.017 243.688L347.408 249.358L392.256 289.13H-2.32462L42.5227 249.358L48.9145 243.688H341.018M341.018 242.23H48.913C48.5556 242.23 48.2113 242.362 47.9443 242.598L41.5525 248.268L-3.29484 288.04C-3.74858 288.442 -3.90469 289.081 -3.69022 289.647C-3.47575 290.212 -2.93155 290.587 -2.32608 290.587H392.254C392.86 290.587 393.403 290.212 393.618 289.647C393.833 289.081 393.677 288.442 393.223 288.04L348.376 248.268L341.984 242.598C341.717 242.36 341.373 242.23 341.015 242.23H341.018Z" fill="#252525"/>
<path d="M168.507 285.58C168.253 285.58 168.019 285.449 167.886 285.233C167.753 285.019 167.741 284.748 167.855 284.524L188.72 243.357C188.844 243.112 189.096 242.958 189.371 242.958H200.539C200.813 242.958 201.066 243.112 201.19 243.357L222.055 284.524C222.168 284.748 222.157 285.019 222.024 285.233C221.891 285.449 221.656 285.58 221.402 285.58H168.504H168.507Z" fill="#D2FF00"/>
<path d="M200.543 243.688L221.408 284.854H168.51L189.374 243.688H200.543ZM200.543 242.23H189.374C188.824 242.23 188.321 242.539 188.073 243.029L167.208 284.196C166.979 284.647 167.001 285.185 167.267 285.616C167.532 286.048 168.002 286.31 168.51 286.31H221.408C221.914 286.31 222.385 286.048 222.651 285.616C222.916 285.185 222.938 284.647 222.709 284.196L201.844 243.029C201.596 242.539 201.093 242.23 200.543 242.23Z" fill="#252525"/>
<g style="mix-blend-mode:multiply" opacity="0.5">
<path d="M347.403 249.359H42.5156L48.9074 243.689H341.011L347.403 249.359Z" fill="#AD2A78"/>
</g>
<g style="mix-blend-mode:multiply" opacity="0.3">
<path d="M392.253 289.131H251.414L209.965 243.689H341.016L392.253 289.131Z" fill="#AD2A78"/>
</g>
<path d="M51.9392 39.8736C51.7671 39.8736 51.6008 39.8124 51.4695 39.7017L28.123 20.0561C27.9581 19.9177 27.8633 19.7137 27.8633 19.4994V15.4864C27.8633 15.0842 28.1901 14.7578 28.5928 14.7578H361.339C361.742 14.7578 362.069 15.0842 362.069 15.4864V19.4994C362.069 19.7137 361.974 19.9191 361.809 20.0561L338.462 39.7017C338.331 39.8124 338.165 39.8736 337.993 39.8736H51.9392Z" fill="#DCB8FF"/>
<path d="M361.336 15.4855V19.4985L337.989 39.1441H51.9358L28.5893 19.4985V15.4855H361.336ZM361.336 14.0283H28.5879C27.7825 14.0283 27.1289 14.6811 27.1289 15.4855V19.4985C27.1289 19.9284 27.3186 20.3364 27.6483 20.6133L50.9948 40.2589C51.2574 40.4803 51.5915 40.6013 51.9343 40.6013H337.988C338.332 40.6013 338.665 40.4803 338.927 40.2589L362.274 20.6133C362.603 20.3364 362.793 19.9284 362.793 19.4985V15.4855C362.793 14.6811 362.14 14.0283 361.334 14.0283H361.336Z" fill="#252525"/>
<g style="mix-blend-mode:multiply" opacity="0.3">
<path d="M361.335 15.4854V19.4984L337.989 39.144H257.137C258.998 31.0246 260.549 23.1078 261.821 15.4854H361.335Z" fill="#AD2A78"/>
</g>
<path d="M25.6709 20.7119C25.2682 20.7119 24.9414 20.3855 24.9414 19.9834V-52.9917C24.9414 -53.1753 25.01 -53.3517 25.1354 -53.4872L33.0664 -62.0393C33.2006 -62.185 33.3889 -62.2681 33.5873 -62.2725H33.6019C33.7944 -62.2725 33.9812 -62.1952 34.1183 -62.0597L61.9497 -34.2627H327.98L355.811 -62.0583C355.949 -62.1952 356.134 -62.271 356.328 -62.271H356.343C356.541 -62.2666 356.729 -62.1821 356.863 -62.0379L364.793 -53.4857C364.917 -53.3502 364.987 -53.1739 364.987 -52.9903V19.9848C364.987 20.387 364.66 20.7134 364.257 20.7134L25.6709 20.7119Z" fill="#DCB8FF"/>
<path d="M356.325 -61.5428L364.255 -52.9907V19.9844H25.6685V-52.9907L33.598 -61.5428L61.6438 -33.5316H328.278L356.325 -61.5428ZM356.324 -63C355.937 -63 355.567 -62.847 355.293 -62.573L327.674 -34.9888H62.2492L34.6309 -62.573C34.3566 -62.847 33.9861 -63 33.5994 -63C33.5907 -63 33.5805 -63 33.5717 -63C33.1749 -62.9927 32.7984 -62.8237 32.5285 -62.5337L24.599 -53.9816C24.3495 -53.712 24.2109 -53.3579 24.2109 -52.9922V19.983C24.2109 20.7873 24.8646 21.4401 25.6699 21.4401H364.256C365.062 21.4401 365.715 20.7873 365.715 19.983V-52.9907C365.715 -53.3579 365.577 -53.712 365.327 -53.9801L357.398 -62.5322C357.128 -62.8222 356.751 -62.9913 356.355 -62.9985C356.346 -62.9985 356.336 -62.9985 356.327 -62.9985L356.324 -63Z" fill="#252525"/>
<path d="M-20.5393 296.939C-20.8428 296.939 -21.1156 296.751 -21.2221 296.468C-21.3301 296.184 -21.2498 295.864 -21.0208 295.663L41.3094 240.925V41.4271L20.5658 20.709C20.4286 20.5721 20.3527 20.387 20.3527 20.1932V-61.5439C20.3527 -61.9461 20.6796 -62.2725 21.0822 -62.2725H33.6017C34.0043 -62.2725 34.3312 -61.9461 34.3312 -61.5439V19.8916L55.0748 40.6096C55.212 40.7466 55.2878 40.9317 55.2878 41.1255V241.255C55.2878 241.465 55.1974 241.663 55.0398 241.803L6.83684 284.125H383.09L334.887 241.803C334.729 241.663 334.639 241.465 334.639 241.255V41.1255C334.639 40.9317 334.716 40.7466 334.852 40.6096L355.595 19.8916V-61.5439C355.595 -61.9461 355.922 -62.2725 356.325 -62.2725H368.844C369.247 -62.2725 369.574 -61.9461 369.574 -61.5439V20.1932C369.574 20.387 369.496 20.5721 369.361 20.709L348.617 41.4271V240.925L410.947 295.663C411.175 295.864 411.255 296.183 411.149 296.468C411.042 296.751 410.769 296.939 410.466 296.939H-20.5393Z" fill="#D2FF00"/>
<path d="M368.842 -61.5428V20.1943L347.884 41.1265V241.256L410.462 296.212H-20.5416L42.0366 241.256V41.1265L21.0785 20.1943V-61.5428H33.5979V20.1943L54.556 41.1265V241.256L4.89993 284.854H385.022L335.366 241.256V41.1265L356.324 20.1943V-61.5428H368.843M368.843 -63H356.324C355.519 -63 354.865 -62.3472 354.865 -61.5428V19.591L334.334 40.0963C334.06 40.3702 333.907 40.7404 333.907 41.1265V241.256C333.907 241.675 334.088 242.073 334.403 242.35L381.153 283.397H8.76767L55.5175 242.35C55.8326 242.073 56.0135 241.675 56.0135 241.256V41.1265C56.0135 40.7404 55.8604 40.3688 55.5861 40.0963L35.0554 19.591V-61.5428C35.0554 -62.3472 34.4018 -63 33.5964 -63H21.077C20.2717 -63 19.618 -62.3472 19.618 -61.5428V20.1943C19.618 20.5804 19.7712 20.952 20.0455 21.2245L40.5762 41.7298V240.597L-21.5045 295.117C-21.9612 295.518 -22.1202 296.158 -21.9058 296.726C-21.6913 297.293 -21.1471 297.669 -20.5402 297.669H410.463C411.07 297.669 411.615 297.293 411.829 296.726C412.044 296.159 411.883 295.518 411.428 295.117L349.346 240.597V41.7298L369.876 21.2245C370.151 20.9505 370.304 20.5804 370.304 20.1943V-61.5428C370.304 -62.3472 369.649 -63 368.843 -63Z" fill="#252525"/>
<path d="M396.637 334.931H-6.69239C-7.09527 334.931 -7.42188 335.257 -7.42188 335.659V510.441C-7.42188 510.843 -7.09527 511.17 -6.69239 511.17H396.637C397.04 511.17 397.367 510.843 397.367 510.441V335.659C397.367 335.257 397.04 334.931 396.637 334.931Z" fill="#D2FF00"/>
<path d="M396.633 335.66V510.442H-6.69728V335.66H396.633ZM396.633 334.203H-6.69728C-7.50263 334.203 -8.15625 334.856 -8.15625 335.66V510.442C-8.15625 511.246 -7.50263 511.899 -6.69728 511.899H396.633C397.438 511.899 398.092 511.246 398.092 510.442V335.66C398.092 334.856 397.438 334.203 396.633 334.203Z" fill="#252525"/>
<g style="mix-blend-mode:multiply" opacity="0.5">
<path d="M396.627 335.659H-6.70312V355.754H396.627V335.659Z" fill="#F99300"/>
</g>
<path d="M385.771 334.931H4.15917C3.75629 334.931 3.42969 335.257 3.42969 335.659V510.441C3.42969 510.843 3.75629 511.17 4.15917 511.17H385.771C386.174 511.17 386.5 510.843 386.5 510.441V335.659C386.5 335.257 386.174 334.931 385.771 334.931Z" fill="#212121"/>
<path d="M385.766 335.66V510.442H4.15428V335.66H385.766ZM385.766 334.203H4.15428C3.34893 334.203 2.69531 334.856 2.69531 335.66V510.442C2.69531 511.246 3.34893 511.899 4.15428 511.899H385.766C386.571 511.899 387.225 511.246 387.225 510.442V335.66C387.225 334.856 386.571 334.203 385.766 334.203Z" fill="#252525"/>
<g style="mix-blend-mode:multiply" opacity="0.5">
<path d="M385.768 335.659H4.15625V355.754H385.768V335.659Z" fill="#DCB8FF"/>
</g>
<g style="mix-blend-mode:multiply" opacity="0.5">
<path d="M385.773 335.659V510.441H204.43C242.249 438.722 245.832 369.667 244.732 335.659H385.773Z" fill="#DCB8FF"/>
</g>
<path d="M-9.44503 346.967C-9.84771 346.967 -10.1745 346.641 -10.1745 346.239V332.859L-21.0526 322.01C-21.1898 321.873 -21.2656 321.688 -21.2656 321.494V296.208C-21.2656 295.806 -20.9388 295.479 -20.5361 295.479H410.469C410.872 295.479 411.198 295.806 411.198 296.208V321.494C411.198 321.688 411.121 321.873 410.985 322.01L400.107 332.859V346.239C400.107 346.641 399.781 346.967 399.378 346.967H-9.44503Z" fill="#D2FF00"/>
<path d="M410.463 296.21V321.495L399.371 332.558V346.239H-9.44992V332.558L-20.541 321.495V296.21H410.463ZM410.463 294.753H-20.541C-21.3464 294.753 -22 295.406 -22 296.21V321.495C-22 321.881 -21.8453 322.253 -21.5725 322.527L-10.9089 333.163V346.239C-10.9089 347.044 -10.2553 347.696 -9.44992 347.696H399.371C400.177 347.696 400.83 347.044 400.83 346.239V333.163L411.494 322.527C411.768 322.253 411.922 321.883 411.922 321.495V296.21C411.922 295.406 411.268 294.753 410.463 294.753Z" fill="#252525"/>
<g style="mix-blend-mode:multiply" opacity="0.5">
<path d="M410.462 309.736V321.496L399.371 332.559V346.24H244.896C244.912 325.959 243.051 313.749 243.051 313.749L410.463 309.736H410.462Z" fill="#F99300"/>
</g>
<path d="M410.469 295.48H-20.5361C-20.939 295.48 -21.2656 295.807 -21.2656 296.209V321.495C-21.2656 321.898 -20.939 322.224 -20.5361 322.224H410.469C410.872 322.224 411.198 321.898 411.198 321.495V296.209C411.198 295.807 410.872 295.48 410.469 295.48Z" fill="#DCB8FF"/>
<path d="M410.463 296.21V321.495H-20.541V296.21H410.463ZM410.463 294.753H-20.541C-21.3464 294.753 -22 295.406 -22 296.21V321.495C-22 322.299 -21.3464 322.952 -20.541 322.952H410.463C411.268 322.952 411.922 322.299 411.922 321.495V296.21C411.922 295.406 411.268 294.753 410.463 294.753Z" fill="#252525"/>
<g style="mix-blend-mode:multiply" opacity="0.3">
<path d="M410.463 296.212H257.137V321.497H410.463V296.212Z" fill="#AD2A78"/>
</g>
<path d="M42.667 16.2145C42.2643 16.2145 41.9375 15.8881 41.9375 15.4859V-45.7589C41.9375 -51.7567 46.8236 -56.6367 52.8273 -56.6367H337.112C343.117 -56.6367 348.004 -51.7567 348.004 -45.7589V15.4859C348.004 15.8881 347.677 16.2145 347.274 16.2145H42.667Z" fill="#DCB8FF"/>
<path d="M337.11 -55.909C342.725 -55.909 347.27 -51.3539 347.27 -45.7613V15.485H42.6645V-45.7613C42.6645 -51.3539 47.2092 -55.909 52.8248 -55.909H337.11ZM337.11 -57.3662H52.8263C46.4185 -57.3662 41.207 -52.1597 41.207 -45.7613V15.485C41.207 16.2894 41.8607 16.9422 42.666 16.9422H347.273C348.078 16.9422 348.732 16.2894 348.732 15.485V-45.7613C348.732 -52.1612 343.519 -57.3662 337.113 -57.3662H337.11Z" fill="#252525"/>
<path d="M347.269 -2.87793H85.7881C85.3852 -2.87793 85.0586 -2.55173 85.0586 -2.14934V5.08551C85.0586 5.4879 85.3852 5.81409 85.7881 5.81409H347.269C347.672 5.81409 347.999 5.4879 347.999 5.08551V-2.14934C347.999 -2.55173 347.672 -2.87793 347.269 -2.87793Z" fill="#212121"/>
<path d="M347.264 -2.1483V5.08801H85.7832V-2.1483H347.264ZM347.264 -3.60547H85.7832C84.9778 -3.60547 84.3242 -2.95266 84.3242 -2.1483V5.08801C84.3242 5.89237 84.9778 6.54518 85.7832 6.54518H347.264C348.07 6.54518 348.723 5.89237 348.723 5.08801V-2.1483C348.723 -2.95266 348.07 -3.60547 347.264 -3.60547Z" fill="#252525"/>
<path d="M85.277 16.2121C84.9823 16.2121 84.7153 16.0343 84.603 15.7618C84.4892 15.4893 84.5519 15.176 84.7605 14.9676L139.63 -39.8322C139.767 -39.9691 139.952 -40.0449 140.146 -40.0449C140.34 -40.0449 140.525 -39.9677 140.663 -39.8322L176.075 -4.44916L197.555 -25.9045C197.692 -26.0415 197.878 -26.1173 198.072 -26.1173C198.266 -26.1173 198.451 -26.0401 198.588 -25.9045L239.495 14.9676C239.705 15.176 239.766 15.4893 239.652 15.7618C239.538 16.0343 239.273 16.2121 238.978 16.2121H85.277Z" fill="#212121"/>
<path d="M140.141 -39.3172L176.068 -3.41838L176.797 -4.14697L198.065 -25.3881L238.972 15.484H85.2718L132.135 -31.3217L140.139 -39.3172M140.139 -40.7744C139.753 -40.7744 139.381 -40.6214 139.108 -40.3475L131.104 -32.352L84.2403 14.4538C83.823 14.8706 83.6975 15.4971 83.9237 16.0421C84.1498 16.5871 84.6809 16.9412 85.2718 16.9412H238.972C239.561 16.9412 240.093 16.5857 240.32 16.0421C240.546 15.4971 240.42 14.8706 240.003 14.4538L199.096 -26.4184C198.822 -26.6923 198.451 -26.8453 198.065 -26.8453C197.678 -26.8453 197.306 -26.6923 197.033 -26.4184L176.068 -5.47882L141.172 -40.346C140.898 -40.62 140.527 -40.773 140.141 -40.773L140.139 -40.7744Z" fill="#252525"/>
<g style="mix-blend-mode:multiply" opacity="0.5">
<path d="M185.008 15.4844H179.004L132.141 -31.3214L140.145 -39.3154L176.073 -3.41803L176.801 -4.14516L185.008 15.4844Z" fill="#DCB8FF"/>
</g>
<g style="mix-blend-mode:multiply" opacity="0.3">
<path d="M347.267 -45.7624V15.4839H261.824C266.944 -15.0686 267.718 -40.8663 267.58 -55.9102H337.107C342.723 -55.9102 347.267 -51.355 347.267 -45.7624Z" fill="#AD2A78"/>
</g>
<g style="mix-blend-mode:multiply" opacity="0.5">
<path d="M33.6015 20.1952L54.5581 41.1274V240.684H42.0402V41.1274L21.082 20.1952V19.9795H33.6015V20.1952Z" fill="#F99300"/>
</g>
<g style="mix-blend-mode:multiply" opacity="0.5">
<path d="M368.847 19.9795V20.1952L347.889 41.1274V240.684H335.371V41.1274L356.328 20.1952V19.9795H368.847Z" fill="#F99300"/>
</g>
<path d="M42.667 16.213C42.2643 16.213 41.9375 15.8866 41.9375 15.4844V-1.48143C41.9375 -1.67523 42.0148 -1.86029 42.1505 -1.99727L89.4183 -49.2052C89.5613 -49.348 89.748 -49.418 89.9348 -49.418C90.1215 -49.418 90.3083 -49.3466 90.4512 -49.2052L139.902 0.18412L167.308 -27.1888C167.451 -27.3316 167.638 -27.4016 167.825 -27.4016C168.012 -27.4016 168.198 -27.3302 168.341 -27.1888L210.552 14.9686C210.761 15.1769 210.824 15.4902 210.71 15.7627C210.596 16.0352 210.331 16.213 210.036 16.213H42.667Z" fill="#D2FF00"/>
<path d="M89.9299 -48.6888L139.897 1.21635L167.82 -26.6724L210.03 15.485H42.6621V-1.48087L69.5758 -28.3628L89.9284 -48.6903M89.9284 -50.1475C89.5549 -50.1475 89.1814 -50.0047 88.8969 -49.7205L68.5443 -29.393L41.6306 -2.51109C41.3563 -2.23714 41.2031 -1.86703 41.2031 -1.48087V15.485C41.2031 16.2893 41.8567 16.9421 42.6621 16.9421H210.028C210.617 16.9421 211.15 16.5866 211.376 16.0431C211.602 15.4995 211.477 14.8715 211.06 14.4547L168.85 -27.7027C168.576 -27.9766 168.205 -28.1296 167.819 -28.1296C167.432 -28.1296 167.06 -27.9766 166.787 -27.7027L139.897 -0.844091L90.9614 -49.7191C90.6769 -50.0032 90.3034 -50.146 89.9299 -50.146L89.9284 -50.1475Z" fill="#252525"/>
<g style="mix-blend-mode:multiply" opacity="0.5">
<path d="M139.896 1.21526L125.61 15.4853H113.479L69.5781 -28.3609L89.9308 -48.6885L139.896 1.21526Z" fill="#F99300"/>
</g>
<g style="mix-blend-mode:multiply" opacity="0.5">
<path d="M210.025 15.4846H183.654L154.629 -13.5044L167.815 -26.6729L210.025 15.4846Z" fill="#F99300"/>
</g>
<g style="mix-blend-mode:multiply" opacity="0.5">
<path d="M238.973 15.4845H223.459L190.309 -17.6399L198.066 -25.3877L238.973 15.4845Z" fill="#DCB8FF"/>
</g>
<path d="M0.288792 302.221H-6.69239C-7.09527 302.221 -7.42188 302.547 -7.42188 302.949V314.57C-7.42188 314.973 -7.09527 315.299 -6.69239 315.299H0.288792C0.691676 315.299 1.01828 314.973 1.01828 314.57V302.949C1.01828 302.547 0.691676 302.221 0.288792 302.221Z" fill="#DCB8FF"/>
<path d="M0.283903 302.95V314.571H-6.69728V302.95H0.283903ZM0.283903 301.493H-6.69728C-7.50263 301.493 -8.15625 302.146 -8.15625 302.95V314.571C-8.15625 315.376 -7.50263 316.028 -6.69728 316.028H0.283903C1.08926 316.028 1.74287 315.376 1.74287 314.571V302.95C1.74287 302.146 1.08926 301.493 0.283903 301.493Z" fill="#252525"/>
<path d="M15.406 302.221H8.4248C8.02191 302.221 7.69531 302.547 7.69531 302.949V314.57C7.69531 314.973 8.02191 315.299 8.4248 315.299H15.406C15.8089 315.299 16.1355 314.973 16.1355 314.57V302.949C16.1355 302.547 15.8089 302.221 15.406 302.221Z" fill="#D2FF00"/>
<path d="M15.4011 302.95V314.571H8.41991V302.95H15.4011ZM15.4011 301.493H8.41991C7.61456 301.493 6.96094 302.146 6.96094 302.95V314.571C6.96094 315.376 7.61456 316.028 8.41991 316.028H15.4011C16.2064 316.028 16.8601 315.376 16.8601 314.571V302.95C16.8601 302.146 16.2064 301.493 15.4011 301.493Z" fill="#252525"/>
<path d="M117.493 277.559C115.724 277.559 114.029 277.419 112.453 277.146C106.613 276.175 102.836 273.634 102.836 270.673C102.836 266.817 109.274 263.798 117.493 263.798C118.127 263.798 118.742 263.821 119.338 263.856C126.76 264.269 132.15 267.135 132.15 270.673C132.15 274.534 125.711 277.559 117.493 277.559Z" fill="#D2FF00"/>
<path d="M117.488 264.527C118.106 264.527 118.708 264.55 119.291 264.584C126.131 264.964 131.415 267.542 131.415 270.672C131.415 274.067 125.177 276.83 117.488 276.83C115.756 276.83 114.094 276.691 112.574 276.428C107.307 275.553 103.561 273.308 103.561 270.672C103.561 267.277 109.799 264.526 117.488 264.526M117.488 263.068C108.717 263.068 102.102 266.337 102.102 270.672C102.102 274.06 106.023 276.817 112.335 277.864C113.941 278.144 115.679 278.287 117.488 278.287C126.259 278.287 132.874 275.013 132.874 270.672C132.874 266.672 127.321 263.57 119.371 263.128C118.696 263.089 118.077 263.068 117.488 263.068Z" fill="#252525"/>
<g style="mix-blend-mode:multiply" opacity="0.5">
<path d="M131.419 270.674C131.419 274.069 125.18 276.832 117.491 276.832C115.76 276.832 114.098 276.694 112.578 276.43C108.901 275.232 106.516 273.3 106.516 271.124C106.516 267.809 112.066 265.046 119.295 264.586C126.134 264.966 131.419 267.544 131.419 270.674Z" fill="#F99300"/>
</g>
<path d="M117.494 274.233C111.566 274.233 107.098 272.088 107.098 269.245V265.481C107.098 265.079 107.424 264.752 107.827 264.752H112.85C114.285 264.42 115.889 264.245 117.494 264.245C118.424 264.245 119.346 264.302 120.236 264.413C120.907 264.503 121.539 264.617 122.137 264.751H127.163C127.566 264.751 127.892 265.077 127.892 265.479V269.739C127.892 269.94 127.811 270.125 127.675 270.256C126.922 272.133 124.119 273.577 120.237 274.064C119.334 274.174 118.413 274.23 117.496 274.23L117.494 274.233Z" fill="#DCB8FF"/>
<path d="M117.491 264.974C118.41 264.974 119.312 265.033 120.142 265.136C120.813 265.228 121.449 265.343 122.052 265.481H127.159V269.741L127.07 269.764C126.593 271.479 123.818 272.884 120.142 273.344C119.294 273.448 118.41 273.506 117.491 273.506C112.152 273.506 107.822 271.596 107.822 269.247V265.483H112.93C114.291 265.161 115.847 264.974 117.491 264.974ZM117.491 263.519C115.858 263.519 114.229 263.693 112.764 264.026H107.822C107.017 264.026 106.363 264.678 106.363 265.483V269.247C106.363 272.505 111.147 274.963 117.491 274.963C118.435 274.963 119.386 274.905 120.32 274.791C124.386 274.283 127.365 272.721 128.295 270.659C128.499 270.407 128.618 270.086 128.618 269.742V265.483C128.618 264.678 127.965 264.026 127.159 264.026H122.214C121.623 263.895 120.994 263.784 120.34 263.693C119.404 263.577 118.451 263.519 117.491 263.519Z" fill="#252525"/>
<g style="mix-blend-mode:multiply" opacity="0.5">
<path d="M127.158 265.482V269.741L127.069 269.764C126.592 271.479 123.817 272.884 120.141 273.344V265.138C120.812 265.229 121.448 265.345 122.049 265.483H127.157L127.158 265.482Z" fill="#DCB8FF"/>
</g>
<path d="M117.493 270.473C111.566 270.473 107.098 268.325 107.098 265.477C107.098 262.628 111.566 260.479 117.493 260.479C123.419 260.479 127.888 262.628 127.888 265.477C127.888 268.325 123.419 270.473 117.493 270.473Z" fill="#212121"/>
<path d="M117.488 261.209C122.826 261.209 127.154 263.119 127.154 265.477C127.154 267.835 122.826 269.745 117.488 269.745C112.15 269.745 107.822 267.835 107.822 265.477C107.822 263.119 112.15 261.209 117.488 261.209ZM117.488 259.752C111.96 259.752 106.363 261.719 106.363 265.477C106.363 269.235 111.96 271.202 117.488 271.202C123.016 271.202 128.613 269.235 128.613 265.477C128.613 261.719 123.016 259.752 117.488 259.752Z" fill="#252525"/>
<g style="mix-blend-mode:multiply" opacity="0.3">
<path d="M123.067 262.042C123.071 262.097 123.086 262.15 123.086 262.205C123.086 264.933 118.108 267.145 111.965 267.145C110.639 267.145 109.374 267.037 108.195 266.848C109.491 268.531 113.092 269.743 117.342 269.743C122.68 269.743 127.007 267.833 127.007 265.475C127.007 264.066 125.452 262.819 123.067 262.042Z" fill="#DCB8FF"/>
</g>
<path d="M147.399 265.701C145.632 265.701 143.935 265.562 142.36 265.288C136.519 264.32 132.742 261.779 132.742 258.816C132.742 254.961 139.181 251.941 147.399 251.941C148.032 251.941 148.646 251.965 149.245 252C156.666 252.412 162.056 255.278 162.056 258.816C162.056 262.676 155.617 265.701 147.399 265.701Z" fill="#D2FF00"/>
<path d="M147.394 252.669C148.013 252.669 148.614 252.692 149.197 252.727C156.037 253.108 161.321 255.685 161.321 258.815C161.321 262.211 155.083 264.973 147.394 264.973C145.662 264.973 144.001 264.835 142.48 264.571C137.213 263.697 133.467 261.451 133.467 258.815C133.467 255.42 139.705 252.669 147.394 252.669ZM147.394 251.212C138.623 251.212 132.008 254.48 132.008 258.815C132.008 262.203 135.93 264.96 142.241 266.008C143.847 266.288 145.585 266.431 147.394 266.431C156.165 266.431 162.78 263.156 162.78 258.815C162.78 254.816 157.228 251.713 149.278 251.272C148.602 251.231 147.984 251.212 147.394 251.212Z" fill="#252525"/>
<g style="mix-blend-mode:multiply" opacity="0.5">
<path d="M161.325 258.816C161.325 262.211 155.087 264.974 147.398 264.974C145.666 264.974 144.004 264.835 142.484 264.571C138.807 263.374 136.422 261.44 136.422 259.266C136.422 255.951 141.972 253.188 149.201 252.728C156.041 253.108 161.325 255.686 161.325 258.816Z" fill="#F99300"/>
</g>
<path d="M147.394 262.376C141.466 262.376 136.996 260.231 136.996 257.388V253.624C136.996 253.222 137.323 252.896 137.726 252.896H142.749C144.184 252.564 145.788 252.389 147.394 252.389C148.318 252.389 149.24 252.444 150.134 252.555C150.808 252.647 151.44 252.76 152.037 252.894H157.063C157.465 252.894 157.792 253.221 157.792 253.623V257.882C157.792 258.083 157.711 258.268 157.575 258.4C156.822 260.276 154.019 261.72 150.137 262.207C149.221 262.318 148.3 262.373 147.396 262.373L147.394 262.376Z" fill="#DCB8FF"/>
<path d="M147.389 253.118C148.308 253.118 149.21 253.175 150.04 253.28C150.711 253.371 151.349 253.486 151.95 253.625H157.058V257.884L156.969 257.908C156.492 259.623 153.717 261.027 150.04 261.488C149.193 261.591 148.308 261.648 147.389 261.648C142.051 261.648 137.721 259.738 137.721 257.389V253.625H142.829C144.19 253.303 145.745 253.118 147.389 253.118ZM147.389 251.661C145.757 251.661 144.127 251.835 142.662 252.168H137.721C136.915 252.168 136.262 252.821 136.262 253.625V257.389C136.262 260.647 141.046 263.105 147.389 263.105C148.333 263.105 149.284 263.047 150.217 262.933C154.283 262.425 157.262 260.863 158.192 258.799C158.396 258.547 158.515 258.227 158.515 257.883V253.623C158.515 252.819 157.862 252.166 157.056 252.166H152.111C151.52 252.035 150.891 251.924 150.237 251.834C149.302 251.717 148.349 251.659 147.388 251.659L147.389 251.661Z" fill="#252525"/>
<g style="mix-blend-mode:multiply" opacity="0.5">
<path d="M157.061 253.623V257.882L156.972 257.906C156.495 259.621 153.72 261.026 150.043 261.486V253.279C150.714 253.371 151.352 253.486 151.951 253.625H157.059L157.061 253.623Z" fill="#DCB8FF"/>
</g>
<path d="M147.399 258.615C141.473 258.615 137.004 256.467 137.004 253.618C137.004 250.769 141.473 248.62 147.399 248.62C153.325 248.62 157.794 250.769 157.794 253.618C157.794 256.467 153.325 258.615 147.399 258.615Z" fill="#212121"/>
<path d="M147.394 249.351C152.733 249.351 157.06 251.261 157.06 253.619C157.06 255.976 152.733 257.887 147.394 257.887C142.056 257.887 137.729 255.975 137.729 253.619C137.729 251.263 142.056 249.351 147.394 249.351ZM147.394 247.894C141.866 247.894 136.27 249.861 136.27 253.619C136.27 257.377 141.866 259.344 147.394 259.344C152.922 259.344 158.519 257.377 158.519 253.619C158.519 249.861 152.922 247.894 147.394 247.894Z" fill="#252525"/>
<g style="mix-blend-mode:multiply" opacity="0.3">
<path d="M152.977 250.186C152.981 250.241 152.996 250.293 152.996 250.349C152.996 253.077 148.018 255.289 141.875 255.289C140.549 255.289 139.284 255.181 138.105 254.991C139.401 256.674 143.002 257.887 147.252 257.887C152.59 257.887 156.917 255.975 156.917 253.619C156.917 252.21 155.364 250.962 152.977 250.186Z" fill="#DCB8FF"/>
</g>
<path d="M289.354 277.559C287.585 277.559 285.89 277.419 284.314 277.146C278.473 276.175 274.695 273.634 274.695 270.673C274.695 266.817 281.134 263.798 289.354 263.798C289.987 263.798 290.6 263.821 291.199 263.856C298.622 264.269 304.01 267.135 304.01 270.673C304.01 274.534 297.572 277.559 289.354 277.559Z" fill="#D2FF00"/>
<path d="M289.351 264.527C289.97 264.527 290.571 264.55 291.154 264.584C297.994 264.964 303.279 267.542 303.279 270.672C303.279 274.067 297.04 276.83 289.351 276.83C287.619 276.83 285.958 276.691 284.437 276.428C279.17 275.553 275.424 273.308 275.424 270.672C275.424 267.277 281.662 264.526 289.351 264.526M289.351 263.068C280.58 263.068 273.965 266.337 273.965 270.672C273.965 274.06 277.887 276.817 284.198 277.864C285.804 278.144 287.542 278.287 289.351 278.287C298.123 278.287 304.737 275.013 304.737 270.672C304.737 266.672 299.185 263.57 291.235 263.128C290.559 263.089 289.941 263.068 289.351 263.068Z" fill="#252525"/>
<g style="mix-blend-mode:multiply" opacity="0.5">
<path d="M303.282 270.674C303.282 274.069 297.044 276.832 289.355 276.832C287.623 276.832 285.961 276.694 284.441 276.43C280.764 275.232 278.379 273.3 278.379 271.124C278.379 267.809 283.929 265.046 291.158 264.586C297.998 264.966 303.282 267.544 303.282 270.674Z" fill="#F99300"/>
</g>
<path d="M289.355 274.233C283.427 274.233 278.957 272.088 278.957 269.245V265.481C278.957 265.079 279.284 264.752 279.687 264.752H284.71C286.144 264.42 287.749 264.245 289.355 264.245C290.283 264.245 291.205 264.302 292.097 264.413C292.768 264.503 293.399 264.617 293.998 264.751H299.022C299.425 264.751 299.752 265.077 299.752 265.479V269.739C299.752 269.94 299.67 270.125 299.536 270.256C298.782 272.133 295.979 273.577 292.097 274.064C291.195 274.174 290.273 274.23 289.355 274.23V274.233Z" fill="#DCB8FF"/>
<path d="M289.354 264.976C290.273 264.976 291.175 265.034 292.005 265.137C292.676 265.229 293.314 265.344 293.915 265.483H299.023V269.742L298.934 269.765C298.457 271.481 295.682 272.885 292.005 273.346C291.157 273.449 290.273 273.507 289.354 273.507C284.016 273.507 279.686 271.597 279.686 269.248V265.484H284.793C286.155 265.162 287.71 264.976 289.354 264.976ZM289.354 263.52C287.722 263.52 286.092 263.695 284.627 264.027H279.686C278.88 264.027 278.227 264.68 278.227 265.484V269.248C278.227 272.506 283.011 274.965 289.354 274.965C290.298 274.965 291.249 274.906 292.182 274.793C296.248 274.284 299.228 272.722 300.156 270.659C300.361 270.407 300.48 270.086 300.48 269.742V265.483C300.48 264.678 299.827 264.026 299.021 264.026H294.075C293.484 263.894 292.856 263.784 292.202 263.693C291.267 263.577 290.314 263.519 289.353 263.519L289.354 263.52Z" fill="#252525"/>
<g style="mix-blend-mode:multiply" opacity="0.5">
<path d="M299.022 265.482V269.741L298.933 269.764C298.455 271.479 295.681 272.884 292.004 273.344V265.138C292.675 265.229 293.313 265.345 293.912 265.483H299.02L299.022 265.482Z" fill="#DCB8FF"/>
</g>
<path d="M289.358 270.473C283.431 270.473 278.961 268.325 278.961 265.477C278.961 262.628 283.43 260.479 289.358 260.479C295.285 260.479 299.753 262.628 299.753 265.477C299.753 268.325 295.284 270.473 289.358 270.473Z" fill="#212121"/>
<path d="M289.355 261.209C294.694 261.209 299.021 263.119 299.021 265.477C299.021 267.835 294.694 269.745 289.355 269.745C284.017 269.745 279.689 267.835 279.689 265.477C279.689 263.119 284.017 261.209 289.355 261.209ZM289.355 259.752C283.827 259.752 278.23 261.719 278.23 265.477C278.23 269.235 283.827 271.202 289.355 271.202C294.883 271.202 300.48 269.235 300.48 265.477C300.48 261.719 294.883 259.752 289.355 259.752Z" fill="#252525"/>
<g style="mix-blend-mode:multiply" opacity="0.3">
<path d="M294.934 262.042C294.938 262.097 294.953 262.15 294.953 262.205C294.953 264.933 289.975 267.145 283.832 267.145C282.506 267.145 281.241 267.037 280.062 266.848C281.358 268.531 284.959 269.743 289.209 269.743C294.547 269.743 298.874 267.833 298.874 265.475C298.874 264.066 297.321 262.819 294.934 262.042Z" fill="#DCB8FF"/>
</g>
<path d="M319.266 265.701C317.499 265.701 315.804 265.562 314.228 265.288C308.388 264.32 304.609 261.779 304.609 258.816C304.609 254.961 311.048 251.941 319.266 251.941C319.901 251.941 320.514 251.965 321.113 252C328.537 252.412 333.924 255.278 333.924 258.816C333.924 262.676 327.486 265.701 319.266 265.701Z" fill="#D2FF00"/>
<path d="M319.265 252.669C319.884 252.669 320.485 252.692 321.069 252.727C327.908 253.108 333.193 255.685 333.193 258.815C333.193 262.211 326.954 264.973 319.265 264.973C317.533 264.973 315.872 264.835 314.351 264.571C309.085 263.697 305.338 261.451 305.338 258.815C305.338 255.42 311.576 252.669 319.265 252.669ZM319.265 251.212C310.494 251.212 303.879 254.48 303.879 258.815C303.879 262.203 307.801 264.96 314.112 266.008C315.718 266.288 317.456 266.431 319.265 266.431C328.037 266.431 334.652 263.156 334.652 258.815C334.652 254.816 329.099 251.713 321.149 251.272C320.473 251.231 319.855 251.212 319.265 251.212Z" fill="#252525"/>
<g style="mix-blend-mode:multiply" opacity="0.5">
<path d="M333.188 258.816C333.188 262.211 326.95 264.974 319.261 264.974C317.529 264.974 315.867 264.835 314.347 264.571C310.671 263.374 308.285 261.44 308.285 259.266C308.285 255.951 313.835 253.188 321.064 252.728C327.904 253.108 333.188 255.686 333.188 258.816Z" fill="#F99300"/>
</g>
<path d="M319.268 262.376C313.341 262.376 308.871 260.231 308.871 257.388V253.624C308.871 253.222 309.198 252.896 309.601 252.896H314.624C316.058 252.564 317.663 252.389 319.268 252.389C320.193 252.389 321.115 252.444 322.009 252.555C322.682 252.647 323.313 252.76 323.912 252.894H328.936C329.339 252.894 329.666 253.221 329.666 253.623V257.882C329.666 258.083 329.584 258.268 329.45 258.4C328.696 260.276 325.893 261.72 322.011 262.207C321.096 262.318 320.174 262.373 319.268 262.373V262.376Z" fill="#DCB8FF"/>
<path d="M319.266 253.118C320.185 253.118 321.087 253.175 321.917 253.28C322.588 253.371 323.225 253.486 323.825 253.625H328.933V257.884L328.844 257.908C328.367 259.623 325.592 261.027 321.915 261.488C321.068 261.591 320.183 261.648 319.264 261.648C313.926 261.648 309.596 259.738 309.596 257.389V253.625H314.704C316.065 253.303 317.621 253.118 319.266 253.118ZM319.264 251.661C317.632 251.661 316.002 251.835 314.537 252.168H309.596C308.79 252.168 308.137 252.821 308.137 253.625V257.389C308.137 260.647 312.921 263.105 319.264 263.105C320.208 263.105 321.16 263.047 322.092 262.933C326.158 262.425 329.137 260.863 330.067 258.799C330.271 258.547 330.39 258.227 330.39 257.883V253.623C330.39 252.819 329.737 252.166 328.931 252.166H323.986C323.395 252.035 322.766 251.924 322.112 251.834C321.177 251.717 320.224 251.659 319.263 251.659L319.264 251.661Z" fill="#252525"/>
<g style="mix-blend-mode:multiply" opacity="0.5">
<path d="M328.936 253.623V257.882L328.847 257.906C328.37 259.621 325.595 261.026 321.918 261.486V253.279C322.589 253.371 323.227 253.486 323.826 253.625H328.934L328.936 253.623Z" fill="#DCB8FF"/>
</g>
<path d="M319.27 258.615C313.344 258.615 308.875 256.467 308.875 253.618C308.875 250.769 313.344 248.62 319.27 248.62C325.197 248.62 329.667 250.769 329.667 253.618C329.667 256.467 325.198 258.615 319.27 258.615Z" fill="#212121"/>
<path d="M319.269 249.351C324.608 249.351 328.935 251.261 328.935 253.619C328.935 255.976 324.608 257.887 319.269 257.887C313.931 257.887 309.604 255.975 309.604 253.619C309.604 251.263 313.931 249.351 319.269 249.351ZM319.269 247.894C313.741 247.894 308.145 249.861 308.145 253.619C308.145 257.377 313.741 259.344 319.269 259.344C324.797 259.344 330.394 257.377 330.394 253.619C330.394 249.861 324.797 247.894 319.269 247.894Z" fill="#252525"/>
<g style="mix-blend-mode:multiply" opacity="0.3">
<path d="M324.844 250.186C324.848 250.241 324.863 250.293 324.863 250.349C324.863 253.077 319.885 255.289 313.743 255.289C312.416 255.289 311.152 255.181 309.973 254.991C311.268 256.674 314.869 257.887 319.119 257.887C324.457 257.887 328.785 255.975 328.785 253.619C328.785 252.21 327.231 250.962 324.844 250.186Z" fill="#DCB8FF"/>
</g>
<path d="M397.996 161.287C396.107 157.181 392.946 154.493 390.157 152.121C389.78 151.8 389.403 151.48 389.033 151.158C388.313 150.532 387.484 149.775 386.785 148.959C386.776 146.597 385.742 144.258 383.774 142.693C382.641 141.792 381.285 141.213 379.851 141.021C377.067 140.646 374.251 141.779 372.503 143.977C365.357 152.962 362.344 165.422 360.517 175.274C360.241 176.761 359.999 178.179 359.765 179.55C359.61 180.459 359.457 181.357 359.298 182.248C356.731 180.706 354.118 179.75 351.504 179.399C351.174 179.354 350.84 179.319 350.51 179.294C345.488 178.914 340.598 180.961 337.748 184.635C333.717 189.833 334.174 197.739 338.814 203.027C341.777 206.404 346.333 208.657 351.642 209.372C356.35 210.005 360.941 209.317 364.568 207.434C367.307 206.012 368.832 204.176 369.677 202.511C370.208 201.871 370.638 201.148 370.952 200.359C373.635 193.629 374.623 187.844 375.582 182.231C375.806 180.917 376.038 179.56 376.29 178.199C376.536 176.874 376.812 175.451 377.13 173.97C379.964 176.428 383.206 178.353 385.916 179.962C386.927 180.563 387.882 181.13 388.639 181.622C389.415 182.127 390.268 182.434 391.135 182.55C393.151 182.821 395.243 182.067 396.617 180.407C400.911 175.224 400.56 166.864 397.996 161.287Z" fill="white" stroke="black" stroke-width="1.55541" stroke-linecap="round" stroke-linejoin="round"/>
<path d="M392.484 163.82C390.941 160.465 387.838 158.156 385.052 155.734C383.327 154.234 381.65 152.572 380.515 150.568C380.462 150.474 380.401 150.328 380.333 150.154C380.977 149.31 380.831 148.102 379.996 147.438C379.151 146.765 377.92 146.905 377.247 147.751C370.935 155.687 368.176 167.219 366.478 176.379C366.212 177.816 365.972 179.216 365.741 180.57C365.005 184.882 364.301 189.002 362.839 193.472C361.368 191.455 359.303 189.625 357.753 188.495C355.481 186.841 352.853 185.552 350.051 185.34C347.248 185.128 344.261 186.13 342.539 188.351C340.167 191.408 340.818 196.117 343.37 199.025C347.399 203.616 356.402 204.838 361.772 202.05C363.392 201.209 364.243 200.172 364.546 199.04C364.883 198.827 365.158 198.51 365.317 198.112C367.763 191.977 368.654 186.756 369.599 181.228C369.827 179.888 370.064 178.502 370.326 177.091C371.428 171.147 372.987 164.17 375.699 158.031C375.765 160.024 376.147 162.005 376.87 163.869C379.159 169.767 387.453 173.615 391.945 176.537C394.528 173.418 394.176 167.498 392.484 163.819L392.484 163.82Z" fill="#FF5B23" stroke="black" stroke-width="1.55541" stroke-linecap="round" stroke-linejoin="round"/>
</g>
</svg>
