<svg width="44" height="44" viewBox="0 0 44 44" fill="none" xmlns="http://www.w3.org/2000/svg">
<path d="M21.9992 43.9984C34.149 43.9984 43.9984 34.149 43.9984 21.9992C43.9984 9.84938 34.149 0 21.9992 0C9.84939 0 0 9.84938 0 21.9992C0 34.149 9.84939 43.9984 21.9992 43.9984Z" fill="#FF5B23"/>
<path d="M40.2084 34.348C42.3513 30.9537 43.5911 26.9321 43.5911 22.6212C43.5911 10.4714 33.7417 0.621953 21.5919 0.621953C14.0198 0.621953 7.34063 4.44805 3.38281 10.2724C7.27953 4.09973 14.1604 0 21.9993 0C34.1491 0 43.9985 9.8494 43.9985 21.9992C43.9985 26.5769 42.6005 30.8274 40.2084 34.348Z" fill="#FFD1C1"/>
<path d="M34.8379 9.1679C35.2066 9.53666 35.5576 9.91832 35.8898 10.312C32.6221 7.5513 28.5263 6.04714 24.1985 6.04714C19.3502 6.04714 14.792 7.93493 11.3635 11.3635C7.93492 14.792 6.04713 19.3502 6.04713 24.1984C6.04713 28.5262 7.55137 32.6221 10.312 35.8898C9.91832 35.5576 9.53659 35.2066 9.1679 34.8379C5.73935 31.4093 3.85109 26.8516 3.85156 22.0029C3.85109 17.1542 5.73935 12.5964 9.1679 9.1679C12.5965 5.73935 17.1542 3.85109 22.0029 3.85156C26.8516 3.85109 31.4093 5.73935 34.8379 9.1679Z" fill="#DF4E1D"/>
<path d="M34.8079 34.832C34.4391 35.2008 34.0574 35.5517 33.6638 35.884C36.4245 32.6163 37.9286 28.5204 37.9286 24.1926C37.9286 19.3443 36.0408 14.7862 32.6123 11.3576C29.1838 7.92914 24.6255 6.04128 19.7773 6.04128C15.4495 6.04128 11.3536 7.54551 8.08594 10.3061C8.41817 9.91246 8.76914 9.53073 9.1379 9.16204C12.5664 5.73349 17.1241 3.84523 21.9729 3.8457C26.8216 3.84523 31.3793 5.73349 34.8079 9.16204C38.2364 12.5906 40.1247 17.1483 40.1242 21.997C40.1247 26.8457 38.2364 31.4034 34.8079 34.832Z" fill="#DF4E1D"/>
<path d="M40.1543 21.999C40.1543 22.2068 40.151 22.4146 40.1442 22.621C39.99 18.0052 38.1201 13.6882 34.8379 10.4067C31.4097 6.97847 26.8516 5.0902 22.003 5.0902C17.1543 5.0902 12.5963 6.97847 9.16804 10.4067C5.88581 13.6882 4.01588 18.0052 3.86175 22.621C3.85496 22.4146 3.85156 22.2068 3.85156 21.999C3.85156 17.1504 5.73915 12.5923 9.16804 9.16413C12.5963 5.73524 17.1543 3.84766 22.003 3.84766C26.8516 3.84766 31.4097 5.73524 34.8379 9.16413C38.2668 12.5923 40.1543 17.1504 40.1543 21.999Z" fill="#C1471D"/>
<path d="M39.1385 27.7533C38.2674 30.4536 36.762 32.9272 34.6972 34.9913C31.269 38.4202 26.711 40.3078 21.8623 40.3078C17.0137 40.3078 12.4556 38.4202 9.02742 34.9913C5.59853 31.5631 3.71094 27.0051 3.71094 22.1564C3.71094 20.0414 4.07013 17.9813 4.7593 16.0469C4.17809 17.838 3.87661 19.729 3.87661 21.6662C3.87661 26.5148 5.76488 31.0729 9.19309 34.5011C12.6213 37.93 17.18 39.8176 22.0287 39.8176C26.8773 39.8176 31.4354 37.93 34.8636 34.5011C36.8021 32.5626 38.2484 30.2628 39.1385 27.7533Z" fill="#FFD1C1"/>
<path d="M23.996 14.1094V14.1693C25.0451 15.4141 25.8046 16.8762 26.2199 18.4503C26.8246 20.6162 27.0955 22.8621 27.0245 25.109C27.0266 25.1466 27.0266 25.1843 27.0245 25.2219C26.8831 24.5727 26.6399 23.95 26.3039 23.3768C25.9652 22.7956 25.4978 22.2998 24.9375 21.9276C24.9625 21.9915 24.9965 22.0405 24.9965 22.0955C25.2953 22.8091 25.4736 23.5674 25.5242 24.3394C25.6288 25.5728 25.2423 26.7977 24.4488 27.7477C24.4056 27.8121 24.3678 27.88 24.3358 27.9506L24.2668 27.8856C24.4657 27.0993 24.4175 26.2708 24.1289 25.5128C23.5512 27.7277 22.0619 29.0491 20.0839 29.9476C22.4867 29.9376 24.8046 29.5728 26.7776 28.0925C26.7926 28.6253 26.6297 29.0501 26.082 29.9326C27.7541 29.0941 28.4838 27.7037 28.6667 25.9226C29.1165 26.4583 29.4213 27.1 29.5543 27.7877C29.6822 28.4434 29.7462 29.114 29.8401 29.7607C30.5498 28.0146 30.5258 26.1695 30.2839 24.2514C32.4199 25.4988 33.3024 27.5158 33.9831 29.6768C34.0203 28.511 33.9759 27.344 33.8502 26.1845C33.6802 24.4873 33.2605 22.8261 32.6028 21.2519C32.0014 19.7622 31.103 18.4106 29.9623 17.2794C28.8216 16.1482 27.4626 15.2611 25.968 14.6721C25.3349 14.4083 24.673 14.2194 23.996 14.1094ZM21.2633 14.2193C20.9575 14.7411 20.6766 15.2788 20.3308 15.7576C19.9781 16.2851 19.5977 16.7935 19.1913 17.2808C19.0721 17.4133 18.9269 17.5198 18.7647 17.5937C18.6026 17.6676 18.427 17.7074 18.2488 17.7106L18.6936 15.6286C18.6339 15.6812 18.5854 15.7451 18.5506 15.8165C18.2508 16.2763 17.9589 16.7441 17.6431 17.1879C17.5662 17.3031 17.4533 17.3898 17.3221 17.4344C17.191 17.4791 17.0487 17.4792 16.9174 17.4347C16.4247 17.2908 15.9309 17.1529 15.4382 16.995C15.3832 16.9676 15.3203 16.9607 15.2606 16.9753C15.201 16.99 15.1484 17.0252 15.1123 17.0749C14.6965 17.5564 14.2554 18.0155 13.791 18.4503C12.7155 19.4028 11.5521 20.1954 10.0078 20.0875V20.1524C10.4416 21.1779 10.8714 22.2044 11.3252 23.2249C11.4719 23.5376 11.7132 23.7963 12.0148 23.9646C11.9308 23.5407 11.8697 23.1126 11.8319 22.6822C11.8079 22.1594 11.9259 22.0655 12.4486 22.0155C12.4704 22.0106 12.4929 22.0101 12.5149 22.014C12.5369 22.0178 12.5579 22.026 12.5768 22.0379C12.5956 22.0499 12.6119 22.0655 12.6248 22.0838C12.6376 22.102 12.6467 22.1227 12.6515 22.1444C12.7255 22.3314 12.8144 22.5143 12.8974 22.7022C13.0014 22.4753 13.0903 22.2624 13.1933 22.0605C13.2263 22.0005 13.2788 21.9536 13.3422 21.9276C13.5641 21.8336 13.792 21.7596 14.0278 21.6707L14.2048 22.0265C14.3577 21.6767 14.5006 21.3308 14.6645 20.99C14.7077 20.9088 14.7792 20.8464 14.8655 20.8145C14.9517 20.7826 15.0467 20.7835 15.1323 20.8171V21.059C15.0518 21.9626 15.2223 22.8708 15.6251 23.6837C15.7634 24.0186 15.8578 24.37 15.9059 24.7292C15.9459 24.8911 15.863 24.9861 15.71 24.9861L15.3102 25.03C15.4088 25.1024 15.4993 25.1852 15.5801 25.2769C15.6551 25.3709 15.759 25.5468 15.724 25.5968C15.6202 25.7189 15.4856 25.811 15.3342 25.8636C15.2316 25.8949 15.122 25.8949 15.0194 25.8636C14.7457 25.7846 14.4756 25.6939 14.2098 25.5918C14.0678 25.5292 13.9297 25.4585 13.796 25.3799L13.716 25.4738L14.4317 26.0855C14.596 26.2399 14.792 26.3566 15.0061 26.4273C15.2201 26.4981 15.4471 26.5213 15.671 26.4953C15.8006 26.4952 15.9289 26.4695 16.0485 26.4198C16.1681 26.3701 16.2768 26.2974 16.3683 26.2057C16.4598 26.114 16.5324 26.0051 16.5819 25.8854C16.6313 25.7657 16.6567 25.6374 16.6566 25.5078C16.7015 25.202 16.6616 24.8921 16.7015 24.5863C16.7103 24.211 16.7972 23.8418 16.9567 23.502C17.1163 23.1623 17.3449 22.8596 17.6281 22.6132C17.1619 22.7402 16.7412 22.9967 16.4147 23.3529C16.3547 22.9778 16.3283 22.5982 16.3357 22.2184C16.3058 21.8142 16.4359 21.4145 16.698 21.1054C16.9602 20.7963 17.3334 20.6026 17.737 20.5662C18.2822 20.4508 18.8317 20.3571 19.3842 20.2854C20.1888 20.2054 20.9825 20.0395 21.7521 19.7916C22.2655 19.616 22.7419 19.3469 23.1574 18.998C22.2123 19.2015 21.2523 19.3285 20.2868 19.3778C21.9275 18.2169 23.1256 16.5336 23.6851 14.6031C22.6296 16.0824 21.4842 17.4687 19.817 18.3023C20.4283 16.9902 20.9126 15.6237 21.2633 14.2193ZM15.4482 18.1004C15.4182 18.2533 15.3942 18.4053 15.3542 18.5542C15.2802 18.8441 15.1913 19.1309 15.1173 19.4218C15.1126 19.4708 15.0896 19.5163 15.053 19.5492C15.0163 19.5822 14.9687 19.6002 14.9194 19.5997C14.5356 19.6447 14.1558 19.7026 13.737 19.7566L15.4482 18.1004ZM19.4032 20.8041C19.21 20.8078 19.0172 20.8255 18.8265 20.8571C18.2947 20.892 17.7829 21.0729 17.3472 21.3798C17.1987 21.4802 17.0803 21.6191 17.0046 21.7816C16.9289 21.9441 16.8988 22.1241 16.9174 22.3024C16.9988 22.1098 17.1335 21.9444 17.3056 21.8256C17.4776 21.7068 17.68 21.6395 17.889 21.6317C18.4968 21.567 19.11 21.6854 19.6501 21.9715C20.1399 22.2054 20.4217 22.7312 20.3458 23.2689C20.2786 23.792 20.0366 24.277 19.6591 24.6452C19.1159 25.2053 18.4652 25.65 17.746 25.9526C16.9108 26.3113 16.1302 26.7857 15.4272 27.3619C14.6512 28.0073 14.1519 28.9255 14.0318 29.9276H19.95C19.7654 29.4563 19.7643 28.9329 19.947 28.4608C20.1296 27.9887 20.4827 27.6023 20.9365 27.3779L20.6766 28.4923C21.3278 27.7356 21.7577 26.8139 21.919 25.8286C22.0899 26.2354 22.1639 26.6762 22.1349 27.116C22.5304 26.2163 22.6821 25.2283 22.5747 24.2514L23.0924 24.8121C23.0434 24.4123 23.0025 24.0575 22.9585 23.7027C22.9108 23.1436 22.7123 22.6079 22.384 22.1529C22.0557 21.6978 21.6099 21.3405 21.0944 21.1189C20.5584 20.8984 19.9826 20.7912 19.4032 20.8041Z" fill="#F9F8F4"/>
</svg>
