<svg width="44" height="44" viewBox="0 0 44 44" fill="none" xmlns="http://www.w3.org/2000/svg">
<path d="M21.9999 44C34.1502 44 43.9999 34.1503 43.9999 22C43.9999 9.84974 34.1502 0 21.9999 0C9.84971 0 0 9.84974 0 22C0 34.1503 9.84971 44 21.9999 44Z" fill="#3A39FF"/>
<path d="M40.2096 34.3492C42.3526 30.9548 43.5925 26.933 43.5925 22.622C43.5925 10.4717 33.7427 0.621976 21.5925 0.621976C14.0202 0.621976 7.34076 4.44821 3.38281 10.2728C7.27965 4.09988 14.1608 0 21.9999 0C34.1501 0 43.9999 9.84976 43.9999 22C43.9999 26.5779 42.6018 30.8285 40.2096 34.3492Z" fill="#7070FF"/>
<path d="M34.8311 9.17005C35.1998 9.53882 35.5508 9.92049 35.8831 10.3142C32.6152 7.55339 28.5193 6.04917 24.1913 6.04917C19.3429 6.04917 14.7846 7.93703 11.3559 11.3657C7.92724 14.7944 6.03939 19.3527 6.03939 24.2011C6.03939 28.5291 7.54367 32.6251 10.3044 35.8929C9.9107 35.5607 9.52897 35.2097 9.16026 34.8409C5.7316 31.4123 3.84327 26.8544 3.84375 22.0055C3.84327 17.1566 5.7316 12.5987 9.16026 9.17005C12.5889 5.74137 17.1468 3.85304 21.9957 3.85352C26.8445 3.85304 31.4024 5.74137 34.8311 9.17005Z" fill="#302FD6"/>
<path d="M34.8087 34.8351C34.44 35.2038 34.0583 35.5548 33.6646 35.8871C36.4254 32.6192 37.9296 28.5232 37.9296 24.1953C37.9296 19.3469 36.0417 14.7885 32.6131 11.3598C29.1845 7.93124 24.6261 6.04331 19.7777 6.04331C15.4497 6.04331 11.3537 7.54759 8.08594 10.3083C8.41818 9.91463 8.76916 9.53289 9.13793 9.16419C12.5666 5.73552 17.1244 3.84718 21.9733 3.84766C26.8222 3.84718 31.3801 5.73552 34.8087 9.16419C38.2374 12.5929 40.1257 17.1507 40.1253 21.9996C40.1257 26.8485 38.2374 31.4064 34.8087 34.8351Z" fill="#302FD6"/>
<path d="M40.1477 21.9997C40.1477 22.2075 40.1443 22.4152 40.1375 22.6217C39.9834 18.0057 38.1134 13.6886 34.8311 10.4069C31.4028 6.97858 26.8446 5.09025 21.9957 5.09025C17.1469 5.09025 12.5887 6.97858 9.16041 10.4069C5.87807 13.6886 4.00807 18.0057 3.85394 22.6217C3.84715 22.4152 3.84375 22.2075 3.84375 21.9997C3.84375 17.1509 5.7314 12.5927 9.16041 9.16432C12.5887 5.73531 17.1469 3.84766 21.9957 3.84766C26.8446 3.84766 31.4028 5.73531 34.8311 9.16432C38.2601 12.5927 40.1477 17.1509 40.1477 21.9997Z" fill="#2827BC"/>
<path d="M39.1397 27.7518C38.2685 30.4522 36.7631 32.9259 34.6983 34.99C31.2699 38.4191 26.7117 40.3067 21.8629 40.3067C17.0141 40.3067 12.4559 38.4191 9.02759 34.99C5.59859 31.5617 3.71094 27.0035 3.71094 22.1547C3.71094 20.0396 4.07014 17.9794 4.75933 16.0449C4.1781 17.8362 3.87662 19.7272 3.87662 21.6644C3.87662 26.5133 5.76494 31.0715 9.19327 34.4998C12.6216 37.9288 17.1805 39.8165 22.0293 39.8165C26.8781 39.8165 31.4363 37.9288 34.8646 34.4998C36.8032 32.5612 38.2495 30.2614 39.1397 27.7518Z" fill="#7070FF"/>
<path d="M25.2117 14.75C25.0204 14.7578 24.8259 14.8099 24.6386 14.918C23.0676 15.8247 21.0163 15.8035 19.4822 14.9181C19.2364 14.7763 18.9865 14.7321 18.75 14.7611C18.9975 15.087 19.1313 15.485 19.1308 15.8941C19.1308 16.8279 18.4434 17.6217 17.5501 17.713C17.0346 18.3148 16.6804 18.996 16.5661 19.7291C18.371 18.7695 20.2358 18.2943 22.0967 18.2969C23.9589 18.2995 25.8169 18.7804 27.607 19.7336C27.4984 19.0015 27.1544 18.3202 26.6469 17.7201C26.6233 17.7211 26.5997 17.722 26.5759 17.722C25.6002 17.722 24.8227 16.8871 24.8227 15.8941C24.8227 15.4649 24.968 15.0655 25.2117 14.75ZM17.3777 14.8797C16.8664 14.8797 16.4384 15.3174 16.4384 15.8942C16.4384 16.4708 16.8664 16.9085 17.3777 16.9085C17.8889 16.9085 18.3169 16.4708 18.3169 15.8941C18.3169 15.3174 17.8889 14.8797 17.3777 14.8797L17.3777 14.8797ZM26.5758 14.8797C26.0646 14.8797 25.6366 15.3174 25.6366 15.8942C25.6366 16.4708 26.0646 16.9085 26.5758 16.9085C27.087 16.9085 27.515 16.4708 27.515 15.8941C27.515 15.3174 27.087 14.8797 26.5758 14.8797L26.5758 14.8797ZM29.3024 18.6457C28.9584 18.6493 28.5804 18.7081 28.1785 18.8168C28.458 19.6017 28.5243 20.4595 28.2873 21.3441C28.1154 21.9853 28.3249 22.8557 28.7594 23.5528L28.9486 23.8565L28.6653 24.0755C27.8678 24.6919 27.195 25.0882 26.805 25.4979C26.4151 25.9076 26.2447 26.2881 26.3646 27.1466L26.4261 27.5867C26.5712 27.7763 26.7359 27.967 26.9161 28.1538C27.7181 27.5669 28.3691 27.1903 29.6738 27.9887C29.4019 27.2302 30.3169 26.7882 31.559 26.7875C30.0696 26.1469 28.937 25.7541 28.0711 25.5622C30.7945 22.6505 31.9925 20.4009 30.7343 19.1413C30.4045 18.8113 29.9532 18.656 29.3914 18.646C29.3618 18.6455 29.3321 18.6454 29.3025 18.6456L29.3024 18.6457ZM14.7109 18.6458C14.6787 18.6454 14.6464 18.6455 14.6142 18.646C14.0523 18.656 13.5998 18.8114 13.27 19.1414C12.0118 20.401 13.2098 22.6506 15.9331 25.5623C15.0674 25.7542 13.9347 26.1471 12.4453 26.7875C13.6874 26.7883 14.6024 27.2303 14.3305 27.9887C15.6351 27.1904 16.2862 27.567 17.0882 28.1539C17.3591 27.8731 17.5955 27.5833 17.7817 27.302L17.8034 27.1467C17.9233 26.2882 17.753 25.9078 17.363 25.498C16.9731 25.0883 16.3002 24.692 15.5026 24.0756L15.2193 23.8567L15.4087 23.553C15.8416 22.8581 16.0485 21.9705 15.8808 21.3442C15.6475 20.4741 15.7119 19.6324 15.9831 18.8612C15.5257 18.7245 15.0972 18.6508 14.711 18.6459L14.7109 18.6458ZM22.0966 19.0354C20.2366 19.0328 18.3723 19.5528 16.5454 20.6023C16.565 20.7836 16.5986 20.9631 16.6461 21.1392V21.1392C16.8661 21.9602 16.67 22.8708 16.2634 23.652C16.9045 24.1213 17.4877 24.4799 17.937 24.952C18.3551 25.3913 18.6147 25.9657 18.6212 26.7152C18.577 27.3729 18.2517 28.2992 17.7195 29.1048C18.7117 28.5305 19.4196 28.4863 19.5469 29.2456C20.1158 28.5283 20.5839 28.4234 21.12 28.9215C20.9689 27.6529 20.6714 26.7883 20.4236 26.2958C19.8226 24.8209 18.696 23.8158 17.4481 22.9309L17.9065 22.285C19.4716 23.3949 21.0053 24.8125 21.5027 27.1077C21.8912 27.1361 22.2794 27.1339 22.6668 27.1012C23.1656 24.8098 24.6978 23.3937 26.2614 22.2849L26.7198 22.9309C25.4613 23.8234 24.3257 24.8379 23.7286 26.3337C23.4847 26.8321 23.1984 27.6847 23.051 28.9215C23.5873 28.4234 24.0554 28.5283 24.6242 29.2456C24.7514 28.4863 25.4593 28.5305 26.4516 29.1048C25.9064 28.2797 25.5782 27.3277 25.5469 26.6676C25.5637 25.9411 25.8217 25.382 26.2309 24.952C26.6802 24.4798 27.2633 24.1213 27.9044 23.652C27.4983 22.8739 27.2995 21.9685 27.5218 21.139C27.5692 20.9635 27.603 20.7846 27.6231 20.6039C25.8134 19.5637 23.9572 19.0381 22.0965 19.0354H22.0966Z" fill="#F9F8F4"/>
</svg>
