<svg width="26" height="14" viewBox="0 0 26 14" fill="none" xmlns="http://www.w3.org/2000/svg">
<path d="M25.9987 0.00207869L21.2817 0L21.2825 1.35492L20.1899 1.35326L20.1929 0.00291023L0.00128223 0.00207869L0 3.79361C1.84236 4.37167 2.90333 5.64508 2.90333 7.00083C2.90333 8.35658 1.84322 9.62916 0.000855352 10.2072L0.000854069 14H20.1857L20.1899 12.6484L21.2842 12.6484L21.2885 14H25.9991L25.9991 10.2072C24.1568 9.62916 23.0967 8.35658 23.0967 7.00083C23.0967 5.64508 24.1576 4.37167 26 3.79361L25.9987 0.00207869ZM21.2885 3.23717L21.2842 6.06095L20.1899 6.06095L20.1942 3.23717L21.2885 3.23717ZM18.3775 1.76913V12.2325L4.72005 12.2367L4.71834 1.76331L17.8346 1.76497L18.3775 1.76913ZM17.2917 2.82545L5.8058 2.82129V11.1804L17.2917 11.1762V2.82545ZM21.2842 7.94071L21.2885 10.7645H20.1942L20.1899 7.94071L21.2842 7.94071Z" fill="#FF5B23"/>
</svg>
