<svg width="204" height="204" viewBox="0 0 204 204" fill="none" xmlns="http://www.w3.org/2000/svg">
<path d="M102 204C158.333 204 203.999 158.333 203.999 102C203.999 45.667 158.333 0 102 0C45.6668 0 0 45.667 0 102C0 158.333 45.6668 204 102 204Z" fill="#3A39FF"/>
<path d="M186.427 159.255C196.363 143.518 202.111 124.871 202.111 104.884C202.111 48.5507 156.444 2.8837 100.111 2.8837C65.0033 2.8837 34.0351 20.6235 15.6846 47.6283C33.7517 19.0085 65.655 0 102 0C158.333 0 204 45.667 204 102C204 123.225 197.518 142.932 186.427 159.255Z" fill="#7070FF"/>
<path d="M161.508 42.5029C163.218 44.2126 164.845 45.9822 166.386 47.8075C151.235 35.0075 132.244 28.0334 112.179 28.0334C89.6996 28.0334 68.5655 36.7862 52.6689 52.6827C36.7724 68.5793 28.0196 89.7135 28.0196 112.192C28.0196 132.258 34.994 151.249 47.7937 166.4C45.9685 164.859 44.1986 163.232 42.4891 161.522C26.5926 145.626 17.8376 124.494 17.8398 102.013C17.8376 79.5314 26.5926 58.3995 42.4891 42.5029C58.3857 26.6063 79.5175 17.8513 101.999 17.8535C124.48 17.8513 145.612 26.6063 161.508 42.5029Z" fill="#302FD6"/>
<path d="M161.38 161.507C159.671 163.217 157.901 164.844 156.076 166.384C168.876 151.233 175.85 132.243 175.85 112.177C175.85 89.6978 167.097 68.5637 151.201 52.6671C135.304 36.7709 114.17 28.0177 91.6911 28.0177C71.6251 28.0177 52.6346 34.9921 37.4839 47.7919C39.0243 45.9666 40.6516 44.1967 42.3613 42.4873C58.2578 26.5907 79.3897 17.8357 101.871 17.8379C124.352 17.8357 145.484 26.5907 161.38 42.4873C177.277 58.3838 186.032 79.5158 186.03 101.997C186.032 124.478 177.277 145.61 161.38 161.507Z" fill="#302FD6"/>
<path d="M186.158 101.997C186.158 102.961 186.143 103.924 186.111 104.881C185.396 83.4799 176.726 63.464 161.508 48.249C145.613 32.354 124.48 23.599 101.999 23.599C79.5182 23.599 58.3847 32.354 42.4898 48.249C27.2717 63.464 18.6017 83.4799 17.8871 104.881C17.8556 103.924 17.8398 102.961 17.8398 101.997C17.8398 79.5164 26.5917 58.3829 42.4898 42.4879C58.3847 26.5897 79.5182 17.8379 101.999 17.8379C124.48 17.8379 145.613 26.5897 161.508 42.4879C177.406 58.3829 186.158 79.5164 186.158 101.997Z" fill="#2827BC"/>
<path d="M181.466 128.678C177.427 141.198 170.448 152.667 160.874 162.237C144.979 178.135 123.846 186.887 101.365 186.887C78.8839 186.887 57.7505 178.135 41.8555 162.237C25.9574 146.342 17.2056 125.208 17.2056 102.727C17.2056 92.9209 18.871 83.3695 22.0663 74.4004C19.3715 82.7052 17.9737 91.4728 17.9737 100.454C17.9737 122.935 26.7287 144.069 42.6236 159.964C58.5186 175.862 79.6552 184.614 102.136 184.614C124.617 184.614 145.75 175.862 161.645 159.964C170.633 150.976 177.339 140.313 181.466 128.678Z" fill="#7070FF"/>
<path d="M116.881 68.3965C115.994 68.4328 115.092 68.6744 114.223 69.1754C106.94 73.3793 97.4292 73.2808 90.3164 69.1758C89.1771 68.5182 88.0181 68.3136 86.9218 68.4479C88.0692 69.9588 88.6894 71.8041 88.6875 73.701C88.6875 78.0303 85.5002 81.7106 81.3584 82.1342C78.9685 84.9244 77.3263 88.0824 76.7963 91.4815C85.1644 87.0325 93.8107 84.8292 102.438 84.8411C111.072 84.8531 119.686 87.0828 127.986 91.5024C127.483 88.1082 125.888 84.949 123.535 82.1669C123.425 82.1718 123.316 82.1759 123.205 82.1759C118.682 82.1759 115.077 78.3048 115.077 73.701C115.077 71.7112 115.751 69.8591 116.881 68.3965ZM80.559 68.9979C78.1887 68.9979 76.2044 71.027 76.2044 73.7012C76.2044 76.3749 78.1889 78.4039 80.5592 78.4039C82.9295 78.4039 84.9137 76.3749 84.9137 73.701C84.9137 71.0271 82.9295 68.9977 80.5594 68.9977L80.559 68.9979ZM123.205 68.9979C120.835 68.9979 118.85 71.027 118.85 73.7012C118.85 76.3749 120.835 78.4039 123.205 78.4039C125.575 78.4039 127.56 76.3749 127.56 73.701C127.56 71.0271 125.575 68.9977 123.205 68.9977L123.205 68.9979ZM135.846 86.4584C134.252 86.4749 132.499 86.7475 130.636 87.2519C131.931 90.8905 132.239 94.8678 131.14 98.9691C130.343 101.942 131.314 105.977 133.329 109.209L134.206 110.618L132.893 111.633C129.195 114.491 126.076 116.328 124.268 118.228C122.46 120.127 121.67 121.891 122.226 125.872L122.511 127.912C123.184 128.791 123.947 129.675 124.783 130.541C128.501 127.82 131.519 126.074 137.568 129.776C136.308 126.259 140.55 124.21 146.309 124.207C139.404 121.237 134.152 119.415 130.138 118.526C142.764 105.026 148.319 94.5963 142.485 88.7564C140.956 87.2261 138.864 86.5059 136.259 86.4599C136.122 86.4574 135.984 86.4568 135.847 86.458L135.846 86.4584ZM68.1951 86.4588C68.0456 86.4569 67.8961 86.4573 67.7467 86.4599C65.1416 86.5063 63.0435 87.2266 61.5145 88.7567C55.6809 94.5965 61.2353 105.027 73.8618 118.526C69.8478 119.416 64.596 121.237 57.6909 124.207C63.4496 124.211 67.6918 126.26 66.4313 129.776C72.48 126.075 75.4987 127.821 79.2169 130.542C80.4728 129.24 81.5689 127.896 82.4325 126.592L82.5329 125.872C83.0889 121.892 82.2991 120.128 80.4911 118.228C78.6832 116.329 75.5634 114.491 71.8656 111.633L70.5523 110.618L71.4301 109.21C73.4375 105.989 74.3968 101.873 73.6189 98.9697C72.5372 94.9355 72.836 91.033 74.0934 87.4574C71.9726 86.8238 69.9862 86.482 68.1953 86.4591L68.1951 86.4588ZM102.438 88.2653C93.8142 88.2531 85.1704 90.664 76.7005 95.5298C76.7911 96.3704 76.9471 97.2026 77.1671 98.0189V98.0193C78.1872 101.826 77.278 106.048 75.3928 109.669C78.3655 111.845 81.0694 113.508 83.1525 115.697C85.0907 117.733 86.2945 120.397 86.3245 123.871C86.1194 126.921 84.6114 131.216 82.1438 134.95C86.7441 132.288 90.0262 132.083 90.6167 135.603C93.2539 132.278 95.4242 131.791 97.91 134.101C97.2094 128.219 95.8302 124.211 94.6813 121.927C91.8946 115.089 86.6713 110.429 80.8857 106.326L83.0109 103.331C90.2674 108.477 97.3783 115.05 99.6842 125.691C101.485 125.823 103.286 125.813 105.082 125.661C107.394 115.037 114.498 108.472 121.748 103.331L123.873 106.326C118.038 110.464 112.773 115.168 110.005 122.103C108.874 124.414 107.546 128.366 106.863 134.101C109.349 131.791 111.519 132.278 114.157 135.603C114.746 132.083 118.029 132.288 122.629 134.95C120.102 131.125 118.58 126.711 118.435 123.651C118.512 120.283 119.709 117.69 121.606 115.697C123.689 113.508 126.392 111.845 129.365 109.669C127.482 106.062 126.56 101.864 127.591 98.0182C127.811 97.2044 127.968 96.375 128.061 95.5373C119.67 90.7144 111.064 88.2776 102.437 88.2653H102.438Z" fill="#F9F8F4"/>
</svg>
