<svg width="34" height="34" viewBox="0 0 34 34" fill="none" xmlns="http://www.w3.org/2000/svg">
<path d="M17 34C26.3888 34 33.9999 26.3888 33.9999 17C33.9999 7.61116 26.3888 0 17 0C7.61114 0 0 7.61116 0 17C0 26.3888 7.61114 34 17 34Z" fill="#FF5B23"/>
<path d="M31.0709 26.5426C32.7268 23.9196 33.6849 20.8119 33.6849 17.4806C33.6849 8.09179 26.0737 0.480617 16.6849 0.480617C10.8336 0.480617 5.67219 3.43725 2.61377 7.93806C5.62497 3.16809 10.9422 0 16.9997 0C26.3885 0 33.9997 7.61117 33.9997 17C33.9997 20.5375 32.9193 23.822 31.0709 26.5426Z" fill="#FFD1C1"/>
<path d="M26.9179 7.08479C27.2029 7.36975 27.4741 7.66468 27.7308 7.9689C25.2057 5.83555 22.0406 4.6732 18.6963 4.6732C14.9498 4.6732 11.4274 6.132 8.778 8.78143C6.12857 11.4309 4.66978 14.9532 4.66978 18.6997C4.66978 22.0441 5.83218 25.2092 7.96546 27.7343C7.66125 27.4775 7.36627 27.2063 7.08136 26.9214C4.43194 24.2719 2.97278 20.75 2.97314 17.0031C2.97278 13.2562 4.43194 9.73422 7.08136 7.08479C9.73078 4.43536 13.2528 2.9762 16.9996 2.97656C20.7465 2.9762 24.2685 4.43536 26.9179 7.08479Z" fill="#DF4E1D"/>
<path d="M26.8965 26.9175C26.6116 27.2024 26.3166 27.4736 26.0124 27.7304C28.1457 25.2052 29.3081 22.0402 29.3081 18.6958C29.3081 14.9493 27.8493 11.427 25.1999 8.77753C22.5505 6.12815 19.0281 4.6693 15.2816 4.6693C11.9373 4.6693 8.77219 5.8317 6.24707 7.96499C6.5038 7.66077 6.77502 7.36579 7.05997 7.08089C9.7094 4.43146 13.2314 2.97229 16.9782 2.97266C20.7251 2.97229 24.2471 4.43146 26.8965 7.08089C29.5459 9.73032 31.0051 13.2523 31.0047 16.9992C31.0051 20.7461 29.5459 24.268 26.8965 26.9175Z" fill="#DF4E1D"/>
<path d="M31.0262 16.9992C31.0262 17.1598 31.0236 17.3203 31.0184 17.4798C30.8993 13.913 29.4543 10.577 26.9179 8.04117C24.2687 5.39201 20.7465 3.93284 16.9997 3.93284C13.2529 3.93284 9.73063 5.39201 7.08147 8.04117C4.54512 10.577 3.10012 13.913 2.98102 17.4798C2.97577 17.3203 2.97314 17.1598 2.97314 16.9992C2.97314 13.2524 4.43179 9.73016 7.08147 7.08099C9.73063 4.4313 13.2529 2.97266 16.9997 2.97266C20.7465 2.97266 24.2687 4.4313 26.9179 7.08099C29.5676 9.73016 31.0262 13.2524 31.0262 16.9992Z" fill="#C1471D"/>
<path d="M30.2444 21.4466C29.5713 23.5333 28.408 25.4447 26.8124 27.0398C24.1633 29.6895 20.641 31.1481 16.8942 31.1481C13.1474 31.1481 9.62516 29.6895 6.976 27.0398C4.32632 24.3906 2.86768 20.8684 2.86768 17.1216C2.86768 15.4872 3.14524 13.8952 3.6778 12.4004C3.22867 13.7845 2.9957 15.2458 2.9957 16.7427C2.9957 20.4896 4.45486 24.0118 7.10402 26.661C9.75318 29.3107 13.276 30.7693 17.0228 30.7693C20.7696 30.7693 24.2918 29.3107 26.941 26.661C28.439 25.163 29.5566 23.3859 30.2444 21.4466Z" fill="#FFD1C1"/>
<path d="M18.541 10.9023V10.9487C19.3516 11.9105 19.9386 13.0404 20.2594 14.2567C20.7267 15.9304 20.936 17.6658 20.8812 19.4021C20.8828 19.4311 20.8828 19.4603 20.8812 19.4894C20.7719 18.9877 20.584 18.5065 20.3243 18.0636C20.0627 17.6145 19.7015 17.2313 19.2685 16.9437C19.2878 16.9931 19.3141 17.031 19.3141 17.0734C19.545 17.6249 19.6828 18.2108 19.7219 18.8074C19.8027 19.7605 19.504 20.707 18.8908 21.4411C18.8575 21.4908 18.8283 21.5433 18.8036 21.5979L18.7503 21.5477C18.9039 20.94 18.8667 20.2998 18.6437 19.7141C18.1973 21.4256 17.0465 22.4467 15.518 23.141C17.3747 23.1333 19.1658 22.8514 20.6904 21.7075C20.702 22.1192 20.5761 22.4475 20.1529 23.1294C21.445 22.4814 22.0088 21.4071 22.1502 20.0308C22.4977 20.4448 22.7333 20.9406 22.836 21.472C22.9349 21.9786 22.9843 22.4969 23.0569 22.9966C23.6053 21.6473 23.5867 20.2215 23.3998 18.7394C25.0503 19.7033 25.7323 21.2619 26.2583 22.9317C26.2871 22.0309 26.2527 21.1292 26.1556 20.2331C26.0243 18.9217 25.6999 17.638 25.1917 16.4216C24.727 15.2705 24.0327 14.2261 23.1513 13.3519C22.2699 12.4778 21.2197 11.7923 20.0648 11.3372C19.5756 11.1333 19.0641 10.9874 18.541 10.9023ZM16.4294 10.9873C16.193 11.3905 15.976 11.806 15.7088 12.176C15.4362 12.5836 15.1423 12.9765 14.8283 13.353C14.7361 13.4554 14.6239 13.5377 14.4986 13.5948C14.3734 13.6519 14.2376 13.6827 14.1 13.6851L14.4437 12.0763C14.3976 12.1169 14.36 12.1663 14.3332 12.2215C14.1015 12.5768 13.876 12.9383 13.6319 13.2812C13.5725 13.3703 13.4853 13.4372 13.3839 13.4717C13.2825 13.5062 13.1726 13.5063 13.0712 13.472C12.6904 13.3607 12.3089 13.2542 11.9281 13.1321C11.8856 13.111 11.837 13.1056 11.7909 13.1169C11.7448 13.1283 11.7042 13.1555 11.6763 13.1939C11.355 13.566 11.0142 13.9207 10.6553 14.2567C9.82423 14.9927 8.92521 15.6052 7.73193 15.5218V15.572C8.06713 16.3644 8.39924 17.1576 8.74989 17.9462C8.8633 18.1878 9.0497 18.3877 9.28281 18.5177C9.21788 18.1902 9.1707 17.8594 9.14147 17.5268C9.12294 17.1229 9.21407 17.0503 9.61801 17.0116C9.63485 17.0079 9.65226 17.0075 9.66926 17.0105C9.68625 17.0134 9.70249 17.0197 9.71705 17.029C9.73161 17.0382 9.74421 17.0503 9.75412 17.0644C9.76403 17.0785 9.77105 17.0944 9.7748 17.1113C9.83195 17.2557 9.90069 17.3971 9.9648 17.5423C10.0451 17.3669 10.1139 17.2024 10.1934 17.0464C10.2189 17 10.2595 16.9638 10.3085 16.9437C10.48 16.8711 10.6561 16.8139 10.8383 16.7452L10.975 17.0201C11.0932 16.7498 11.2036 16.4826 11.3303 16.2192C11.3637 16.1565 11.4189 16.1082 11.4856 16.0836C11.5522 16.0589 11.6256 16.0597 11.6918 16.0856V16.2725C11.6296 16.9707 11.7613 17.6726 12.0725 18.3007C12.1794 18.5595 12.2524 18.8311 12.2896 19.1086C12.3205 19.2337 12.2564 19.3071 12.1382 19.3071L11.8292 19.3411C11.9054 19.397 11.9753 19.4609 12.0378 19.5318C12.0957 19.6044 12.176 19.7404 12.149 19.779C12.0688 19.8733 11.9648 19.9445 11.8478 19.9852C11.7685 20.0094 11.6838 20.0094 11.6045 19.9852C11.3931 19.9241 11.1843 19.854 10.9789 19.7751C10.8692 19.7268 10.7625 19.6721 10.6591 19.6114L10.5974 19.684L11.1504 20.1567C11.2773 20.276 11.4288 20.3661 11.5942 20.4208C11.7596 20.4755 11.935 20.4934 12.1081 20.4733C12.2082 20.4732 12.3073 20.4534 12.3997 20.415C12.4922 20.3766 12.5762 20.3204 12.6469 20.2495C12.7176 20.1786 12.7737 20.0946 12.8119 20.002C12.8501 19.9095 12.8697 19.8104 12.8696 19.7102C12.9044 19.4739 12.8735 19.2345 12.9044 18.9981C12.9111 18.7082 12.9783 18.4228 13.1016 18.1603C13.2248 17.8978 13.4015 17.6639 13.6203 17.4735C13.2601 17.5717 12.935 17.7698 12.6827 18.0451C12.6364 17.7552 12.616 17.4619 12.6217 17.1684C12.5985 16.8561 12.6991 16.5472 12.9017 16.3083C13.1042 16.0695 13.3926 15.9199 13.7045 15.8917C14.1257 15.8025 14.5504 15.7301 14.9773 15.6747C15.5991 15.6129 16.2123 15.4847 16.807 15.2932C17.2037 15.1575 17.5719 14.9496 17.893 14.6799C17.1627 14.8372 16.4209 14.9353 15.6748 14.9734C16.9426 14.0764 17.8684 12.7756 18.3008 11.2839C17.4852 12.427 16.6001 13.4982 15.3118 14.1424C15.7841 13.1285 16.1584 12.0725 16.4294 10.9873ZM11.9358 13.9863C11.9127 14.1045 11.8941 14.2219 11.8632 14.337C11.8061 14.561 11.7373 14.7826 11.6802 15.0074C11.6765 15.0453 11.6588 15.0804 11.6305 15.1059C11.6022 15.1313 11.5653 15.1452 11.5273 15.1449C11.2307 15.1796 10.9372 15.2244 10.6136 15.2661L11.9358 13.9863ZM14.992 16.0756C14.8427 16.0784 14.6937 16.0921 14.5464 16.1165C14.1355 16.1435 13.7399 16.2833 13.4033 16.5204C13.2886 16.598 13.1971 16.7053 13.1386 16.8309C13.0801 16.9565 13.0568 17.0955 13.0712 17.2333C13.1341 17.0845 13.2381 16.9567 13.3711 16.8649C13.5041 16.7731 13.6605 16.7211 13.8219 16.7151C14.2916 16.6651 14.7654 16.7565 15.1828 16.9777C15.5612 17.1584 15.779 17.5647 15.7203 17.9802C15.6684 18.3844 15.4815 18.7592 15.1897 19.0437C14.77 19.4765 14.2672 19.8201 13.7115 20.0539C13.0661 20.3312 12.4629 20.6977 11.9196 21.143C11.32 21.6417 10.9342 22.3512 10.8414 23.1256H15.4145C15.2719 22.7614 15.2711 22.3569 15.4122 21.9921C15.5533 21.6273 15.8262 21.3287 16.1768 21.1553L15.976 22.0165C16.4792 21.4317 16.8114 20.7195 16.936 19.9582C17.0681 20.2725 17.1253 20.6131 17.1029 20.953C17.4085 20.2577 17.5257 19.4943 17.4427 18.7394L17.8428 19.1727C17.8049 18.8637 17.7733 18.5896 17.7393 18.3154C17.7025 17.8833 17.549 17.4694 17.2953 17.1178C17.0416 16.7662 16.6972 16.49 16.2988 16.3188C15.8847 16.1484 15.4398 16.0656 14.992 16.0756Z" fill="#F9F8F4"/>
</svg>
