<svg width="34" height="34" viewBox="0 0 34 34" fill="none" xmlns="http://www.w3.org/2000/svg">
<path d="M17 34C26.3888 34 33.9999 26.3888 33.9999 17C33.9999 7.61116 26.3888 0 17 0C7.61114 0 0 7.61116 0 17C0 26.3888 7.61114 34 17 34Z" fill="#3A39FF"/>
<path d="M31.0713 26.5426C32.7273 23.9196 33.6853 20.8119 33.6853 17.4806C33.6853 8.09179 26.0742 0.480617 16.6854 0.480617C10.8341 0.480617 5.67267 3.43725 2.61426 7.93806C5.62545 3.16809 10.9427 0 17.0002 0C26.389 0 34.0002 7.61117 34.0002 17C34.0002 20.5375 32.9198 23.822 31.0713 26.5426Z" fill="#7070FF"/>
<path d="M26.9179 7.08479C27.2028 7.36975 27.4741 7.66468 27.7308 7.9689C25.2057 5.83555 22.0406 4.6732 18.6963 4.6732C14.9498 4.6732 11.4274 6.132 8.77799 8.78143C6.12857 11.4309 4.66978 14.9532 4.66978 18.6997C4.66978 22.0441 5.83218 25.2092 7.96546 27.7343C7.66125 27.4775 7.36627 27.2063 7.08136 26.9214C4.43194 24.2719 2.97278 20.75 2.97314 17.0031C2.97278 13.2562 4.43194 9.73422 7.08136 7.08479C9.73078 4.43536 13.2528 2.9762 16.9996 2.97656C20.7465 2.9762 24.2685 4.43536 26.9179 7.08479Z" fill="#302FD6"/>
<path d="M26.8965 26.9175C26.6115 27.2024 26.3166 27.4736 26.0124 27.7304C28.1457 25.2052 29.3081 22.0401 29.3081 18.6958C29.3081 14.9493 27.8493 11.427 25.1999 8.77753C22.5505 6.12815 19.0281 4.6693 15.2816 4.6693C11.9373 4.6693 8.77219 5.8317 6.24707 7.96499C6.5038 7.66077 6.77502 7.36579 7.05997 7.08088C9.7094 4.43146 13.2314 2.97229 16.9782 2.97266C20.7251 2.97229 24.2471 4.43146 26.8965 7.08088C29.5459 9.73031 31.0051 13.2523 31.0047 16.9992C31.0051 20.7461 29.5459 24.268 26.8965 26.9175Z" fill="#302FD6"/>
<path d="M31.0262 16.9992C31.0262 17.1598 31.0236 17.3203 31.0183 17.4798C30.8992 13.913 29.4542 10.577 26.9179 8.04117C24.2687 5.39201 20.7465 3.93284 16.9997 3.93284C13.2529 3.93284 9.73063 5.39201 7.08147 8.04117C4.54512 10.577 3.10012 13.913 2.98102 17.4798C2.97577 17.3203 2.97314 17.1598 2.97314 16.9992C2.97314 13.2524 4.43178 9.73016 7.08147 7.08099C9.73063 4.4313 13.2529 2.97266 16.9997 2.97266C20.7465 2.97266 24.2687 4.4313 26.9179 7.08099C29.5676 9.73016 31.0262 13.2524 31.0262 16.9992Z" fill="#2827BC"/>
<path d="M30.2444 21.4466C29.5712 23.5333 28.408 25.4447 26.8124 27.0398C24.1633 29.6895 20.641 31.1481 16.8942 31.1481C13.1474 31.1481 9.62516 29.6895 6.976 27.0398C4.32632 24.3906 2.86768 20.8684 2.86768 17.1216C2.86768 15.4872 3.14524 13.8952 3.6778 12.4004C3.22867 13.7845 2.9957 15.2458 2.9957 16.7427C2.9957 20.4896 4.45486 24.0118 7.10402 26.661C9.75318 29.3107 13.276 30.7693 17.0228 30.7693C20.7696 30.7693 24.2918 29.3107 26.941 26.661C28.439 25.163 29.5566 23.3859 30.2444 21.4466Z" fill="#7070FF"/>
<path d="M19.4802 11.3984C19.3323 11.4045 19.182 11.4448 19.0373 11.5283C17.8233 12.2289 16.2383 12.2125 15.0528 11.5283C14.8629 11.4187 14.6698 11.3846 14.4871 11.407C14.6783 11.6588 14.7817 11.9664 14.7813 12.2825C14.7813 13.0041 14.2501 13.6175 13.5598 13.6881C13.1615 14.1531 12.8878 14.6794 12.7995 15.2459C14.1941 14.5044 15.6352 14.1372 17.0731 14.1392C18.5121 14.1412 19.9478 14.5128 21.3311 15.2494C21.2472 14.6837 20.9814 14.1572 20.5892 13.6935C20.5709 13.6943 20.5527 13.695 20.5343 13.695C19.7804 13.695 19.1796 13.0498 19.1796 12.2825C19.1796 11.9509 19.2919 11.6422 19.4802 11.3984ZM13.4266 11.4987C13.0315 11.4987 12.7008 11.8368 12.7008 12.2826C12.7008 12.7282 13.0316 13.0663 13.4266 13.0663C13.8217 13.0663 14.1524 12.7282 14.1524 12.2825C14.1524 11.8369 13.8217 11.4986 13.4266 11.4986L13.4266 11.4987ZM20.5343 11.4987C20.1392 11.4987 19.8085 11.8368 19.8085 12.2826C19.8085 12.7282 20.1392 13.0663 20.5342 13.0663C20.9293 13.0663 21.26 12.7282 21.26 12.2825C21.26 11.8369 20.9293 11.4986 20.5342 11.4986L20.5343 11.4987ZM22.6412 14.4088C22.3753 14.4115 22.0833 14.4569 21.7727 14.541C21.9887 15.1474 22.0399 15.8103 21.8567 16.4939C21.7239 16.9893 21.8858 17.6619 22.2215 18.2006L22.3678 18.4353L22.1489 18.6045C21.5326 19.0808 21.0127 19.3871 20.7114 19.7036C20.41 20.0202 20.2784 20.3142 20.371 20.9776L20.4186 21.3177C20.5307 21.4642 20.658 21.6116 20.7972 21.7559C21.4169 21.3024 21.92 21.0114 22.9281 21.6283C22.718 21.0422 23.4251 20.7007 24.3849 20.7001C23.234 20.2052 22.3588 19.9016 21.6897 19.7534C23.7941 17.5034 24.7199 15.7651 23.7476 14.7918C23.4928 14.5367 23.1441 14.4167 22.7099 14.409C22.687 14.4086 22.6641 14.4085 22.6412 14.4087L22.6412 14.4088ZM11.3659 14.4088C11.341 14.4085 11.3161 14.4086 11.2912 14.409C10.857 14.4167 10.5073 14.5368 10.2525 14.7918C9.28024 15.7651 10.206 17.5034 12.3104 19.7534C11.6414 19.9017 10.7661 20.2053 9.61523 20.7002C10.575 20.7008 11.2821 21.0423 11.072 21.6283C12.0801 21.0115 12.5832 21.3025 13.2029 21.756C13.4122 21.539 13.5949 21.3151 13.7388 21.0977L13.7556 20.9777C13.8482 20.3144 13.7166 20.0203 13.4153 19.7037C13.1139 19.3872 12.594 19.0809 11.9777 18.6046L11.7588 18.4354L11.9051 18.2007C12.2397 17.6638 12.3995 16.9779 12.2699 16.494C12.0896 15.8216 12.1394 15.1712 12.349 14.5753C11.9955 14.4697 11.6644 14.4127 11.366 14.4089L11.3659 14.4088ZM17.0731 14.7099C15.6358 14.7079 14.1951 15.1097 12.7835 15.9207C12.7986 16.0608 12.8246 16.1995 12.8613 16.3355V16.3356C13.0313 16.97 12.8798 17.6736 12.5656 18.2773C13.061 18.6399 13.5116 18.917 13.8588 19.2818C14.1819 19.6212 14.3825 20.0651 14.3875 20.6442C14.3533 21.1525 14.102 21.8683 13.6907 22.4908C14.4574 22.047 15.0045 22.0129 15.1029 22.5996C15.5424 22.0453 15.9041 21.9642 16.3184 22.3492C16.2016 21.3689 15.9718 20.7008 15.7803 20.3202C15.3158 19.1805 14.4453 18.4039 13.481 17.72L13.8352 17.2209C15.0446 18.0786 16.2298 19.174 16.6141 20.9476C16.9143 20.9695 17.2143 20.9678 17.5137 20.9426C17.8991 19.1719 19.0831 18.0777 20.2913 17.2208L20.6455 17.72C19.673 18.4097 18.7955 19.1937 18.3342 20.3495C18.1457 20.7346 17.9245 21.3934 17.8106 22.3492C18.2249 21.9642 18.5866 22.0453 19.0262 22.5996C19.1245 22.0129 19.6715 22.047 20.4383 22.4908C20.017 21.8532 19.7634 21.1176 19.7392 20.6075C19.7521 20.0461 19.9515 19.6141 20.2677 19.2818C20.6149 18.917 21.0655 18.6399 21.5609 18.2772C21.2471 17.676 21.0935 16.9764 21.2653 16.3354C21.3018 16.1998 21.328 16.0615 21.3435 15.9219C19.9451 15.1181 18.5108 14.712 17.073 14.7099H17.0731Z" fill="#F9F8F4"/>
</svg>
