<svg width="204" height="204" viewBox="0 0 204 204" fill="none" xmlns="http://www.w3.org/2000/svg">
<path d="M101.999 203.998C158.332 203.998 203.998 158.332 203.998 101.999C203.998 45.6666 158.332 0 101.999 0C45.6666 0 0 45.6666 0 101.999C0 158.332 45.6666 203.998 101.999 203.998Z" fill="#FF5B23"/>
<path d="M186.426 159.254C196.361 143.517 202.11 124.87 202.11 104.883C202.11 48.5504 156.443 2.88368 100.111 2.88368C65.0028 2.88368 34.0347 20.6234 15.6843 47.628C33.7514 19.0084 65.6545 0 102 0C158.332 0 203.999 45.6667 203.999 101.999C203.999 123.224 197.517 142.931 186.426 159.254Z" fill="#FFD1C1"/>
<path d="M161.507 42.5027C163.217 44.2124 164.844 45.982 166.385 47.8073C151.234 35.0073 132.244 28.0333 112.178 28.0333C89.699 28.0333 68.565 36.786 52.6685 52.6825C36.7721 68.5789 28.0194 89.7129 28.0194 112.192C28.0194 132.258 34.9937 151.248 47.7934 166.399C45.9681 164.858 44.1982 163.231 42.4888 161.521C26.5923 145.625 17.8374 124.493 17.8396 102.012C17.8374 79.5309 26.5923 58.3991 42.4888 42.5027C58.3852 26.6062 79.517 17.8513 101.998 17.8535C124.479 17.8513 145.611 26.6062 161.507 42.5027Z" fill="#DF4E1D"/>
<path d="M161.38 161.506C159.67 163.215 157.9 164.843 156.075 166.383C168.875 151.232 175.849 132.242 175.849 112.176C175.849 89.6973 167.096 68.5633 151.2 52.6668C135.304 36.7707 114.169 28.0177 91.6906 28.0177C71.6247 28.0177 52.6343 34.992 37.4836 47.7917C39.024 45.9664 40.6513 44.1965 42.361 42.4871C58.2575 26.5906 79.3892 17.8357 101.87 17.8379C124.351 17.8357 145.483 26.5906 161.38 42.4871C177.276 58.3835 186.031 79.5153 186.029 101.996C186.031 124.477 177.276 145.609 161.38 161.506Z" fill="#DF4E1D"/>
<path d="M186.157 101.997C186.157 102.96 186.141 103.923 186.11 104.88C185.395 83.4794 176.725 63.4637 161.507 48.2488C145.613 32.3539 124.479 23.599 101.998 23.599C79.5177 23.599 58.3843 32.3539 42.4894 48.2488C27.2714 63.4637 18.6015 83.4794 17.8868 104.88C17.8553 103.923 17.8396 102.96 17.8396 101.997C17.8396 79.5159 26.5914 58.3826 42.4894 42.4877C58.3843 26.5897 79.5177 17.8379 101.998 17.8379C124.479 17.8379 145.613 26.5897 161.507 42.4877C177.405 58.3826 186.157 79.5159 186.157 101.997Z" fill="#C1471D"/>
<path d="M181.465 128.677C177.426 141.197 170.447 152.666 160.874 162.236C144.979 178.134 123.845 186.886 101.365 186.886C78.8839 186.886 57.7505 178.134 41.8556 162.236C25.9576 146.341 17.2058 125.208 17.2058 102.727C17.2058 92.9208 18.8712 83.3694 22.0665 74.4004C19.3717 82.7051 17.974 91.4727 17.974 100.454C17.974 122.935 26.7289 144.068 42.6238 159.963C58.5186 175.861 79.6552 184.613 102.136 184.613C124.617 184.613 145.75 175.861 161.645 159.963C170.633 150.975 177.338 140.313 181.465 128.677Z" fill="#FFD1C1"/>
<path d="M111.244 65.4219V65.6999C116.108 71.4709 119.63 78.25 121.555 85.5477C124.359 95.5897 125.615 106.002 125.286 116.42C125.295 116.594 125.295 116.769 125.286 116.944C124.63 113.934 123.502 111.046 121.944 108.389C120.374 105.694 118.207 103.395 115.61 101.67C115.725 101.966 115.883 102.193 115.883 102.448C117.268 105.757 118.095 109.272 118.33 112.852C118.815 118.57 117.023 124.249 113.343 128.654C113.143 128.952 112.968 129.267 112.82 129.595L112.5 129.293C113.422 125.648 113.199 121.806 111.861 118.292C109.182 128.561 102.277 134.687 93.1065 138.853C104.247 138.807 114.993 137.116 124.141 130.253C124.21 132.723 123.455 134.692 120.916 138.784C128.668 134.896 132.051 128.45 132.899 120.192C134.985 122.676 136.398 125.651 137.014 128.839C137.608 131.879 137.904 134.989 138.34 137.987C141.63 129.891 141.519 121.337 140.397 112.444C150.3 118.227 154.392 127.579 157.548 137.598C157.721 132.193 157.515 126.782 156.932 121.406C156.144 113.537 154.197 105.836 151.148 98.537C148.36 91.6305 144.195 85.364 138.906 80.1193C133.618 74.8747 127.317 70.7616 120.387 68.0309C117.452 66.8077 114.383 65.9321 111.244 65.4219ZM98.5747 65.9316C97.1567 68.3506 95.8545 70.8437 94.2511 73.0635C92.6159 75.5091 90.8525 77.8665 88.9683 80.1258C88.4154 80.7399 87.7422 81.2336 86.9905 81.5764C86.2387 81.9192 85.4244 82.1037 84.5983 82.1184L86.6605 72.4657C86.3841 72.7093 86.1588 73.0054 85.9978 73.3369C84.6076 75.4685 83.2544 77.6373 81.7901 79.6948C81.4334 80.2292 80.9104 80.6311 80.3021 80.838C79.6939 81.0449 79.0343 81.0454 78.4257 80.8394C76.1411 80.1721 73.8519 79.5326 71.5673 78.8005C71.3123 78.6738 71.0207 78.6415 70.7441 78.7094C70.4676 78.7772 70.224 78.9408 70.0566 79.1712C68.1287 81.4035 66.0837 83.532 63.9304 85.5477C58.9441 89.9639 53.55 93.6388 46.3904 93.1383V93.4395C48.4016 98.1941 50.3942 102.953 52.4981 107.685C53.1785 109.134 54.297 110.334 55.6956 111.114C55.306 109.149 55.0229 107.164 54.8476 105.168C54.7363 102.745 55.2832 102.309 57.7068 102.077C57.8078 102.055 57.9123 102.052 58.0143 102.07C58.1162 102.088 58.2137 102.126 58.301 102.181C58.3884 102.237 58.464 102.309 58.5234 102.394C58.5829 102.479 58.625 102.574 58.6475 102.675C58.9904 103.542 59.4029 104.39 59.7875 105.261C60.2694 104.209 60.6819 103.222 61.1592 102.286C61.3122 102.008 61.5559 101.79 61.8497 101.67C62.8784 101.234 63.935 100.891 65.0286 100.479L65.8489 102.128C66.5579 100.506 67.2205 98.9031 67.9805 97.3229C68.1807 96.9465 68.5123 96.6568 68.9122 96.509C69.3121 96.3612 69.7524 96.3655 70.1493 96.5212V97.6426C69.7761 101.832 70.5667 106.043 72.4339 109.812C73.0753 111.364 73.513 112.994 73.7361 114.659C73.9214 115.41 73.5368 115.85 72.8278 115.85L70.9741 116.054C71.4312 116.389 71.8507 116.773 72.2253 117.198C72.5729 117.634 73.0548 118.45 72.8927 118.681C72.4112 119.247 71.7873 119.675 71.0854 119.919C70.6096 120.064 70.1014 120.064 69.6256 119.919C68.357 119.552 67.1047 119.132 65.872 118.658C65.214 118.368 64.5734 118.04 63.9535 117.676L63.5828 118.111L66.9008 120.947C67.6627 121.663 68.5716 122.204 69.564 122.532C70.5565 122.86 71.6087 122.968 72.647 122.847C73.2477 122.847 73.8423 122.728 74.397 122.497C74.9517 122.267 75.4556 121.93 75.8799 121.504C76.3042 121.079 76.6406 120.575 76.8699 120.02C77.0992 119.464 77.2169 118.87 77.2162 118.269C77.4248 116.851 77.2394 115.414 77.4248 113.996C77.4653 112.257 77.8683 110.545 78.608 108.969C79.3477 107.394 80.4078 105.991 81.7206 104.849C79.5591 105.438 77.6087 106.626 76.0948 108.278C75.8169 106.539 75.6943 104.779 75.7287 103.018C75.5898 101.144 76.1931 99.2907 77.4086 97.8576C78.624 96.4246 80.3542 95.5268 82.2257 95.358C84.753 94.8227 87.3007 94.3883 89.8626 94.0558C93.5931 93.6851 97.2725 92.9158 100.841 91.7666C103.221 90.9525 105.43 89.705 107.356 88.0871C102.974 89.0308 98.5237 89.6196 94.0472 89.8481C101.654 84.4659 107.209 76.6612 109.803 67.7111C104.909 74.5695 99.5988 80.997 91.8692 84.8618C94.7032 78.7786 96.9486 72.4427 98.5747 65.9316ZM71.6136 83.9257C71.4746 84.6348 71.3634 85.3391 71.178 86.0296C70.8351 87.3735 70.4227 88.7035 70.0798 90.052C70.0578 90.2793 69.9513 90.4902 69.7814 90.6429C69.6116 90.7956 69.3906 90.8791 69.1622 90.8769C67.3827 91.0854 65.6218 91.3542 63.6801 91.6044L71.6136 83.9257ZM89.9507 96.4609C89.0546 96.478 88.161 96.5601 87.2768 96.7065C84.8113 96.8686 82.4383 97.7071 80.4184 99.1301C79.73 99.5957 79.181 100.24 78.83 100.993C78.479 101.746 78.3393 102.581 78.4257 103.407C78.8031 102.514 79.4274 101.748 80.2252 101.197C81.023 100.646 81.9613 100.334 82.9301 100.298C85.748 99.9982 88.5912 100.547 91.0953 101.874C93.366 102.958 94.6728 105.395 94.3206 107.889C94.0092 110.314 92.8873 112.562 91.137 114.27C88.6185 116.866 85.6017 118.928 82.2674 120.331C78.3951 121.994 74.776 124.194 71.5163 126.865C67.9187 129.858 65.6037 134.114 65.0472 138.761H92.4855C91.6298 136.575 91.6249 134.149 92.4718 131.96C93.3186 129.771 94.9556 127.98 97.0594 126.939L95.8545 132.106C98.8739 128.598 100.867 124.324 101.615 119.756C102.407 121.642 102.75 123.686 102.616 125.725C104.449 121.554 105.153 116.973 104.655 112.444L107.055 115.044C106.828 113.19 106.638 111.545 106.434 109.9C106.213 107.308 105.293 104.824 103.77 102.714C102.248 100.605 100.182 98.9477 97.7915 97.9206C95.3067 96.898 92.637 96.401 89.9507 96.4609Z" fill="#F9F8F4"/>
</svg>
